<svg width="98" height="22" viewBox="0 0 98 22" fill="none" xmlns="http://www.w3.org/2000/svg">
<path fill-rule="evenodd" clip-rule="evenodd" d="M9.97416 14.0334C10.1293 13.8934 10.2508 13.7201 10.3295 13.5265C10.4081 13.3328 10.442 13.1239 10.4284 12.9153C10.4456 12.6892 10.4127 12.462 10.332 12.2501C10.2513 12.0382 10.1247 11.8466 9.96146 11.6892C9.55528 11.3863 9.05315 11.2408 8.54794 11.2795C8.0484 11.2478 7.55426 11.3979 7.15666 11.7019C6.99023 11.8551 6.86019 12.0436 6.77609 12.2535C6.69199 12.4635 6.65597 12.6896 6.67067 12.9153C6.65523 13.1272 6.68939 13.3397 6.77045 13.536C6.8515 13.7323 6.97722 13.9069 7.1376 14.0462C7.54881 14.3257 8.04255 14.4578 8.53841 14.421C9.04961 14.464 9.55976 14.3269 9.98051 14.0334H9.97416ZM7.70936 16.4348C7.24502 16.2267 6.85503 15.8821 6.59126 15.447L6.42291 16.6159H3.67847V6.67047H6.72785V10.3329C7.01286 9.8741 7.42579 9.50864 7.91583 9.2815C8.47565 9.02646 9.08598 8.90157 9.70099 8.91621C10.0685 8.91328 10.4352 8.95272 10.7937 9.03374C11.1236 9.10755 11.4435 9.22059 11.7466 9.37044C12.3237 9.6716 12.7964 10.1399 13.103 10.7141C13.4473 11.3909 13.6155 12.1436 13.5921 12.9026C13.5944 13.2901 13.5485 13.6764 13.4555 14.0525C13.3665 14.3886 13.2284 14.7096 13.0458 15.0054C12.6857 15.5663 12.1809 16.0196 11.5846 16.3173C10.9785 16.621 10.309 16.7767 9.63111 16.7715C8.97276 16.7959 8.317 16.6767 7.70936 16.4221" fill="#979797"/>
<path fill-rule="evenodd" clip-rule="evenodd" d="M14.6499 16.6159H17.7787V6.68317H14.6499V16.6159Z" fill="#979797"/>
<path fill-rule="evenodd" clip-rule="evenodd" d="M23.6011 14.8689C23.8093 14.8315 24.012 14.7686 24.2047 14.6815C24.5553 14.5445 24.8687 14.3269 25.1195 14.0462C25.3361 13.8226 25.4598 13.5252 25.4657 13.214V13.1504C25.3086 13.279 25.1237 13.3693 24.9257 13.4141C24.5996 13.5026 24.2672 13.5663 23.9315 13.6047C23.455 13.646 23.0961 13.6936 22.8483 13.7412C22.6561 13.7701 22.4696 13.8291 22.2956 13.916C22.2029 13.9677 22.1218 14.0379 22.0574 14.1224C21.9999 14.2017 21.9698 14.2976 21.9716 14.3956C21.9707 14.4745 21.9916 14.5521 22.0319 14.6199C22.0723 14.6878 22.1305 14.7431 22.2003 14.7799C22.4338 14.8871 22.6905 14.9341 22.9468 14.9165C23.1663 14.9174 23.3855 14.8972 23.6011 14.8562V14.8689ZM25.5292 15.0976C25.2089 15.6497 24.7296 16.0925 24.1538 16.3682C23.3953 16.7257 22.5619 16.8957 21.7239 16.8637C20.7201 16.8637 19.9673 16.689 19.4591 16.3364C19.2065 16.1594 19.004 15.9202 18.871 15.642C18.738 15.3637 18.679 15.0559 18.6999 14.7482V14.7482C18.6902 14.3464 18.7913 13.9496 18.9921 13.6015C19.2077 13.2579 19.5222 12.9877 19.8942 12.8264C20.0171 12.7654 20.1433 12.7113 20.2722 12.6644C20.4031 12.6161 20.5367 12.5758 20.6725 12.5437C21.0116 12.4528 21.3565 12.3849 21.7048 12.3404C22.1178 12.2833 22.6387 12.2356 23.2708 12.1912L24.0617 12.1213C24.2873 12.099 24.4778 12.0736 24.6335 12.0482C24.8546 12.0321 25.0705 11.9727 25.2688 11.8735C25.3209 11.8446 25.3643 11.8022 25.3944 11.7508C25.4246 11.6994 25.4404 11.6409 25.4403 11.5813C25.4365 11.4859 25.4081 11.3932 25.3581 11.312C25.308 11.2307 25.2379 11.1638 25.1544 11.1175C24.7961 10.9563 24.4024 10.8896 24.0109 10.9238C23.5187 10.888 23.025 10.9674 22.5688 11.1556C22.4424 11.2179 22.3342 11.3117 22.2546 11.428C22.1751 11.5443 22.1268 11.6791 22.1146 11.8195H18.9223C18.9574 11.3574 19.1082 10.9116 19.3608 10.5231C19.6133 10.1345 19.9595 9.81572 20.3675 9.596C21.2146 9.11318 22.3793 8.87284 23.8616 8.87495C25.416 8.88766 26.5679 9.1333 27.3176 9.61189C28.0672 10.0905 28.4463 10.9375 28.4547 12.153V16.6H25.8151L25.5292 15.0976Z" fill="#979797"/>
<path fill-rule="evenodd" clip-rule="evenodd" d="M38.2668 15.8821C37.4091 16.5386 36.1544 16.8679 34.5027 16.87C33.9594 16.873 33.4167 16.8337 32.8795 16.7525C32.4419 16.6866 32.0148 16.5638 31.609 16.3872C30.9364 16.1232 30.3701 15.6441 29.9985 15.0245C29.6479 14.3803 29.4737 13.6549 29.4935 12.9217C29.4902 12.535 29.5426 12.1499 29.6491 11.7782C29.7503 11.4316 29.9023 11.1019 30.1002 10.7998C30.5343 10.1696 31.1408 9.67775 31.8472 9.38315C32.6997 9.02775 33.6175 8.85567 34.5408 8.8781C36.0909 8.8781 37.3022 9.19574 38.1747 9.83103C38.5977 10.1326 38.9494 10.5233 39.2052 10.9755C39.4609 11.4277 39.6144 11.9305 39.6549 12.4484H36.3577C36.3309 12.2721 36.2679 12.1033 36.1728 11.9524C36.0777 11.8016 35.9525 11.672 35.805 11.5717C35.4191 11.3524 34.9774 11.2508 34.5345 11.2795C34.0305 11.243 33.5301 11.3884 33.1241 11.6892C32.9593 11.8458 32.8314 12.037 32.7495 12.2491C32.6677 12.4611 32.634 12.6887 32.6508 12.9154C32.6354 13.1272 32.6696 13.3397 32.7506 13.536C32.8317 13.7323 32.9574 13.907 33.1178 14.0462C33.5306 14.3248 34.025 14.4568 34.5218 14.421C34.977 14.4489 35.4299 14.3381 35.8209 14.1033C35.9635 14.0001 36.0839 13.8694 36.1751 13.7188C36.2662 13.5682 36.3261 13.4008 36.3514 13.2266H39.6485C39.6298 13.7421 39.4953 14.2467 39.255 14.7031C39.0147 15.1595 38.6748 15.556 38.2604 15.8631" fill="#979797"/>
<path fill-rule="evenodd" clip-rule="evenodd" d="M45.0325 13.4871L43.6158 14.7608V16.6159H40.5537V6.68317H43.6158V11.9688L46.8367 9.08455H50.5627L47.3958 11.9688L50.6675 16.6159H47.0972L45.0325 13.4871Z" fill="#979797"/>
<path fill-rule="evenodd" clip-rule="evenodd" d="M54.9906 12.2928V16.6159H52.0556V12.2928H50.3689V9.75162H52.0556V9.29422C52.0517 8.93975 52.0804 8.58568 52.1413 8.23646C52.1872 7.96077 52.2672 7.69188 52.3796 7.436C52.4885 7.20766 52.6427 7.0038 52.8327 6.83673C53.0227 6.66966 53.2446 6.54287 53.485 6.46401C54.173 6.24865 54.8927 6.15197 55.6132 6.17813H57.303V8.51281H56.0166C55.7269 8.47886 55.4349 8.55356 55.1971 8.72246C55.0266 8.97865 54.9534 9.28735 54.9906 9.5928V9.76115H57.2872V12.3023L54.9906 12.2928Z" fill="#979797"/>
<path fill-rule="evenodd" clip-rule="evenodd" d="M58.3799 9.11C58.4187 9.14656 58.4655 9.17372 58.5165 9.18942C58.5934 9.219 58.6732 9.2403 58.7547 9.25294C58.9453 9.28788 59.1549 9.31647 59.39 9.33871C59.625 9.36094 59.8188 9.37047 59.9935 9.37047C60.0888 9.37047 60.1841 9.37047 60.2857 9.37047L60.6034 9.35141C60.8103 9.32935 61.016 9.29648 61.2196 9.25294C61.3513 9.23643 61.4774 9.18969 61.5881 9.11636V16.6159H58.3799V9.11ZM58.6054 8.2746C58.4544 8.1458 58.3371 7.98219 58.2635 7.79791C58.1899 7.61363 58.1622 7.4142 58.1829 7.21685C58.1625 7.01442 58.1951 6.81014 58.2775 6.62412C58.3599 6.4381 58.4893 6.27675 58.653 6.15592C59.0634 5.92319 59.5319 5.81295 60.003 5.83828C60.476 5.81438 60.9462 5.92448 61.3594 6.15592C61.5236 6.27638 61.6537 6.43758 61.7367 6.62362C61.8197 6.80967 61.8527 7.01413 61.8326 7.21685C61.8497 7.41461 61.8171 7.6135 61.7378 7.79545C61.6585 7.97741 61.5349 8.13665 61.3784 8.25872C60.9449 8.46372 60.4714 8.57005 59.9919 8.57005C59.5124 8.57005 59.0389 8.46372 58.6054 8.25872V8.2746Z" fill="#979797"/>
<path fill-rule="evenodd" clip-rule="evenodd" d="M63.9164 16.2411C63.4949 16.0512 63.1276 15.7591 62.8475 15.3914C62.5674 15.0236 62.3834 14.5919 62.3123 14.1351H65.6253C65.6828 14.2712 65.7695 14.3929 65.8792 14.4918C65.989 14.5906 66.1192 14.664 66.2606 14.7069C66.7191 14.841 67.1968 14.8979 67.6741 14.8752C68.0515 14.9016 68.4302 14.8486 68.7858 14.7196C68.8726 14.6921 68.9492 14.6393 69.0057 14.568C69.0623 14.4967 69.0964 14.4101 69.1035 14.3194C69.104 14.2682 69.0884 14.2183 69.059 14.1764C69.0225 14.1279 68.9759 14.0878 68.9224 14.0589C68.707 13.9624 68.4753 13.9075 68.2395 13.8969C67.8964 13.8556 67.3946 13.8238 66.7275 13.7984C66.2256 13.773 65.7746 13.7349 65.3775 13.6809C65.0235 13.6375 64.6724 13.5728 64.3261 13.4871C63.8278 13.3913 63.3704 13.1465 63.0142 12.7851C62.7197 12.4433 62.5633 12.0038 62.5759 11.5527C62.5702 11.1585 62.6685 10.7698 62.8609 10.4257C63.0533 10.0816 63.333 9.79436 63.6718 9.59282C64.4066 9.10789 65.5046 8.86542 66.9657 8.86542C68.4269 8.86542 69.5492 9.07718 70.3327 9.50071C70.7295 9.70317 71.0811 9.98408 71.3661 10.3264C71.6511 10.6688 71.8637 11.0654 71.9908 11.4923H68.8335C68.7759 11.3511 68.6853 11.2257 68.5692 11.1268C68.4531 11.0279 68.315 10.9582 68.1664 10.9237C67.7526 10.8109 67.3247 10.7584 66.8959 10.7681C66.5236 10.7388 66.1494 10.792 65.8 10.9237C65.723 10.9538 65.6559 11.0049 65.6065 11.0711C65.5571 11.1374 65.5273 11.2162 65.5205 11.2986C65.5207 11.3525 65.5385 11.405 65.5713 11.4479C65.6125 11.501 65.6659 11.5435 65.7269 11.5717C65.9534 11.6626 66.1921 11.7193 66.4353 11.7401C66.7677 11.7846 67.2283 11.8195 67.817 11.8449C68.3538 11.8703 68.8366 11.9084 69.2591 11.9624C69.6321 12.0041 70.0016 12.0731 70.3645 12.1689C70.8634 12.2669 71.319 12.5191 71.6668 12.89C71.9359 13.2453 72.0719 13.6836 72.0512 14.1288C72.0529 14.387 72.0111 14.6437 71.9273 14.8879C71.8425 15.1322 71.718 15.3608 71.5589 15.5645C71.1565 16.022 70.6302 16.353 70.0437 16.5175C69.1748 16.778 68.2696 16.8971 67.3628 16.87C66.1815 16.9105 65.0056 16.6937 63.9164 16.2348" fill="#979797"/>
<path fill-rule="evenodd" clip-rule="evenodd" d="M75.9996 16.6159H72.9216V6.67047H75.9837V10.4345C76.2635 9.95661 76.6646 9.56105 77.1463 9.28785C77.6766 8.99531 78.2752 8.84948 78.8806 8.86539C79.9638 8.86539 80.7865 9.16715 81.3678 9.77385C81.9491 10.3805 82.2318 11.2223 82.2318 12.315V16.6159H79.1284V13.252C79.1548 12.7829 79.0445 12.3161 78.8108 11.9084C78.5979 11.5908 78.2104 11.4351 77.6482 11.4351C77.4156 11.4137 77.1811 11.4439 76.9615 11.5235C76.7418 11.6031 76.5425 11.7302 76.3776 11.8957C76.083 12.3231 75.946 12.8396 75.9901 13.3569L75.9996 16.6159Z" fill="#979797"/>
<path fill-rule="evenodd" clip-rule="evenodd" d="M83.4609 16.5556H93.7177V13.8302H83.4609V16.5556Z" fill="#979797"/>
</svg>
