<svg width="36" height="28" viewBox="0 0 36 28" fill="none" xmlns="http://www.w3.org/2000/svg">
<path d="M8.41922 13.4708C7.8419 13.4708 7.37043 13.2399 7.01441 12.7877C6.64878 12.3066 6.46596 11.6042 6.46596 10.6708C6.46596 9.74711 6.64878 9.0447 7.01441 8.57323C7.37043 8.12099 7.8419 7.89006 8.41922 7.89006C9.72781 7.89006 10.3917 8.8234 10.3917 10.6708C10.3917 12.5375 9.72781 13.4708 8.41922 13.4708ZM12.3739 2.98285H10.2859V6.95673C9.84328 6.40828 9.08314 6.13886 8.0151 6.13886C7.17798 6.13886 6.47558 6.36979 5.89826 6.84127C4.86871 7.69763 4.34912 8.98697 4.34912 10.7093C4.34912 12.3932 4.85909 13.6536 5.88864 14.5004C6.4852 14.9911 7.19723 15.2316 8.00548 15.2316C9.13125 15.2316 9.9395 14.8468 10.4398 14.077L10.5745 15.0296H12.3739V2.98285V2.98285Z" fill="#979797"/>
<path d="M15.9723 9.82402C15.982 9.29481 16.1359 8.84257 16.4246 8.47694C16.7614 8.03433 17.2424 7.81302 17.8775 7.81302C18.4452 7.81302 18.8878 7.97659 19.1957 8.31336C19.5421 8.68862 19.7153 9.19859 19.7249 9.83364H15.9723V9.82402ZM21.0624 7.73604C20.3503 6.668 19.2919 6.13879 17.8967 6.13879C16.7613 6.13879 15.8376 6.50443 15.1256 7.2357C14.2885 8.09206 13.8748 9.2467 13.8748 10.7092C13.8748 12.1622 14.3174 13.3264 15.2122 14.1828C15.9531 14.8948 16.8672 15.2508 17.9449 15.2508C19.2053 15.2508 20.1772 14.8467 20.8603 14.0288C21.2933 13.5092 21.5339 12.9704 21.5916 12.4316H19.5902C19.5132 12.7202 19.3689 12.9608 19.1765 13.1628C18.8974 13.4419 18.4741 13.5766 17.9064 13.5766C17.4253 13.5766 17.0019 13.4034 16.6266 13.0474C16.184 12.624 15.9723 12.0563 15.9916 11.3443H21.7936C21.7936 11.2192 21.8033 11.0268 21.8129 10.7573C21.8418 9.5546 21.5916 8.54429 21.0624 7.73604Z" fill="#979797"/>
<path d="M28.8949 6.35052L26.8454 12.4605L24.6805 6.35052H22.4771L25.6908 15.0296H27.9135L31.0503 6.35052H28.8949Z" fill="#979797"/>
<path d="M10.7671 16.367L8.88117 19.1766L6.94715 16.367H4.55127L7.60144 20.6199L4.56089 25.046H6.85093L8.74646 22.1402L10.6901 25.046H13.0379L10.0647 20.6392L13.0571 16.367H10.7671Z" fill="#979797"/>
</svg>
