<svg width="230" height="56" viewBox="0 0 230 56" fill="none" xmlns="http://www.w3.org/2000/svg">
<path fill-rule="evenodd" clip-rule="evenodd" d="M90.1586 21.7744C91.4365 19.4275 94.8584 16.2466 95.7556 16.2466C97.1465 16.2466 100.833 17.9812 101.125 18.9419C104.016 28.2376 99.0599 36.7997 95.0002 36.7997C93.6924 36.7997 92.3915 36.2969 91.4169 35.3396L91.4261 35.3953L91.4261 35.3954C91.8744 38.1181 92.2657 40.4953 92.2657 43.0772C92.2657 49.0675 90.2175 55.2054 85.911 55.2054C82.5503 55.2054 79.0269 52.5297 79.0269 45.3504C79.0269 40.962 80.675 35.4215 85.0022 29.0149C84.8776 27.9112 84.8062 26.9874 84.8062 26.3346C84.8062 24.9299 84.8627 23.1769 85.1475 21.2578C83.4256 22.4468 81.1652 23.1746 78.8632 23.2126C80.3417 23.7651 81.4616 24.3752 81.5331 24.9161C82.104 29.2237 79.4363 36.8436 73.8059 36.8436C69.3426 36.8436 65.7454 32.6501 65.7454 25.8606C65.7454 24.8019 65.8885 23.6128 66.1133 22.5045C64.817 22.982 63.2555 23.2795 61.8623 23.2795C61.6939 23.2795 61.5291 23.2749 61.3642 23.2703L61.364 23.2703C62.7664 23.8066 63.8113 24.3948 63.8828 24.9172C64.4537 29.2248 61.7884 36.8447 56.1534 36.8447C53.5481 36.8447 51.2368 35.41 49.7641 32.8623C47.9142 35.0571 45.6721 36.8228 43.7519 36.8228C39.4916 36.8228 37.6105 34.658 39.2805 23.7443C37.4329 26.247 35.2808 30.0194 33.8254 35.3177C33.5382 36.3695 31.0678 36.7859 29.5708 36.4549C28.963 33.4067 28.2849 27.9988 27.8351 23.0004C26.112 22.9854 24.4605 22.674 22.9704 22.102C24.0718 22.9854 25.1456 23.8862 25.2909 24.1629C25.5723 24.6923 25.623 25.7199 25.623 26.533C25.623 32.792 21.1805 36.7524 17.7286 36.7524C15.5893 36.7524 13.3103 35.4031 12.0278 32.95C10.9137 35.3039 9.29335 36.719 7.1828 36.719C3.957 36.719 0 32.5002 0 24.803C0 20.116 1.69767 17.2616 2.40926 16.6895C3.37227 15.9168 5.78153 15.5581 7.87824 16.0921C6.65689 18.1554 5.96606 21.0709 5.96606 23.9899C5.96606 31.047 7.45152 33.0746 8.6844 33.0746C9.68086 33.0746 10.675 31.7725 11.2574 30.2859C10.8169 28.8742 10.5608 27.2204 10.5608 25.3555C10.5608 23.817 10.9241 21.5415 11.5538 20.8633C12.1512 20.2244 14.5397 19.6697 16.2224 20.7376C15.8291 22.9427 15.6504 25.0798 15.6596 26.9747C15.6723 31.1197 16.4808 34.1068 18.0008 34.1068C18.98 34.1068 20.041 32.9396 20.041 25.3036C20.041 24.1722 19.9257 21.1424 19.7827 20.3813C17.5476 18.9223 16.3089 16.8879 16.3089 14.3495C16.3089 12.6795 19.5428 10.6485 21.7006 10.434C21.3512 16.8475 23.9888 19.9015 27.6275 20.4447C27.4626 18.1265 27.3599 15.8488 27.3599 13.8016C27.3599 3.20735 29.9929 0 33.9315 0C38.2414 0 40.443 2.96169 40.443 7.95782C40.443 14.7243 37.4802 19.8819 32.8843 21.9186C32.992 23.4556 33.1438 24.9542 33.2868 26.3654L33.2868 26.3656L33.287 26.3676L33.287 26.368C33.3842 27.3278 33.4774 28.2472 33.5497 29.1106C35.4792 22.9047 39.5469 18.0573 40.2239 18.0573C41.4222 18.0573 43.8545 18.7874 44.3585 19.6051C44.811 20.3339 44.6458 22.8533 44.4644 25.6177C44.3347 27.5952 44.1968 29.6981 44.2709 31.3607C44.3262 32.604 44.708 33.0526 45.6502 33.0526C46.3526 33.0526 47.8161 32.1427 48.9775 31.1785C48.4158 29.6585 48.0929 27.8766 48.0929 25.8606C48.0929 23.005 49.1447 19.1933 49.9936 18.6571C50.621 18.2603 52.0372 18.0758 53.3716 18.0873C53.2274 17.5245 53.1467 16.9225 53.1467 16.2674C53.1467 13.94 57.3228 12.1109 59.1681 12.5595C58.6099 17.6929 61.0745 20.5023 63.5507 20.5023C64.5806 20.5023 65.7881 20.2186 66.8941 19.8219C67.1386 19.2314 67.3981 18.8104 67.6392 18.6571C68.232 18.2857 69.5179 18.0989 70.7773 18.0873C70.2872 16.8983 70.0161 15.5304 70.0161 13.9942C70.0161 11.9021 74.5221 10.0568 76.4378 10.645C75.7158 17.2858 76.9325 20.3962 79.4271 20.3962C81.9344 20.3962 84.504 18.8773 85.3148 17.2581C85.9364 15.8949 88.9142 13.9942 91.0006 14.602C90.5842 15.5869 90.1586 20.1702 90.1586 21.7744ZM34.2912 2.00328C33.2463 2.00328 32.5427 3.47259 32.5427 14.0726C32.5427 15.4624 32.6073 17.3769 32.725 19.4401C34.6256 17.9178 35.8735 15.0184 35.8735 8.15502C35.8735 4.46559 35.2057 2.00328 34.2912 2.00328ZM53.8183 27.4452C53.8183 32.7193 54.9243 34.3812 56.2068 34.3812C57.51 34.3812 58.548 32.1992 58.5492 26.6564C58.5492 25.5273 58.3531 24.0614 58.014 22.6152C56.6393 22.185 55.6728 21.6245 54.7721 20.6465C54.1424 22.3834 53.8183 24.3186 53.8183 27.4452ZM71.4703 27.4452C71.4703 32.7193 72.5751 34.3812 73.8541 34.3812C75.1608 34.3812 76.1977 32.1992 76.1977 26.6564C76.1977 25.5434 76.0074 24.0972 75.6752 22.6694C74.327 22.2507 73.3744 21.6579 72.4194 20.6465C71.7909 22.3834 71.4703 24.3186 71.4703 27.4452ZM83.5814 45.2258C83.5814 50.8366 84.4856 53.1974 85.6332 53.1974C86.5235 53.1974 87.4001 52.1583 87.4012 48.0053C87.4012 45.8336 86.7229 41.2303 86.0595 36.7285L86.0593 36.7271C85.8931 35.5991 85.7278 34.4775 85.5744 33.4021C84.338 36.6959 83.5814 40.5676 83.5814 45.2258ZM90.9671 32.4737C92.155 33.5162 93.1861 33.8542 93.7973 33.8542C94.7903 33.8542 96.2158 29.8764 96.2273 25.8156C96.2331 23.7477 95.8744 21.6602 94.901 20.0606C93.1872 21.5968 91.6383 23.0384 90.2486 25.2862C90.3858 28.0542 90.6672 30.3896 90.9671 32.4737ZM106.113 29.8499C104.929 28.4417 103.939 25.7856 104.87 24.2679C105.899 22.5852 108.361 22.1296 110.639 23.0269C111.489 24.5251 112.202 26.6645 111.316 28.0611C110.284 29.6792 107.895 30.1267 106.113 29.8499ZM148.335 21.4988C147.368 19.3478 145.267 17.9304 142.046 17.9304C136.972 17.9304 134.199 21.719 134.199 27.218C134.199 28.8557 134.511 30.3158 135.061 31.5764C134.276 32.4367 133.455 33.1956 132.826 33.1956C131.924 33.1956 130.68 32.3329 129.471 30.5822C132.159 25.7637 134.181 18.4344 134.181 10.57C134.181 4.48402 131.946 0.249072 127.606 0.249072C123.779 0.249072 121.067 4.9661 121.067 14.7392C121.067 16.039 121.136 17.2938 121.258 18.5082C119.875 18.0192 118.333 17.8797 117.723 17.8797C115.679 17.8797 113.845 21.6706 113.793 25.8537C113.729 31.0055 116.186 36.7559 122.011 36.7559C123.76 36.7559 125.514 35.7444 127.116 33.9556C128.648 35.7087 130.245 36.6717 131.583 36.6717C133.365 36.6717 135.033 34.771 136.054 33.3086C137.738 35.5922 140.401 36.8677 143.376 36.8677C147.782 36.8677 150.798 34.0087 150.798 31.3215C150.798 30.4357 150.586 29.4381 150.128 29.2375C149.116 28.7934 146.842 29.1971 145.375 30.317C145.572 32.6824 144.102 34.4977 142.665 34.4977C141.15 34.4977 139.976 33.221 139.639 29.4381C143.078 28.5074 150.892 26.3865 151.022 26.2354C151.539 25.6426 151.668 24.3843 151.623 23.5171C149.728 23.5286 149.049 23.0938 148.335 21.4988ZM122.829 34.3904C120.919 34.3904 119.19 30.874 119.19 26.4072C119.19 23.6566 119.968 21.7283 121.455 19.6834C122.114 24.1883 123.723 28.9053 125.379 31.5833C124.542 33.424 123.646 34.3904 122.829 34.3904ZM127.152 25.721C126.158 22.3176 125.683 18.6259 125.683 13.6044C125.683 3.40221 126.549 2.27428 127.326 2.27428C128.236 2.27428 128.648 3.99271 128.648 10.3497C128.647 16.5499 127.96 21.8309 127.152 25.721ZM139.536 26.9793C139.536 21.997 140.988 20.267 142.361 20.267C143.545 20.267 144.449 21.9312 144.386 25.0855C142.456 25.9148 140.943 26.4914 139.536 26.9793ZM155.22 29.8499C154.037 28.4417 153.049 25.7856 153.981 24.2679C155.012 22.5852 157.473 22.1296 159.75 23.0269C160.599 24.5251 161.313 26.6645 160.422 28.0611C159.395 29.6792 157.005 30.1267 155.22 29.8499ZM228.847 12.4776C228.847 11.5411 228.601 9.80886 228.365 9.03614C225.607 8.72129 222.632 10.2275 221.974 11.3197C221.835 11.5532 221.903 12.0658 222.008 12.8692C222.12 13.7168 222.275 14.888 222.275 16.3966C222.275 19.3952 220.537 21.2554 217.916 21.2554C214.577 21.2554 212.245 17.7032 212.804 12.5745C210.988 12.0809 206.725 13.9481 206.725 16.347C206.725 16.964 206.811 17.5429 206.977 18.0908C205.542 18.0389 203.909 18.2188 203.222 18.6536C202.979 18.807 202.721 19.2302 202.477 19.8138C201.373 20.2152 200.163 20.4989 199.131 20.4989C196.66 20.4989 194.195 17.6859 194.75 12.556C192.902 12.1051 188.726 13.9342 188.726 16.2616C188.726 16.9167 188.806 17.521 188.956 18.0838C187.619 18.0723 186.201 18.2545 185.571 18.6536C184.73 19.1899 183.677 23.0027 183.677 25.8571C183.677 27.8547 183.989 29.6284 184.545 31.1393C183.655 32.1623 182.665 33.1933 181.928 33.1933C181.027 33.1933 179.781 32.3306 178.571 30.5799C181.261 25.7614 183.279 18.4321 183.279 10.5677C183.279 4.47943 181.047 0.246788 176.707 0.246788C172.876 0.246788 170.171 4.96381 170.171 14.7369C170.171 16.0367 170.239 17.2892 170.355 18.506C168.976 18.0169 167.428 17.8774 166.822 17.8774C164.78 17.8774 162.944 21.666 162.894 25.8514C162.83 31.0032 165.287 36.7513 171.112 36.7513C172.862 36.7513 174.613 35.7421 176.217 33.951C177.75 35.7052 179.343 36.6694 180.682 36.6694C182.618 36.6694 184.417 34.4331 185.399 32.9454C186.874 35.4365 189.161 36.8355 191.739 36.8355C197.371 36.8355 200.038 29.2179 199.467 24.908C199.396 24.3878 198.35 23.7996 196.946 23.2633L196.956 23.2636L196.956 23.2636C197.121 23.2681 197.282 23.2726 197.445 23.2726C198.838 23.2726 200.4 22.975 201.697 22.4975C201.472 23.6036 201.328 24.7949 201.328 25.8537C201.328 32.6432 204.927 36.8343 209.386 36.8343C215.02 36.8343 217.195 29.9283 217.154 25.668C217.15 25.1386 216.049 24.2713 214.589 23.5102C215.521 23.6728 216.497 23.7581 217.495 23.7581C224.797 23.7627 228.847 18.2845 228.847 12.4776ZM171.929 34.3882C170.023 34.3882 168.294 30.8717 168.294 26.405C168.294 23.6543 169.071 21.726 170.558 19.6812C171.212 24.186 172.827 28.9007 174.483 31.581C173.644 33.4217 172.749 34.3882 171.929 34.3882ZM176.255 25.7187C175.26 22.3153 174.784 18.6236 174.784 13.5998C174.784 3.39994 175.651 2.272 176.425 2.272C177.34 2.272 177.75 3.99043 177.75 10.3475C177.75 16.5453 177.058 21.824 176.255 25.7187ZM191.784 34.3766C190.505 34.3766 189.402 32.717 189.402 27.443C189.402 24.3163 189.723 22.3811 190.35 20.643C191.25 21.6211 192.222 22.1839 193.594 22.6117C193.931 24.058 194.131 25.5262 194.131 26.6552C194.13 32.1923 193.093 34.3766 191.784 34.3766ZM209.435 34.3766C208.156 34.3766 207.05 32.717 207.05 27.4429C207.05 24.0707 207.424 22.0858 208.152 20.2417C208.973 21.222 209.864 21.8771 211.206 22.456C211.564 23.9542 211.778 25.4858 211.778 26.6552C211.779 32.1923 210.74 34.3766 209.435 34.3766ZM219.947 33.8322C219.947 31.498 221.47 30.0298 223.858 30.0298C226.259 30.0298 227.782 31.498 227.781 33.8322C227.781 36.1769 226.259 37.7016 223.858 37.7016C221.469 37.7016 219.947 36.1769 219.947 33.8322ZM224.691 34.5012L225.958 36.2403C226.561 35.7237 226.863 34.891 226.862 33.8322C226.862 31.9062 225.87 30.8187 223.859 30.8187C221.849 30.8187 220.876 31.9062 220.876 33.8322C220.876 35.7652 221.849 36.9023 223.859 36.9023C224.401 36.9023 224.876 36.817 225.264 36.6613L223.859 34.6119H223.254V36.0881H222.412V31.6779H224C225.08 31.6779 225.72 32.2211 225.72 33.138C225.72 33.778 225.35 34.2959 224.691 34.5012ZM223.254 33.8749H223.999C224.573 33.8749 224.886 33.6177 224.886 33.1391C224.886 32.6639 224.573 32.4067 223.999 32.4067H223.254V33.8749Z" fill="white"/>
</svg>
