<svg width="163" height="40" viewBox="0 0 163 40" fill="none" xmlns="http://www.w3.org/2000/svg">
<path d="M158.518 21.7592C156.827 21.7592 155.749 22.8237 155.749 24.5142C155.749 26.2129 156.827 27.318 158.518 27.318C160.219 27.318 161.297 26.2129 161.297 24.5142C161.296 22.8229 160.218 21.7592 158.518 21.7592ZM160.004 26.2585L159.108 24.9983C159.575 24.8499 159.836 24.4744 159.836 24.0109C159.836 23.3469 159.383 22.9539 158.618 22.9539H157.494V26.1491H158.091V25.0788H158.518L159.514 26.5636C159.238 26.6763 158.902 26.7385 158.518 26.7385C157.095 26.7385 156.407 25.9144 156.407 24.5142C156.407 23.1189 157.096 22.3305 158.518 22.3305C159.943 22.3305 160.645 23.1189 160.645 24.5142C160.645 25.281 160.432 25.8854 160.004 26.2585V26.2585ZM158.618 24.5449H158.091V23.4812H158.618C159.024 23.4812 159.245 23.6669 159.245 24.0118C159.245 24.3591 159.024 24.5449 158.618 24.5449ZM67.8055 11.7717C67.1703 11.7717 64.7476 14.0764 63.8425 15.7776C63.8425 14.6161 64.1448 11.2941 64.4389 10.5812C62.9618 10.1401 60.8527 11.518 60.4127 12.5054C59.8382 13.6793 58.0192 14.7795 56.2431 14.7795C54.4768 14.7795 53.6163 12.5253 54.1276 7.71431C52.7704 7.28818 49.5796 8.62544 49.5796 10.1409C49.5796 11.2544 49.7716 12.2451 50.1192 13.1064C49.2263 13.1147 48.3164 13.2499 47.8975 13.5193C47.7265 13.6304 47.5426 13.9355 47.3708 14.3633C46.5873 14.651 45.7325 14.8557 45.0025 14.8557C43.2474 14.8557 41.5038 12.8204 41.8992 9.10131C40.593 8.77632 37.6348 10.102 37.6348 11.7883C37.6348 12.2625 37.6923 12.6986 37.7944 13.1064C36.8497 13.0982 35.8466 13.2316 35.4025 13.5193C34.8021 13.9081 34.0567 16.6689 34.0567 18.7382C34.0567 20.199 34.2852 21.4898 34.6822 22.5916C33.8598 23.2905 32.8235 23.9496 32.3268 23.9496C31.6591 23.9496 31.3885 23.6246 31.3496 22.7234C31.224 19.835 31.9614 15.1111 31.412 14.2058C31.0555 13.6138 29.3329 13.0849 28.4846 13.0849C28.0049 13.0849 25.1244 16.5968 23.7575 21.0935C23.6311 19.5473 23.4148 17.7541 23.286 15.8821C26.5416 14.4064 28.6385 10.669 28.6385 5.76604C28.6385 2.14641 27.0788 0 24.0273 0C21.2384 0 19.374 2.32383 19.374 10C19.374 11.4832 19.4462 13.133 19.5628 14.8126C16.9862 14.4188 15.1194 12.2061 15.3665 7.55928C13.8384 7.71431 11.5486 9.18587 11.5486 10.3955C11.5486 12.2351 12.4253 13.7083 14.0077 14.7662C14.109 15.3184 14.1908 17.5128 14.1908 18.332C14.1908 23.865 13.4397 24.7098 12.747 24.7098C11.6701 24.7098 11.0981 22.546 11.0884 19.5432C11.0891 18.0277 11.2225 16.5152 11.487 15.024C10.2951 14.2497 8.6033 14.6518 8.18116 15.1152C7.73552 15.6069 7.47867 17.255 7.47867 18.3693C7.47867 19.7206 7.65935 20.9186 7.97211 21.9425C7.55888 23.0194 6.85477 23.9629 6.14904 23.9629C5.27558 23.9629 4.22387 22.4946 4.22387 17.381C4.22387 15.2661 4.71326 13.1537 5.57781 11.6589C4.09342 11.2718 2.38702 11.5313 1.70559 12.0909C1.20161 12.5062 0 14.5747 0 17.9705C0 23.5475 2.80106 26.605 5.08598 26.605C6.58009 26.605 7.72823 25.5795 8.5166 23.8742C9.4249 25.6516 11.0381 26.6291 12.5533 26.6291C14.9987 26.6291 18.1425 23.7597 18.1425 19.224C18.1425 18.6354 18.1068 17.8909 17.9075 17.507C17.8046 17.3064 17.0446 16.654 16.2651 16.0139C17.32 16.4285 18.4892 16.6531 19.7095 16.6647C20.0279 20.2869 20.5076 24.2049 20.9395 26.4127C21.9993 26.6531 23.7486 26.3505 23.9528 25.5886C24.9826 21.7501 26.5067 19.0167 27.8161 17.2028C26.6331 25.1103 27.9652 26.6788 30.9826 26.6788C32.3414 26.6788 33.9287 25.3996 35.2397 23.8095C36.2825 25.6558 37.9192 26.6946 39.7641 26.6946C43.7538 26.6946 45.6417 21.1731 45.2374 18.0526C45.1864 17.6737 44.4466 17.2476 43.4541 16.8596C43.5707 16.8629 43.6874 16.8662 43.8073 16.8662C44.7942 16.8662 45.9002 16.6506 46.8174 16.3049C46.6578 17.1074 46.5557 17.9697 46.5557 18.7365C46.5557 23.6561 49.1032 26.6946 52.264 26.6946C56.2512 26.6946 58.1408 21.1731 57.7356 18.0526C57.6846 17.6604 56.8922 17.2185 55.8445 16.8189C57.4747 16.7907 59.0758 16.2643 60.2952 15.4021C60.0935 16.7924 60.0546 18.0625 60.0546 19.0814C60.0546 19.5548 60.1056 20.2238 60.1931 21.0239C57.1288 25.6657 55.962 29.6808 55.962 32.8594C55.962 38.0608 58.456 40 60.8357 40C63.8855 40 65.3358 35.5521 65.3358 31.2129C65.3358 29.3293 65.0547 27.5966 64.7346 25.6069C65.4127 26.2856 66.3238 26.6651 67.2724 26.6639C70.1471 26.6639 73.6564 20.461 71.6105 13.7249C71.4006 13.0285 68.79 11.7717 67.8055 11.7717V11.7717ZM23.0429 10.1973C23.0429 2.517 23.5412 1.4525 24.2801 1.4525C24.9283 1.4525 25.4007 3.23661 25.4007 5.90947C25.4007 10.8821 24.5175 12.9829 23.1709 14.0864C23.0951 12.7914 23.0524 11.4946 23.0429 10.1973V10.1973ZM39.7998 24.9121C38.8907 24.9121 38.1088 23.7075 38.1088 19.8864C38.1088 17.6215 38.3373 16.2187 38.7829 14.961C39.4214 15.669 40.1053 16.0761 41.0792 16.387C41.319 17.4349 41.4568 18.4969 41.4568 19.3152C41.4576 23.3303 40.7235 24.9121 39.7998 24.9121ZM52.2964 24.9121C51.3905 24.9121 50.6078 23.7075 50.6078 19.8864C50.6078 17.6215 50.8363 16.2187 51.2811 14.961C51.9569 15.6939 52.6318 16.1225 53.5871 16.4268C53.8229 17.4614 53.9574 18.5094 53.9574 19.3152C53.9566 23.3303 53.2225 24.9121 52.2964 24.9121V24.9121ZM60.6372 38.545C59.8245 38.545 59.1844 36.8347 59.1844 32.769C59.1844 29.394 59.72 26.5885 60.595 24.2025C61.1379 28.0915 61.8882 32.8146 61.8882 34.7836C61.8882 37.7922 61.2675 38.545 60.6372 38.545ZM66.4191 24.5299C65.9857 24.5299 65.2556 24.2854 64.4138 23.5293C64.1635 21.8025 63.9943 20.0645 63.9065 18.3212C64.891 16.6921 65.9873 15.6475 67.201 14.5349C67.8898 15.6931 68.1442 17.2069 68.1393 18.705C68.1312 21.6482 67.1216 24.5299 66.4191 24.5299ZM74.26 17.5841C73.6013 18.6843 74.3013 20.6085 75.1399 21.6283C76.4023 21.8297 78.0941 21.5047 78.8242 20.3324C79.4505 19.321 78.9473 17.7699 78.3445 16.6846C76.7321 16.0355 74.9884 16.3646 74.26 17.5841ZM109.036 17.5841C108.377 18.6843 109.076 20.6085 109.915 21.6283C111.179 21.8297 112.87 21.5047 113.598 20.3324C114.228 19.321 113.723 17.7699 113.122 16.6846C111.509 16.0355 109.767 16.3646 109.036 17.5841ZM162.051 9.04162C162.051 8.36263 161.877 7.10744 161.71 6.54784C159.757 6.31985 157.65 7.41171 157.184 8.20262C156.982 8.55082 157.397 9.75128 157.397 11.8819C157.397 14.0549 156.166 15.4021 154.31 15.4021C151.947 15.4021 150.294 12.8287 150.69 9.11292C149.404 8.75477 146.384 10.1086 146.384 11.8463C146.384 12.294 146.447 12.7127 146.563 13.1098C145.546 13.0725 144.391 13.2026 143.904 13.5177C143.732 13.6288 143.55 13.9355 143.376 14.3583C142.595 14.6493 141.739 14.8541 141.006 14.8541C139.258 14.8541 137.512 12.8163 137.905 9.09965C136.595 8.77301 133.64 10.0987 133.64 11.7849C133.64 12.2592 133.696 12.6969 133.802 13.1048C132.854 13.0965 131.851 13.2283 131.405 13.5177C130.809 13.9065 130.065 16.6689 130.065 18.7365C130.065 20.184 130.286 21.4682 130.68 22.5642C130.049 23.3054 129.349 24.0524 128.828 24.0524C128.187 24.0524 127.307 23.4273 126.449 22.1588C128.354 18.6677 129.783 13.3568 129.783 7.65959C129.783 3.24822 128.203 0.180733 125.129 0.180733C122.416 0.180733 120.5 3.59891 120.5 10.6806C120.5 11.6225 120.548 12.5294 120.631 13.4107C119.654 13.0567 118.558 12.9556 118.129 12.9556C116.683 12.9556 115.381 15.7005 115.346 18.7332C115.301 22.4656 117.042 26.6307 121.165 26.6307C122.405 26.6307 123.645 25.8995 124.781 24.6021C125.866 25.8738 126.993 26.5719 127.941 26.5719C129.312 26.5719 130.587 24.9511 131.282 23.8742C132.326 25.679 133.945 26.6929 135.771 26.6929C139.76 26.6929 141.648 21.1731 141.244 18.0509C141.194 17.6737 140.453 17.2476 139.459 16.8596C139.577 16.8629 139.696 16.8662 139.813 16.8662C140.8 16.8662 141.906 16.6506 142.824 16.3049C142.664 17.1058 142.563 17.9697 142.563 18.7365C142.563 23.6561 145.111 26.6929 148.269 26.6929C152.258 26.6929 153.799 21.6888 153.769 18.603C153.767 18.2192 152.987 17.5908 151.954 17.0395C152.613 17.1572 153.305 17.2194 154.011 17.2194C159.181 17.2185 162.051 13.249 162.051 9.04162V9.04162ZM121.746 24.9171C120.396 24.9171 119.171 22.3694 119.171 19.1328C119.171 17.1406 119.722 15.7428 120.774 14.2613C121.238 17.5253 122.38 20.9418 123.554 22.8834C122.96 24.2165 122.327 24.9171 121.746 24.9171V24.9171ZM124.808 18.6354C124.103 16.1698 123.767 13.4944 123.767 9.85492C123.767 2.46394 124.381 1.64732 124.929 1.64732C125.577 1.64732 125.868 2.89255 125.868 7.49876C125.868 11.9889 125.377 15.8133 124.808 18.6354ZM135.805 24.9088C134.899 24.9088 134.118 23.7059 134.118 19.8848C134.118 17.6198 134.345 16.217 134.789 14.9577C135.426 15.6657 136.115 16.0744 137.086 16.3837C137.326 17.4316 137.466 18.4953 137.466 19.3135C137.466 23.3253 136.732 24.9088 135.805 24.9088V24.9088ZM148.304 24.9088C147.398 24.9088 146.615 23.7059 146.615 19.8848C146.615 17.4416 146.88 16.004 147.395 14.6667C147.977 15.3764 148.608 15.8514 149.558 16.2709C149.812 17.3562 149.963 18.4663 149.963 19.3135C149.964 23.3253 149.228 24.9088 148.304 24.9088ZM105.038 15.5778C104.354 14.0192 102.865 12.9929 100.584 12.9929C96.9917 12.9929 95.0285 15.7387 95.0285 19.7223C95.0285 20.9086 95.2497 21.9665 95.6394 22.8801C95.0836 23.5036 94.5026 24.0541 94.0562 24.0541C93.4169 24.0541 92.537 23.4289 91.6805 22.1605C93.583 18.6694 95.0155 13.3585 95.0155 7.66125C95.0155 3.25153 93.4331 0.182391 90.3598 0.182391C87.6487 0.182391 85.7292 3.60056 85.7292 10.6823C85.7292 11.6241 85.7778 12.5327 85.8637 13.4124C84.8841 13.0584 83.7919 12.9572 83.36 12.9572C81.9121 12.9572 80.614 15.7039 80.5776 18.7349C80.5314 22.4673 82.2726 26.6341 86.3968 26.6341C87.6349 26.6341 88.8778 25.9012 90.0114 24.6054C91.0963 25.8755 92.2266 26.5735 93.1746 26.5735C94.4362 26.5735 95.6176 25.1965 96.3411 24.137C97.5322 25.7926 99.4185 26.7153 101.524 26.7153C104.645 26.7153 106.78 24.6443 106.78 22.6969C106.78 22.0552 106.63 21.3323 106.305 21.1872C105.588 20.8655 103.979 21.1574 102.94 21.969C103.079 23.6826 102.038 24.9983 101.021 24.9983C99.9476 24.9983 99.1162 24.0731 98.878 21.3323C101.313 20.6583 106.845 19.1212 106.938 19.0118C107.304 18.5823 107.395 17.6695 107.364 17.0419C106.025 17.0486 105.544 16.7344 105.038 15.5778ZM86.977 24.9188C85.6247 24.9188 84.3996 22.3711 84.3996 19.1345C84.3996 17.1423 84.9505 15.7445 86.0039 14.263C86.4706 17.5269 87.6082 20.9451 88.7822 22.8851C88.1899 24.2182 87.5555 24.9188 86.977 24.9188V24.9188ZM90.0381 18.6362C89.334 16.1706 88.9969 13.4953 88.9969 9.8574C88.9969 2.46477 89.6103 1.64815 90.1605 1.64815C90.8062 1.64815 91.0963 2.89338 91.0963 7.49958C91.0963 11.9922 90.6094 15.8183 90.0381 18.6362V18.6362ZM98.8075 19.549C98.8075 15.9393 99.8357 14.685 100.807 14.685C101.647 14.685 102.287 15.8912 102.241 18.1761C101.114 18.677 99.9683 19.1349 98.8075 19.549" fill="#CC0228"/>
</svg>
