<?xml version="1.0" encoding="utf-8"?>
<!-- Generator: Adobe Illustrator 24.3.0, SVG Export Plug-In . SVG Version: 6.00 Build 0)  -->
<svg version="1.1" id="Vrstva_1" xmlns="http://www.w3.org/2000/svg" xmlns:xlink="http://www.w3.org/1999/xlink" x="0px" y="0px"
	 viewBox="0 0 16 16" style="enable-background:new 0 0 16 16;" xml:space="preserve">
<style type="text/css">
	.st0{fill-rule:evenodd;clip-rule:evenodd;fill:#FFFFFF;}
</style>
<g>
	<path class="st0" d="M2.3,4.4c0-1,0.8-1.8,1.8-1.8s1.8,0.8,1.8,1.8S5.1,6.2,4.1,6.2S2.3,5.4,2.3,4.4z M10.1,4.4
		c0-1,0.8-1.8,1.8-1.8c1,0,1.8,0.8,1.8,1.8s-0.8,1.8-1.8,1.8C10.9,6.2,10.1,5.4,10.1,4.4z M2.3,11.6c0-1,0.8-1.8,1.8-1.8
		s1.8,0.8,1.8,1.8c0,1-0.8,1.8-1.8,1.8S2.3,12.6,2.3,11.6z M10.1,11.6c0-1,0.8-1.8,1.8-1.8c1,0,1.8,0.8,1.8,1.8c0,1-0.8,1.8-1.8,1.8
		C10.9,13.4,10.1,12.6,10.1,11.6z"/>
</g>
</svg>
