<svg width="24" height="24" viewBox="0 0 24 24" fill="none" xmlns="http://www.w3.org/2000/svg">
<path fill-rule="evenodd" clip-rule="evenodd" d="M23 12C23 18.0751 18.0751 23 12 23C5.92487 23 1 18.0751 1 12C1 5.92487 5.92487 1 12 1C18.0751 1 23 5.92487 23 12ZM11.4971 15.1508C11.9102 15.4373 12.2627 15.6818 12.8871 15.7301C15.9555 15.9669 17.6693 12.6676 17.251 9.62103C16.8792 6.92172 14.1858 5.54677 11.3161 5.86796C9.047 6.12209 6.78476 7.95843 6.69044 10.5811C6.63201 12.1833 7.08653 13.3851 8.61031 13.7226C9.04388 12.9573 8.81714 12.5835 8.57132 12.1783C8.44237 11.9658 8.30817 11.7446 8.26128 11.4536C7.70185 7.99509 12.2512 5.63403 14.6321 8.05C16.28 9.72339 15.1953 14.8681 12.5381 14.3339C11.2119 14.0674 11.6061 12.8276 12.0004 11.5875C12.3629 10.4477 12.7254 9.30762 11.7522 8.92277C10.1012 8.26922 9.22426 10.9215 10.007 12.2392C9.88608 12.836 9.72838 13.4238 9.56902 14.0178C9.12331 15.679 8.66455 17.389 8.95993 19.4828C10.2574 18.541 10.6955 16.7382 11.0539 14.8575C11.2164 14.9561 11.3601 15.0558 11.4971 15.1508Z" fill="#CC0228"/>
</svg>
