<svg width="24" height="24" viewBox="0 0 24 24" fill="none" xmlns="http://www.w3.org/2000/svg">
<path d="M16.0702 1H7.39444C3.86853 1 1 3.86853 1 7.39444V16.0702C1 19.5961 3.86853 22.4647 7.39444 22.4647H16.0702C19.5961 22.4647 22.4647 19.5961 22.4647 16.0702V7.39444C22.4646 3.86853 19.5961 1 16.0702 1ZM20.3053 16.0702C20.3053 18.4092 18.4092 20.3053 16.0702 20.3053H7.39444C5.05548 20.3053 3.15934 18.4092 3.15934 16.0702V7.39444C3.15934 5.05544 5.05548 3.15934 7.39444 3.15934H16.0702C18.4092 3.15934 20.3053 5.05544 20.3053 7.39444V16.0702Z" fill="#CC0228"/>
<path d="M11.7337 6.18195C8.67254 6.18195 6.18213 8.67235 6.18213 11.7334C6.18213 14.7945 8.67254 17.285 11.7337 17.285C14.7948 17.285 17.2852 14.7945 17.2852 11.7334C17.2852 8.67232 14.7948 6.18195 11.7337 6.18195ZM11.7337 15.1257C9.86019 15.1257 8.34147 13.6069 8.34147 11.7335C8.34147 9.86001 9.86023 8.34129 11.7337 8.34129C13.6071 8.34129 15.1258 9.86001 15.1258 11.7335C15.1258 13.6069 13.6071 15.1257 11.7337 15.1257Z" fill="#CC0228"/>
<path d="M17.2941 7.5542C18.0288 7.5542 18.6244 6.95862 18.6244 6.22394C18.6244 5.48925 18.0288 4.89368 17.2941 4.89368C16.5594 4.89368 15.9639 5.48925 15.9639 6.22394C15.9639 6.95862 16.5594 7.5542 17.2941 7.5542Z" fill="#CC0228"/>
</svg>
