<?xml version="1.0" encoding="utf-8"?>
<!-- Generator: Adobe Illustrator 24.3.0, SVG Export Plug-In . SVG Version: 6.00 Build 0)  -->
<svg version="1.1" id="Vrstva_1" xmlns="http://www.w3.org/2000/svg" xmlns:xlink="http://www.w3.org/1999/xlink" x="0px" y="0px"
	 viewBox="0 0 16 16" style="enable-background:new 0 0 16 16;" xml:space="preserve">
<style type="text/css">
	.st0{fill-rule:evenodd;clip-rule:evenodd;fill:#FFFFFF;}
</style>
<path class="st0" d="M5.9,1.1c-1.5,0-2.7,1.2-2.7,2.7c0,1.5,1.2,2.7,2.7,2.7c1.5,0,2.7-1.2,2.7-2.7C8.5,2.3,7.3,1.1,5.9,1.1z
	 M2.1,3.7C2.1,1.7,3.8,0,5.9,0s3.7,1.7,3.7,3.7c0,2.1-1.7,3.7-3.7,3.7S2.1,5.8,2.1,3.7z M9.6,6.9c0-1.5,1.2-2.7,2.7-2.7
	c1.5,0,2.7,1.2,2.7,2.7s-1.2,2.7-2.7,2.7C10.8,9.6,9.6,8.4,9.6,6.9z M12.3,5.3c-0.9,0-1.6,0.7-1.6,1.6c0,0.9,0.7,1.6,1.6,1.6
	c0.9,0,1.6-0.7,1.6-1.6C13.9,6,13.2,5.3,12.3,5.3z M3.7,10.7c-1.5,0-2.7,1.2-2.7,2.7v1.6h9.6v-1.6c0-1.5-1.2-2.7-2.7-2.7H3.7z
	 M0,13.3c0-2.1,1.7-3.7,3.7-3.7H8c2.1,0,3.7,1.7,3.7,3.7V16H0V13.3z M14.9,13.9c0-1.2-1-2.1-2.1-2.1v-1.1c1.8,0,3.2,1.4,3.2,3.2V16
	h-3.2v-1.1h2.1V13.9z"/>
</svg>
