<?xml version="1.0" encoding="utf-8"?>
<!-- Generator: Adobe Illustrator 24.3.0, SVG Export Plug-In . SVG Version: 6.00 Build 0)  -->
<svg version="1.1" id="Vrstva_1" xmlns="http://www.w3.org/2000/svg" xmlns:xlink="http://www.w3.org/1999/xlink" x="0px" y="0px"
	 viewBox="0 0 16 16" style="enable-background:new 0 0 16 16;" xml:space="preserve">
<style type="text/css">
	.st0{fill-rule:evenodd;clip-rule:evenodd;fill:#FFFFFF;}
</style>
<path class="st0" d="M9.9,0.5C6.6,0.5,4,3.2,4,6.4c0,0,0,0.1,0,0.1c-2.1,0.4-3.7,2.2-3.7,4.5c0,2.5,2,4.5,4.5,4.5
	c2.1,0,3.8-1.4,4.3-3.3c0.2,0,0.5,0.1,0.7,0.1c3.2,0,5.9-2.6,5.9-5.9C15.7,3.2,13.1,0.5,9.9,0.5z M4.8,14.4c-1.9,0-3.5-1.6-3.5-3.5
	c0-1.7,1.2-3.1,2.8-3.4c0.4,2.1,2,3.8,4,4.5C7.6,13.4,6.3,14.4,4.8,14.4z M5.2,7.5c1.7,0.2,3,1.6,3.1,3.4C6.7,10.4,5.6,9.1,5.2,7.5z
	 M9.9,11.2c-0.2,0-0.4,0-0.6-0.1c0-0.1,0-0.1,0-0.2c0-2.4-1.9-4.4-4.3-4.5c0,0,0,0,0,0c0-2.7,2.1-4.8,4.8-4.8c2.7,0,4.8,2.1,4.8,4.8
	C14.7,9.1,12.5,11.2,9.9,11.2z"/>
</svg>
