<?xml version="1.0" encoding="utf-8"?>
<!-- Generator: Adobe Illustrator 24.3.0, SVG Export Plug-In . SVG Version: 6.00 Build 0)  -->
<svg version="1.1" id="Vrstva_1" xmlns="http://www.w3.org/2000/svg" xmlns:xlink="http://www.w3.org/1999/xlink" x="0px" y="0px"
	 viewBox="0 0 56 56" style="enable-background:new 0 0 56 56;" xml:space="preserve">
<style type="text/css">
	.st0{fill:#CC0228;}
</style>
<g>
	<path class="st0" d="M27.5,54c-8.8,0-15.2-6.7-15.2-15.9c0-7.2,3.9-13,7.6-18.7C23.6,13.9,27,8.6,27,2.3c0-0.3,0.2-0.5,0.5-0.5
		S28,2.1,28,2.3c0,6.3,3.5,11.6,7.1,17.1c3.7,5.7,7.6,11.5,7.6,18.7C42.8,47.3,36.4,54,27.5,54z M27.5,6.6c-1.1,4.8-4,9.2-6.8,13.4
		c-3.6,5.5-7.4,11.3-7.4,18.1c0,8.8,5.8,14.9,14.2,14.9s14.2-6.1,14.2-14.9c0-6.9-3.8-12.6-7.4-18.1C31.5,15.8,28.7,11.4,27.5,6.6z"
		/>
</g>
<g>
	<path class="st0" d="M30.5,45.5h-5.8c-0.3,0-0.5-0.2-0.5-0.5v-5.1H19c-0.3,0-0.5-0.2-0.5-0.5v-5.8c0-0.3,0.2-0.5,0.5-0.5h5.1v-5.1
		c0-0.3,0.2-0.5,0.5-0.5h5.8c0.3,0,0.5,0.2,0.5,0.5v5.1h5.1c0.3,0,0.5,0.2,0.5,0.5v5.8c0,0.3-0.2,0.5-0.5,0.5H31V45
		C31,45.3,30.7,45.5,30.5,45.5z M25.1,44.5H30v-5.1c0-0.3,0.2-0.5,0.5-0.5h5.1v-4.8h-5.1c-0.3,0-0.5-0.2-0.5-0.5v-5.1h-4.8v5.1
		c0,0.3-0.2,0.5-0.5,0.5h-5.1v4.8h5.1c0.3,0,0.5,0.2,0.5,0.5V44.5z"/>
</g>
</svg>
