<?xml version="1.0" encoding="utf-8"?>
<!-- Generator: Adobe Illustrator 24.3.0, SVG Export Plug-In . SVG Version: 6.00 Build 0)  -->
<svg version="1.1" id="Vrstva_1" xmlns="http://www.w3.org/2000/svg" xmlns:xlink="http://www.w3.org/1999/xlink" x="0px" y="0px"
	 viewBox="0 0 32 32" style="enable-background:new 0 0 32 32;" xml:space="preserve">
<style type="text/css">
	.st0{fill:#CC0228;}
</style>
<g>
	<path class="st0" d="M23.1,26.5c-3.7,0-6.4-3.1-6.4-7.3c0-6.8,4.2-12.1,5.1-13.1c0.4-0.4,0.8-0.6,1.3-0.6h1c0.4,0,0.8,0.2,1,0.5
		c0.2,0.3,0.2,0.7,0,1.1c-0.9,2.1-1.5,4.3-1.5,6.3c3.3,0.3,5.8,3,5.8,6.6C29.5,23.6,26.7,26.5,23.1,26.5z M23.1,6.5
		c-0.2,0-0.3,0-0.5,0.3c-0.8,0.9-4.8,6-4.8,12.4c0,3.7,2.3,6.3,5.4,6.3c3,0,5.4-2.4,5.4-5.5c0-3.1-2.4-5.6-5.4-5.6h-0.5v-0.5
		c0-2.3,0.6-4.8,1.6-7.2c0.1-0.1,0.1-0.2,0-0.2c0,0-0.1,0-0.2,0H23.1z M8.9,26.5c-3.7,0-6.4-3.1-6.4-7.3c0-6.8,4.2-12.1,5.1-13.1
		C8,5.7,8.4,5.5,8.9,5.5h1c0.4,0,0.8,0.2,1,0.5c0.2,0.3,0.2,0.7,0,1.1c-0.9,2.1-1.5,4.3-1.5,6.3c3.3,0.3,5.8,3,5.8,6.6
		C15.2,23.6,12.4,26.5,8.9,26.5z M8.9,6.5c-0.2,0-0.3,0-0.5,0.3c-0.8,0.9-4.8,6-4.8,12.4c0,3.7,2.3,6.3,5.4,6.3c3,0,5.4-2.4,5.4-5.5
		c0-3.1-2.4-5.6-5.4-5.6H8.4v-0.5c0-2.3,0.6-4.8,1.6-7.2c0.1-0.1,0.1-0.2,0-0.2c0,0-0.1,0-0.2,0H8.9z"/>
</g>
</svg>
