<svg width="20" height="20" viewBox="0 0 20 20" fill="none" xmlns="http://www.w3.org/2000/svg">
<g opacity="0.7">
<path d="M10.0001 9.99984H9.50008C9.50008 10.1324 9.55276 10.2596 9.64653 10.3534L10.0001 9.99984ZM10.0001 18.8332C5.12157 18.8332 1.16675 14.8784 1.16675 9.99984H0.166748C0.166748 15.4306 4.56928 19.8332 10.0001 19.8332V18.8332ZM18.8334 9.99984C18.8334 14.8784 14.8786 18.8332 10.0001 18.8332V19.8332C15.4309 19.8332 19.8334 15.4306 19.8334 9.99984H18.8334ZM10.0001 1.1665C14.8786 1.1665 18.8334 5.12132 18.8334 9.99984H19.8334C19.8334 4.56904 15.4309 0.166504 10.0001 0.166504V1.1665ZM10.0001 0.166504C4.56928 0.166504 0.166748 4.56904 0.166748 9.99984H1.16675C1.16675 5.12132 5.12157 1.1665 10.0001 1.1665V0.166504ZM9.50008 3.99984V9.99984H10.5001V3.99984H9.50008ZM9.64653 10.3534L13.6465 14.3534L14.3536 13.6463L10.3536 9.64628L9.64653 10.3534Z" fill="#333333"/>
</g>
</svg>
