<svg width="48" height="48" viewBox="0 0 48 48" fill="none" xmlns="http://www.w3.org/2000/svg">
<path opacity="0.5" d="M3.86908 18.504H44.1891C45.0851 18.504 45.8531 17.736 45.8531 16.84V14.664C45.8531 13.768 45.0851 13 44.1891 13H3.86908C2.46108 13 2.20508 13.768 2.20508 14.664V16.84C2.20508 17.736 2.46108 18.504 3.86908 18.504ZM3.86908 35.128H44.1891C45.0851 35.128 45.8531 34.36 45.8531 33.464V31.288C45.8531 30.392 45.0851 29.624 44.1891 29.624H3.86908C2.46108 29.624 2.20508 30.392 2.20508 31.288V33.464C2.20508 34.36 2.46108 35.128 3.86908 35.128Z" fill="#333333"/>
</svg>
