<?xml version="1.0" encoding="utf-8"?>
<!-- Generator: Adobe Illustrator 24.3.0, SVG Export Plug-In . SVG Version: 6.00 Build 0)  -->
<svg version="1.1" id="Vrstva_1" xmlns="http://www.w3.org/2000/svg" xmlns:xlink="http://www.w3.org/1999/xlink" x="0px" y="0px"
	 viewBox="0 0 16 16" style="enable-background:new 0 0 16 16;" xml:space="preserve">
<style type="text/css">
	.st0{fill:#FFFFFF;}
</style>
<g>
	<path class="st0" d="M8.5,16h-1v-2.1h1V16z M8.5,12.8h-1v-1.3c0-1.7,0.9-3.2,2.4-3.9c1.1-0.6,1.9-1.8,1.9-3c0-1.9-1.5-3.5-3.5-3.5
		H8.1C6.8,1,5.6,1.5,4.6,2.5L4.1,3L3.4,2.3l0.6-0.6C5,0.6,6.5,0,8.1,0h0.2c2.5,0,4.5,2,4.5,4.5c0,1.6-0.9,3.2-2.4,3.9
		c-1.1,0.6-1.9,1.7-1.9,3V12.8z"/>
</g>
</svg>
