<?xml version="1.0" encoding="utf-8"?>
<!-- Generator: Adobe Illustrator 24.3.0, SVG Export Plug-In . SVG Version: 6.00 Build 0)  -->
<svg version="1.1" id="Vrstva_1" xmlns="http://www.w3.org/2000/svg" xmlns:xlink="http://www.w3.org/1999/xlink" x="0px" y="0px"
	 viewBox="0 0 40 40" style="enable-background:new 0 0 40 40;" xml:space="preserve">
<style type="text/css">
	.st0{fill:#CC0228;}
</style>
<path class="st0" d="M37.6,12.8c-0.8-2.1-2.2-3.7-4-4.6c-1.8-0.9-4-0.9-6-0.2c-2.1,0.8-3.6,1.8-5.1,2.9c-0.8,0.6-1.7,1.2-2.6,1.7
	c-0.2-0.1-0.3-0.3-0.5-0.4c-1.3-0.9-2.2-1.6-1.3-4.9C18.1,7,18,6.7,17.7,6.7c-0.3-0.1-0.5,0.1-0.6,0.4c-1.1,4,0.3,5,1.7,6
	c0,0,0.1,0,0.1,0.1c-0.2,0.1-0.5,0.2-0.7,0.3c-1.7,0.6-3.2,0.7-4.9,0.9c-1.8,0.1-3.6,0.3-5.7,1.1c-4.3,1.6-6.2,5.8-4.6,10.1
	c0.8,2.1,2.2,3.7,4,4.6c1,0.5,2,0.7,3.1,0.7c1,0,1.9-0.2,2.9-0.5c2.3-0.8,4-2,5.6-3.1c0.1-0.1,0.3-0.2,0.4-0.3v5c0,2.4,1.1,4,2.8,4
	c1.7,0,2.8-1.6,2.8-4v-7.5c0.9-0.2,1.8-0.3,2.7-0.3c1.7-0.2,3.5-0.3,5.7-1.1C37.2,21.3,39.1,17.1,37.6,12.8z M18,26.2
	c-1.6,1.1-3.2,2.2-5.4,3c-1.8,0.7-3.7,0.6-5.3-0.1c-1.6-0.7-2.8-2.1-3.5-4c-1.4-3.8,0.3-7.4,4-8.8c2-0.7,3.8-0.9,5.5-1
	c1.6-0.1,3.3-0.3,5.1-0.9c0.4-0.2,0.9-0.3,1.2-0.5c0.3,0.3,0.5,0.6,0.8,1c-0.6,0.3-1.1,0.6-1.6,0.7c-1,0.4-2.5,0.7-4.2,1.1
	c-1.7,0.4-3.5,0.8-4.8,1.2c-2.7,1-3.9,3.6-2.9,6.3c0.5,1.3,1.3,2.3,2.5,2.9c0.6,0.3,1.3,0.4,2,0.4c0.6,0,1.2-0.1,1.8-0.3
	c1.4-0.5,4.1-1.8,5.6-2.6v1.2C18.7,25.8,18.3,26,18,26.2z M24.5,18.2L24.5,18.2c0-0.8-1.1-1.3-2.3-1.4c-0.1-0.6-0.2-1.2-0.4-1.7
	c0.5-0.3,1-0.5,1.5-0.8c1.6-0.9,3.2-1.8,4.4-2.2c1-0.4,2.1-0.4,3,0.1c0.9,0.4,1.6,1.2,2,2.3c0.8,2.2-0.2,4.2-2.3,5
	c-1.7,0.6-4.2,1.2-5.9,1.5V18.2z M21.2,18.1c0,0.3,0.2,0.5,0.5,0.5c-0.9,0-1.4-0.2-1.7-0.3c0.2-0.1,0.6-0.2,1.2-0.3
	C21.2,18,21.2,18,21.2,18.1z M22.2,18.1c0,0,0-0.1,0-0.1c0.6,0.1,1,0.2,1.2,0.3c-0.2,0.1-0.8,0.3-1.7,0.3
	C22,18.5,22.3,18.3,22.2,18.1z M21.2,16.9C20,17,19,17.4,19,18.2h0v5c-1.3,0.8-4.4,2.3-6,2.8c-1,0.4-2.1,0.4-3-0.1
	c-0.9-0.4-1.6-1.2-2-2.3c-0.8-2.2,0.2-4.2,2.3-5c1.2-0.4,3-0.8,4.6-1.2c1.7-0.4,3.2-0.7,4.3-1.1c0.5-0.2,1-0.4,1.6-0.7
	C21,16.1,21.1,16.4,21.2,16.9z M21.7,34.8c-1.3,0-1.8-1.6-1.8-3V19.3c0.5,0.2,1.1,0.3,1.8,0.3c0.6,0,1.3-0.1,1.8-0.3v12.5
	C23.5,33.2,23.1,34.8,21.7,34.8z M32.6,22c-2,0.7-3.8,0.9-5.4,1.1c-0.8,0.1-1.7,0.2-2.6,0.3v-1.3l0.1,0c1.7-0.4,4.3-0.9,6.2-1.6
	c2.7-1,3.9-3.6,2.9-6.3c-0.5-1.3-1.3-2.3-2.5-2.9c-1.1-0.5-2.5-0.6-3.8-0.1c-1.3,0.5-2.9,1.4-4.5,2.3c-0.5,0.3-1,0.5-1.4,0.8
	c-0.2-0.4-0.5-0.7-0.7-1c0.8-0.5,1.6-1,2.4-1.6c1.4-1,2.8-2,4.9-2.7c1.8-0.7,3.7-0.6,5.3,0.1c1.6,0.7,2.8,2.1,3.5,4
	C38,17,36.4,20.6,32.6,22z"/>
</svg>
