<svg width="18" height="16" viewBox="0 0 18 16" fill="none" xmlns="http://www.w3.org/2000/svg">
<path d="M4.50005 2.99999C4.50005 3.74558 3.89563 4.34999 3.15005 4.34999C2.40446 4.34999 1.80005 3.74558 1.80005 2.99999C1.80005 2.25441 2.40446 1.64999 3.15005 1.64999C3.89563 1.64999 4.50005 2.25441 4.50005 2.99999Z" fill="none"/>
<path d="M16.2 2.99999C16.2 3.74558 15.5956 4.34999 14.85 4.34999C14.1045 4.34999 13.5 3.74558 13.5 2.99999C13.5 2.25441 14.1045 1.64999 14.85 1.64999C15.5956 1.64999 16.2 2.25441 16.2 2.99999Z" fill="none"/>
<path d="M4.50005 13.8C4.50005 14.5456 3.89563 15.15 3.15005 15.15C2.40446 15.15 1.80005 14.5456 1.80005 13.8C1.80005 13.0544 2.40446 12.45 3.15005 12.45C3.89563 12.45 4.50005 13.0544 4.50005 13.8Z" fill="none"/>
<path d="M16.2 13.8C16.2 14.5456 15.5956 15.15 14.85 15.15C14.1045 15.15 13.5 14.5456 13.5 13.8C13.5 13.0544 14.1045 12.45 14.85 12.45C15.5956 12.45 16.2 13.0544 16.2 13.8Z" fill="none"/>
<path d="M4.50005 2.99999C4.50005 3.74558 3.89563 4.34999 3.15005 4.34999C2.40446 4.34999 1.80005 3.74558 1.80005 2.99999C1.80005 2.25441 2.40446 1.64999 3.15005 1.64999C3.89563 1.64999 4.50005 2.25441 4.50005 2.99999Z" stroke="inherit" stroke-width="1.6875"/>
<path d="M16.2 2.99999C16.2 3.74558 15.5956 4.34999 14.85 4.34999C14.1045 4.34999 13.5 3.74558 13.5 2.99999C13.5 2.25441 14.1045 1.64999 14.85 1.64999C15.5956 1.64999 16.2 2.25441 16.2 2.99999Z" stroke="inherit" stroke-width="1.6875"/>
<path d="M4.50005 13.8C4.50005 14.5456 3.89563 15.15 3.15005 15.15C2.40446 15.15 1.80005 14.5456 1.80005 13.8C1.80005 13.0544 2.40446 12.45 3.15005 12.45C3.89563 12.45 4.50005 13.0544 4.50005 13.8Z" stroke="inherit" stroke-width="1.6875"/>
<path d="M16.2 13.8C16.2 14.5456 15.5956 15.15 14.85 15.15C14.1045 15.15 13.5 14.5456 13.5 13.8C13.5 13.0544 14.1045 12.45 14.85 12.45C15.5956 12.45 16.2 13.0544 16.2 13.8Z" stroke="inherit" stroke-width="1.6875"/>
</svg>
