<?xml version="1.0" encoding="utf-8"?>
<!-- Generator: Adobe Illustrator 24.3.0, SVG Export Plug-In . SVG Version: 6.00 Build 0)  -->
<svg version="1.1" id="Vrstva_1" xmlns="http://www.w3.org/2000/svg" xmlns:xlink="http://www.w3.org/1999/xlink" x="0px" y="0px"
	 viewBox="0 0 56 56" style="enable-background:new 0 0 56 56;" xml:space="preserve">
<g>
	<g>
		<path d="M39.2,48.7c-1.9,0-3.4-1.5-3.4-3.4c0-0.7,0.2-1.5,0.7-2.1c0.1-0.1,0.2-0.2,0.3-0.3c0.4-0.4,0.5-0.6,0.5-1.1
			c0-0.5-0.5-0.8-1.5-1.5c-1-0.7-2.4-1.6-3.8-3.3c-3.5-4.3-5.4-12.6-5.4-24.8c-1.1-0.2-2-1.1-2-2.2c0-1.2,1-2.2,2.4-2.3
			c3.5-0.2,8.1-0.3,12.2-0.3c4.1,0,8.6,0.1,12.2,0.3c1.4,0.1,2.4,1,2.4,2.3c0,1.1-0.8,2-2,2.2c0,12.1-1.9,20.4-5.4,24.8
			c-1.4,1.7-2.8,2.6-3.8,3.3c-1,0.6-1.5,1-1.5,1.5c0,0.5,0.2,0.7,0.5,1.1c0.1,0.1,0.2,0.2,0.3,0.3c0.5,0.6,0.7,1.3,0.7,2.1
			C42.6,47.2,41.1,48.7,39.2,48.7z M39.2,8.5c-4.1,0-8.6,0.1-12.1,0.3c-0.8,0-1.4,0.6-1.4,1.3c0,0.7,0.7,1.3,1.5,1.3
			c0.3,0,0.5,0.2,0.5,0.5c0,15.1,2.8,21.7,5.2,24.6c1.3,1.6,2.6,2.4,3.6,3.1c1.1,0.7,1.9,1.3,1.9,2.3c0,0.8-0.4,1.3-0.8,1.8
			c-0.1,0.1-0.2,0.2-0.3,0.3c-0.3,0.4-0.5,0.9-0.5,1.4c0,1.3,1.1,2.4,2.4,2.4s2.4-1.1,2.4-2.4c0-0.5-0.2-1-0.5-1.5
			c-0.1-0.1-0.2-0.2-0.2-0.3c-0.4-0.5-0.8-0.9-0.8-1.8c0-1,0.9-1.6,1.9-2.3c1-0.7,2.3-1.5,3.6-3.1c2.4-2.9,5.2-9.5,5.2-24.6
			c0-0.3,0.2-0.5,0.5-0.5c0.8,0,1.5-0.6,1.5-1.3c0-0.7-0.6-1.3-1.4-1.3C47.8,8.6,43.3,8.5,39.2,8.5z"/>
	</g>
	<g>
		<path d="M12.9,42.9c-1.4,0-2.6-1.1-2.6-2.6c0-0.6,0.2-1.1,0.5-1.5l0.2-0.2c0.3-0.3,0.3-0.4,0.3-0.7c0-0.3-0.3-0.5-1-0.9
			c-0.7-0.5-1.7-1.1-2.7-2.4c-2.5-3.1-3.8-8.9-3.9-17.4c-0.8-0.2-1.4-0.9-1.4-1.7c0-1,0.8-1.7,1.8-1.8c2.5-0.1,5.7-0.2,8.6-0.2
			s6.1,0.1,8.6,0.2c1,0,1.8,0.8,1.8,1.8c0,0.8-0.6,1.5-1.4,1.7c0,8.5-1.3,14.4-3.9,17.4c-1,1.2-2,1.9-2.7,2.4c-0.6,0.4-1,0.7-1,0.9
			c0,0.3,0.1,0.4,0.4,0.7l0.2,0.2c0.3,0.5,0.5,1,0.5,1.6C15.5,41.8,14.3,42.9,12.9,42.9z M12.9,14.5c-2.9,0-6.1,0.1-8.5,0.2
			c-0.5,0-0.9,0.3-0.9,0.8c0,0.4,0.4,0.8,0.9,0.8c0.3,0,0.5,0.2,0.5,0.5c0,10.6,2,15.2,3.6,17.2c0.9,1.1,1.8,1.7,2.5,2.2
			c0.8,0.5,1.4,0.9,1.4,1.8c0,0.6-0.3,1-0.6,1.3l-0.2,0.2c-0.2,0.3-0.3,0.6-0.3,0.9c0,0.9,0.7,1.6,1.6,1.6s1.6-0.7,1.6-1.6
			c0-0.3-0.1-0.7-0.3-0.9L14,39.2c-0.3-0.4-0.6-0.7-0.6-1.3c0-0.8,0.7-1.2,1.4-1.8c0.7-0.5,1.6-1.1,2.5-2.2C19,32,21,27.3,21,16.7
			c0-0.3,0.2-0.5,0.5-0.5c0.5,0,0.9-0.3,0.9-0.8c0-0.4-0.4-0.7-0.9-0.8C19,14.6,15.8,14.5,12.9,14.5z"/>
	</g>
</g>
</svg>
