<?xml version="1.0" encoding="utf-8"?>
<!-- Generator: Adobe Illustrator 24.3.0, SVG Export Plug-In . SVG Version: 6.00 Build 0)  -->
<svg version="1.1" id="Vrstva_1" xmlns="http://www.w3.org/2000/svg" xmlns:xlink="http://www.w3.org/1999/xlink" x="0px" y="0px"
	 viewBox="0 0 56 56" style="enable-background:new 0 0 56 56;" xml:space="preserve">
<style type="text/css">
	.st0{fill:#CC0228;}
</style>
<path class="st0" d="M48.4,34.3c0-3.4-1.4-7-4.1-10.8c-0.2-0.2-0.5-0.3-0.7-0.1c-0.2,0.2-0.3,0.5-0.1,0.7c2.3,3.2,3.6,6.3,3.9,9.1
	c-1.5-1.4-3.1-1.5-4.3-1.2c-5,1.1-10.1,9.1-11.1,17.3c0,0,0,0,0,0c0,0,0,0,0,0.1c0,0,0,0.1,0,0.1c0,0,0,0,0,0c0,0,0,0,0,0
	c0,0.1,0.1,0.2,0.2,0.2c0,0,0,0,0,0c0.1,0,0.1,0.1,0.2,0.1c1.8,0.4,3.7,0.7,5.6,0.7c6.4,0,12.8-2.6,14.6-8
	C53.7,39.2,52.1,36.1,48.4,34.3z M43.3,33c1.7-0.4,3.1,0.2,4.2,1.8c0,1-0.2,1.9-0.5,2.8c-1.5,4.6-6.3,8.4-13.9,11
	C34.3,40.5,39.3,33.9,43.3,33z M51.6,42.2c-1.6,4.7-8.5,8.5-17.3,7c7.3-2.7,12-6.6,13.6-11.3c0.3-0.8,0.4-1.7,0.5-2.5
	C51.3,36.9,52.5,39.5,51.6,42.2z"/>
<path class="st0" d="M41.3,19.6C41.3,19.6,41.3,19.6,41.3,19.6c0-0.1,0-0.2,0-0.2c0,0,0,0,0-0.1C39,11.6,32.1,4,24.8,5.5
	c-3.5,0.7-5.4,3.6-5.1,7.7c-2.9,1.7-5.4,4.7-7.3,9c-0.1,0.3,0,0.5,0.3,0.7c0.1,0,0.1,0,0.2,0c0.2,0,0.4-0.1,0.5-0.3
	c1.6-3.6,3.6-6.2,5.9-7.9c-0.5,2,0.3,3.4,1.1,4.3c1.9,2.1,5.6,3.1,9.9,3.1c3.5,0,7.2-0.7,10.7-2.2c0,0,0,0,0,0c0,0,0,0,0.1,0
	c0,0,0.1,0,0.1-0.1c0,0,0,0,0,0c0,0,0,0,0,0C41.2,19.8,41.3,19.7,41.3,19.6C41.3,19.7,41.3,19.6,41.3,19.6z M25,6.5
	c0.5-0.1,1-0.1,1.5-0.1c4.7,0,10.5,4.1,13.3,11.6c-6-5-11.7-7.1-16.6-6.1c-0.8,0.2-1.6,0.4-2.4,0.8C20.6,9.3,22.2,7,25,6.5z
	 M21.2,18.3c-1.2-1.3-1.3-2.8-0.5-4.5c0.9-0.4,1.8-0.8,2.7-1c4.8-1,10.5,1.3,16.5,6.5C32.1,22.3,23.9,21.3,21.2,18.3z"/>
<path class="st0" d="M27.1,49.4c-3.9,0.4-7.2,0-9.8-1.2c2-0.6,2.8-2,3.2-3.2c1.5-4.9-2.8-13.3-9.4-18.3c0,0,0,0,0,0c0,0,0,0-0.1,0
	c0,0-0.1,0-0.1-0.1c0,0,0,0,0,0c0,0,0,0-0.1,0c0,0-0.1,0-0.1,0c0,0-0.1,0-0.1,0c0,0-0.1,0-0.1,0c0,0-0.1,0-0.1,0.1c0,0,0,0,0,0
	C4.7,32.7,1.7,42.5,6.6,48c1.3,1.4,2.9,2.2,4.6,2.2c1.5,0,3.1-0.5,4.6-1.6c2.3,1.3,5.1,2,8.5,2c0.9,0,1.9-0.1,2.9-0.2
	c0.3,0,0.5-0.3,0.4-0.5C27.6,49.6,27.4,49.4,27.1,49.4z M19.5,44.8c-0.5,1.6-1.7,2.5-3.6,2.7c-0.8-0.5-1.6-1.1-2.2-1.9
	c-3.3-3.6-4.1-9.7-2.6-17.5C17.5,33.3,20.7,40.9,19.5,44.8z M7.3,47.4C4,43.6,4.2,35.7,9.9,28.9c-1.3,7.7-0.3,13.7,3,17.4
	c0.6,0.6,1.2,1.2,1.9,1.7C12,49.7,9.3,49.6,7.3,47.4z"/>
</svg>
