<svg width="14" height="20" viewBox="0 0 14 20" fill="none" xmlns="http://www.w3.org/2000/svg">
<path fill-rule="evenodd" clip-rule="evenodd" d="M6.99995 0.973297C4.90688 0.973297 2.90393 1.02614 1.56061 1.08707C1.0644 1.10987 0.701782 1.45523 0.701782 1.89008C0.701782 2.33196 1.09466 2.69011 1.57915 2.69011C1.57915 8.81569 2.60459 12.1965 3.95302 13.8389C5.15594 15.3041 6.37548 15.4373 6.37548 16.1188C6.37548 16.4776 6.1997 16.6104 5.96108 16.9086C5.79703 17.1242 5.69625 17.4006 5.69625 17.6963C5.69625 18.4162 6.28003 19 6.99995 19C7.71986 19 8.30364 18.4162 8.30364 17.6963C8.30364 17.4006 8.20286 17.1242 8.03881 16.9086C7.79997 16.6104 7.62441 16.4776 7.62441 16.1188C7.62441 15.4373 8.84395 15.3041 10.0467 13.8389C11.3953 12.1965 12.4205 8.81569 12.4205 2.69011C12.9052 2.69011 13.2981 2.33196 13.2981 1.89008C13.2981 1.45523 12.9355 1.10987 12.4393 1.08707C11.096 1.02614 9.09301 0.973297 6.99995 0.973297Z" stroke="inherit" stroke-linejoin="round"/>
</svg>
