<svg width="24" height="24" viewBox="0 0 24 24" fill="none" xmlns="http://www.w3.org/2000/svg">
<path d="M23.2 0.800003L23.6596 0.996963C23.7402 0.809041 23.6982 0.591019 23.5536 0.44645C23.409 0.30188 23.191 0.259893 23.0031 0.340431L23.2 0.800003ZM0.800049 10.4L0.603089 9.94043C0.430506 10.0144 0.31391 10.1788 0.301196 10.3661C0.288482 10.5535 0.381794 10.7321 0.542801 10.8287L0.800049 10.4ZM13.6 23.2L13.1713 23.4573C13.2679 23.6183 13.4466 23.7116 13.6339 23.6989C13.8212 23.6861 13.9857 23.5695 14.0596 23.397L13.6 23.2ZM23.0031 0.340431L0.603089 9.94043L0.997008 10.8596L23.397 1.25958L23.0031 0.340431ZM0.542801 10.8287L8.5428 15.6287L9.0573 14.7713L1.0573 9.97126L0.542801 10.8287ZM8.3713 15.4573L13.1713 23.4573L14.0288 22.9428L9.2288 14.9428L8.3713 15.4573ZM14.0596 23.397L23.6596 0.996963L22.7405 0.603043L13.1405 23.003L14.0596 23.397ZM22.8465 0.44645L8.4465 14.8464L9.1536 15.5536L23.5536 1.15356L22.8465 0.44645Z" fill="none" stroke="inherit"/>
</svg>
