<?xml version="1.0" encoding="utf-8"?>
<!-- Generator: Adobe Illustrator 24.3.0, SVG Export Plug-In . SVG Version: 6.00 Build 0)  -->
<svg version="1.1" id="Vrstva_1" xmlns="http://www.w3.org/2000/svg" xmlns:xlink="http://www.w3.org/1999/xlink" x="0px" y="0px"
	 viewBox="0 0 56 56" style="enable-background:new 0 0 56 56;" xml:space="preserve">
<style type="text/css">
	.st0{fill:#CC0228;}
</style>
<g>
	<path class="st0" d="M28,48.5c-1.9,0-3.4-1.5-3.4-3.4c0-0.7,0.2-1.5,0.7-2.1c0.1-0.1,0.2-0.2,0.3-0.3c0.4-0.4,0.5-0.6,0.5-1.1
		c0-0.5-0.5-0.8-1.5-1.5c-1-0.7-2.4-1.6-3.8-3.3c-3.5-4.3-5.3-12.6-5.4-24.6c-1.1-0.2-2-1.1-2-2.2c0-1.2,1-2.2,2.4-2.3
		c3.5-0.2,8-0.3,12.1-0.3c4.1,0,8.6,0.1,12.1,0.3c1.4,0.1,2.4,1,2.4,2.3c0,1.1-0.8,2-2,2.2c0,12.1-1.9,20.3-5.4,24.6
		c-1.4,1.7-2.8,2.6-3.8,3.3c-1,0.6-1.5,1-1.5,1.5c0,0.5,0.2,0.7,0.5,1.1c0.1,0.1,0.2,0.2,0.3,0.3c0.5,0.6,0.7,1.3,0.7,2.1
		C31.4,47,29.9,48.5,28,48.5z M28,8.5c-4.1,0-8.6,0.1-12.1,0.3c-0.8,0-1.4,0.6-1.4,1.3c0,0.7,0.7,1.3,1.5,1.3c0.3,0,0.5,0.2,0.5,0.5
		c0,15,2.8,21.6,5.2,24.5c1.3,1.6,2.6,2.4,3.6,3.1c1.1,0.7,1.9,1.3,1.9,2.3c0,0.8-0.4,1.3-0.8,1.8c-0.1,0.1-0.2,0.2-0.3,0.3
		c-0.3,0.4-0.5,0.9-0.5,1.4c0,1.3,1.1,2.4,2.4,2.4s2.4-1.1,2.4-2.4c0-0.5-0.2-1-0.5-1.4c-0.1-0.1-0.2-0.2-0.2-0.3
		c-0.4-0.5-0.8-0.9-0.8-1.8c0-1,0.9-1.6,1.9-2.3c1-0.7,2.3-1.5,3.6-3.1c2.4-2.9,5.2-9.4,5.2-24.5c0-0.3,0.2-0.5,0.5-0.5
		c0.8,0,1.5-0.6,1.5-1.3c0-0.7-0.6-1.2-1.4-1.3C36.6,8.6,32.1,8.5,28,8.5z"/>
</g>
</svg>
