<svg width="24" height="24" viewBox="0 0 24 24" fill="none" xmlns="http://www.w3.org/2000/svg">
<path d="M16.8 23.1854V23.6854H17.3V23.1854H16.8ZM0.800049 23.1854H0.300049V23.6854H0.800049V23.1854ZM23.2 23.2V23.7H23.7V23.2H23.2ZM13.1 5.59687C13.1 7.96989 11.1754 9.89374 8.80005 9.89374V10.8937C11.7271 10.8937 14.1 8.52279 14.1 5.59687H13.1ZM8.80005 9.89374C6.42468 9.89374 4.50005 7.96989 4.50005 5.59687H3.50005C3.50005 8.52279 5.87301 10.8937 8.80005 10.8937V9.89374ZM4.50005 5.59687C4.50005 3.22385 6.42468 1.3 8.80005 1.3V0.299999C5.87301 0.299999 3.50005 2.67095 3.50005 5.59687H4.50005ZM8.80005 1.3C11.1754 1.3 13.1 3.22385 13.1 5.59687H14.1C14.1 2.67095 11.7271 0.299999 8.80005 0.299999V1.3ZM16.8 22.6854H0.800049V23.6854H16.8V22.6854ZM1.30005 23.1854C1.30005 23.1832 1.30005 23.181 1.30005 23.1788C1.30005 23.1765 1.30005 23.1743 1.30005 23.1721C1.30005 23.1699 1.30005 23.1677 1.30005 23.1654C1.30005 23.1632 1.30005 23.161 1.30005 23.1588C1.30005 23.1566 1.30005 23.1544 1.30005 23.1521C1.30005 23.1499 1.30005 23.1477 1.30005 23.1455C1.30005 23.1433 1.30005 23.1411 1.30005 23.1388C1.30005 23.1366 1.30005 23.1344 1.30005 23.1322C1.30005 23.13 1.30005 23.1278 1.30005 23.1256C1.30005 23.1233 1.30005 23.1211 1.30005 23.1189C1.30005 23.1167 1.30005 23.1145 1.30005 23.1123C1.30005 23.11 1.30005 23.1078 1.30005 23.1056C1.30005 23.1034 1.30005 23.1012 1.30005 23.099C1.30005 23.0968 1.30005 23.0946 1.30005 23.0923C1.30005 23.0901 1.30005 23.0879 1.30005 23.0857C1.30005 23.0835 1.30005 23.0813 1.30005 23.0791C1.30005 23.0769 1.30005 23.0746 1.30005 23.0724C1.30005 23.0702 1.30005 23.068 1.30005 23.0658C1.30005 23.0636 1.30005 23.0614 1.30005 23.0592C1.30005 23.057 1.30005 23.0547 1.30005 23.0525C1.30005 23.0503 1.30005 23.0481 1.30005 23.0459C1.30005 23.0437 1.30005 23.0415 1.30005 23.0393C1.30005 23.0371 1.30005 23.0349 1.30005 23.0326C1.30005 23.0304 1.30005 23.0282 1.30005 23.026C1.30005 23.0238 1.30005 23.0216 1.30005 23.0194C1.30005 23.0172 1.30005 23.015 1.30005 23.0128C1.30005 23.0106 1.30005 23.0084 1.30005 23.0061C1.30005 23.0039 1.30005 23.0017 1.30005 22.9995C1.30005 22.9973 1.30005 22.9951 1.30005 22.9929C1.30005 22.9907 1.30005 22.9885 1.30005 22.9863C1.30005 22.9841 1.30005 22.9819 1.30005 22.9797C1.30005 22.9775 1.30005 22.9753 1.30005 22.9731C1.30005 22.9708 1.30005 22.9686 1.30005 22.9664C1.30005 22.9642 1.30005 22.962 1.30005 22.9598C1.30005 22.9576 1.30005 22.9554 1.30005 22.9532C1.30005 22.951 1.30005 22.9488 1.30005 22.9466C1.30005 22.9444 1.30005 22.9422 1.30005 22.94C1.30005 22.9378 1.30005 22.9356 1.30005 22.9334C1.30005 22.9312 1.30005 22.929 1.30005 22.9268C1.30005 22.9246 1.30005 22.9224 1.30005 22.9202C1.30005 22.918 1.30005 22.9158 1.30005 22.9136C1.30005 22.9114 1.30005 22.9092 1.30005 22.907C1.30005 22.9048 1.30005 22.9026 1.30005 22.9004C1.30005 22.8982 1.30005 22.896 1.30005 22.8938C1.30005 22.8916 1.30005 22.8894 1.30005 22.8872C1.30005 22.885 1.30005 22.8828 1.30005 22.8806C1.30005 22.8784 1.30005 22.8762 1.30005 22.874C1.30005 22.8718 1.30005 22.8696 1.30005 22.8674C1.30005 22.8652 1.30005 22.863 1.30005 22.8608C1.30005 22.8586 1.30005 22.8564 1.30005 22.8542C1.30005 22.852 1.30005 22.8498 1.30005 22.8476C1.30005 22.8454 1.30005 22.8432 1.30005 22.841C1.30005 22.8388 1.30005 22.8366 1.30005 22.8344C1.30005 22.8322 1.30005 22.83 1.30005 22.8278C1.30005 22.8257 1.30005 22.8235 1.30005 22.8213C1.30005 22.8191 1.30005 22.8169 1.30005 22.8147C1.30005 22.8125 1.30005 22.8103 1.30005 22.8081C1.30005 22.8059 1.30005 22.8037 1.30005 22.8015C1.30005 22.7993 1.30005 22.7971 1.30005 22.7949C1.30005 22.7927 1.30005 22.7906 1.30005 22.7884C1.30005 22.7862 1.30005 22.784 1.30005 22.7818C1.30005 22.7796 1.30005 22.7774 1.30005 22.7752C1.30005 22.773 1.30005 22.7708 1.30005 22.7686C1.30005 22.7664 1.30005 22.7643 1.30005 22.7621C1.30005 22.7599 1.30005 22.7577 1.30005 22.7555C1.30005 22.7533 1.30005 22.7511 1.30005 22.7489C1.30005 22.7467 1.30005 22.7445 1.30005 22.7424C1.30005 22.7402 1.30005 22.738 1.30005 22.7358C1.30005 22.7336 1.30005 22.7314 1.30005 22.7292C1.30005 22.727 1.30005 22.7248 1.30005 22.7227C1.30005 22.7205 1.30005 22.7183 1.30005 22.7161C1.30005 22.7139 1.30005 22.7117 1.30005 22.7095C1.30005 22.7074 1.30005 22.7052 1.30005 22.703C1.30005 22.7008 1.30005 22.6986 1.30005 22.6964C1.30005 22.6942 1.30005 22.6921 1.30005 22.6899C1.30005 22.6877 1.30005 22.6855 1.30005 22.6833C1.30005 22.6811 1.30005 22.6789 1.30005 22.6768C1.30005 22.6746 1.30005 22.6724 1.30005 22.6702C1.30005 22.668 1.30005 22.6658 1.30005 22.6637C1.30005 22.6615 1.30005 22.6593 1.30005 22.6571C1.30005 22.6549 1.30005 22.6527 1.30005 22.6506C1.30005 22.6484 1.30005 22.6462 1.30005 22.644C1.30005 22.6418 1.30005 22.6396 1.30005 22.6375C1.30005 22.6353 1.30005 22.6331 1.30005 22.6309C1.30005 22.6287 1.30005 22.6266 1.30005 22.6244C1.30005 22.6222 1.30005 22.62 1.30005 22.6178C1.30005 22.6157 1.30005 22.6135 1.30005 22.6113C1.30005 22.6091 1.30005 22.6069 1.30005 22.6048C1.30005 22.6026 1.30005 22.6004 1.30005 22.5982C1.30005 22.596 1.30005 22.5939 1.30005 22.5917C1.30005 22.5895 1.30005 22.5873 1.30005 22.5852C1.30005 22.583 1.30005 22.5808 1.30005 22.5786C1.30005 22.5764 1.30005 22.5743 1.30005 22.5721C1.30005 22.5699 1.30005 22.5677 1.30005 22.5656C1.30005 22.5634 1.30005 22.5612 1.30005 22.559C1.30005 22.5569 1.30005 22.5547 1.30005 22.5525C1.30005 22.5503 1.30005 22.5482 1.30005 22.546C1.30005 22.5438 1.30005 22.5416 1.30005 22.5395C1.30005 22.5373 1.30005 22.5351 1.30005 22.5329C1.30005 22.5308 1.30005 22.5286 1.30005 22.5264C1.30005 22.5242 1.30005 22.5221 1.30005 22.5199C1.30005 22.5177 1.30005 22.5156 1.30005 22.5134C1.30005 22.5112 1.30005 22.509 1.30005 22.5069C1.30005 22.5047 1.30005 22.5025 1.30005 22.5004C1.30005 22.4982 1.30005 22.496 1.30005 22.4938C1.30005 22.4917 1.30005 22.4895 1.30005 22.4873C1.30005 22.4852 1.30005 22.483 1.30005 22.4808C1.30005 22.4786 1.30005 22.4765 1.30005 22.4743C1.30005 22.4721 1.30005 22.47 1.30005 22.4678C1.30005 22.4656 1.30005 22.4635 1.30005 22.4613C1.30005 22.4591 1.30005 22.457 1.30005 22.4548C1.30005 22.4526 1.30005 22.4505 1.30005 22.4483C1.30005 22.4461 1.30005 22.444 1.30005 22.4418C1.30005 22.4396 1.30005 22.4375 1.30005 22.4353C1.30005 22.4331 1.30005 22.431 1.30005 22.4288C1.30005 22.4266 1.30005 22.4245 1.30005 22.4223C1.30005 22.4201 1.30005 22.418 1.30005 22.4158C1.30005 22.4136 1.30005 22.4115 1.30005 22.4093C1.30005 22.4071 1.30005 22.405 1.30005 22.4028C1.30005 22.4006 1.30005 22.3985 1.30005 22.3963C1.30005 22.3942 1.30005 22.392 1.30005 22.3898C1.30005 22.3877 1.30005 22.3855 1.30005 22.3833C1.30005 22.3812 1.30005 22.379 1.30005 22.3769C1.30005 22.3747 1.30005 22.3725 1.30005 22.3704C1.30005 22.3682 1.30005 22.3661 1.30005 22.3639C1.30005 22.3617 1.30005 22.3596 1.30005 22.3574C1.30005 22.3552 1.30005 22.3531 1.30005 22.3509C1.30005 22.3488 1.30005 22.3466 1.30005 22.3445C1.30005 22.3423 1.30005 22.3401 1.30005 22.338C1.30005 22.3358 1.30005 22.3337 1.30005 22.3315C1.30005 22.3293 1.30005 22.3272 1.30005 22.325C1.30005 22.3229 1.30005 22.3207 1.30005 22.3186C1.30005 22.3164 1.30005 22.3142 1.30005 22.3121C1.30005 22.3099 1.30005 22.3078 1.30005 22.3056C1.30005 22.3035 1.30005 22.3013 1.30005 22.2991C1.30005 22.297 1.30005 22.2948 1.30005 22.2927C1.30005 22.2905 1.30005 22.2884 1.30005 22.2862C1.30005 22.2841 1.30005 22.2819 1.30005 22.2798C1.30005 22.2776 1.30005 22.2754 1.30005 22.2733C1.30005 22.2711 1.30005 22.269 1.30005 22.2668C1.30005 22.2647 1.30005 22.2625 1.30005 22.2604C1.30005 22.2582 1.30005 22.2561 1.30005 22.2539C1.30005 22.2518 1.30005 22.2496 1.30005 22.2475C1.30005 22.2453 1.30005 22.2432 1.30005 22.241C1.30005 22.2389 1.30005 22.2367 1.30005 22.2346C1.30005 22.2324 1.30005 22.2303 1.30005 22.2281C1.30005 22.226 1.30005 22.2238 1.30005 22.2217C1.30005 22.2195 1.30005 22.2174 1.30005 22.2152C1.30005 22.2131 1.30005 22.2109 1.30005 22.2088C1.30005 22.2066 1.30005 22.2045 1.30005 22.2023C1.30005 22.2002 1.30005 22.198 1.30005 22.1959C1.30005 22.1937 1.30005 22.1916 1.30005 22.1894C1.30005 22.1873 1.30005 22.1851 1.30005 22.183C1.30005 22.1809 1.30005 22.1787 1.30005 22.1766C1.30005 22.1744 1.30005 22.1723 1.30005 22.1701C1.30005 22.168 1.30005 22.1658 1.30005 22.1637C1.30005 22.1615 1.30005 22.1594 1.30005 22.1573C1.30005 22.1551 1.30005 22.153 1.30005 22.1508C1.30005 22.1487 1.30005 22.1465 1.30005 22.1444C1.30005 22.1423 1.30005 22.1401 1.30005 22.138C1.30005 22.1358 1.30005 22.1337 1.30005 22.1315C1.30005 22.1294 1.30005 22.1273 1.30005 22.1251C1.30005 22.123 1.30005 22.1208 1.30005 22.1187C1.30005 22.1165 1.30005 22.1144 1.30005 22.1123C1.30005 22.1101 1.30005 22.108 1.30005 22.1058C1.30005 22.1037 1.30005 22.1016 1.30005 22.0994C1.30005 22.0973 1.30005 22.0951 1.30005 22.093C1.30005 22.0909 1.30005 22.0887 1.30005 22.0866C1.30005 22.0845 1.30005 22.0823 1.30005 22.0802C1.30005 22.078 1.30005 22.0759 1.30005 22.0738C1.30005 22.0716 1.30005 22.0695 1.30005 22.0674C1.30005 22.0652 1.30005 22.0631 1.30005 22.061C1.30005 22.0588 1.30005 22.0567 1.30005 22.0545C1.30005 22.0524 1.30005 22.0503 1.30005 22.0481C1.30005 22.046 1.30005 22.0439 1.30005 22.0417C1.30005 22.0396 1.30005 22.0375 1.30005 22.0353C1.30005 22.0332 1.30005 22.0311 1.30005 22.0289C1.30005 22.0268 1.30005 22.0247 1.30005 22.0225C1.30005 22.0204 1.30005 22.0183 1.30005 22.0161C1.30005 22.014 1.30005 22.0119 1.30005 22.0097C1.30005 22.0076 1.30005 22.0055 1.30005 22.0033C1.30005 22.0012 1.30005 21.9991 1.30005 21.997C1.30005 21.9948 1.30005 21.9927 1.30005 21.9906C1.30005 21.9884 1.30005 21.9863 1.30005 21.9842C1.30005 21.982 1.30005 21.9799 1.30005 21.9778C1.30005 21.9757 1.30005 21.9735 1.30005 21.9714C1.30005 21.9693 1.30005 21.9671 1.30005 21.965C1.30005 21.9629 1.30005 21.9608 1.30005 21.9586C1.30005 21.9565 1.30005 21.9544 1.30005 21.9522C1.30005 21.9501 1.30005 21.948 1.30005 21.9459C1.30005 21.9437 1.30005 21.9416 1.30005 21.9395C1.30005 21.9374 1.30005 21.9352 1.30005 21.9331C1.30005 21.931 1.30005 21.9289 1.30005 21.9267C1.30005 21.9246 1.30005 21.9225 1.30005 21.9204C1.30005 21.9182 1.30005 21.9161 1.30005 21.914C1.30005 21.9119 1.30005 21.9098 1.30005 21.9076C1.30005 21.9055 1.30005 21.9034 1.30005 21.9013C1.30005 21.8991 1.30005 21.897 1.30005 21.8949C1.30005 21.8928 1.30005 21.8907 1.30005 21.8885C1.30005 21.8864 1.30005 21.8843 1.30005 21.8822C1.30005 21.88 1.30005 21.8779 1.30005 21.8758C1.30005 21.8737 1.30005 21.8716 1.30005 21.8694C1.30005 21.8673 1.30005 21.8652 1.30005 21.8631C1.30005 21.861 1.30005 21.8589 1.30005 21.8567C1.30005 21.8546 1.30005 21.8525 1.30005 21.8504C1.30005 21.8483 1.30005 21.8461 1.30005 21.844C1.30005 21.8419 1.30005 21.8398 1.30005 21.8377C1.30005 21.8356 1.30005 21.8334 1.30005 21.8313C1.30005 21.8292 1.30005 21.8271 1.30005 21.825C1.30005 21.8229 1.30005 21.8207 1.30005 21.8186C1.30005 21.8165 1.30005 21.8144 1.30005 21.8123C1.30005 21.8102 1.30005 21.8081 1.30005 21.8059C1.30005 21.8038 1.30005 21.8017 1.30005 21.7996C1.30005 21.7975 1.30005 21.7954 1.30005 21.7933C1.30005 21.7912 1.30005 21.789 1.30005 21.7869C1.30005 21.7848 1.30005 21.7827 1.30005 21.7806C1.30005 21.7785 1.30005 21.7764 1.30005 21.7743C1.30005 21.7722 1.30005 21.77 1.30005 21.7679C1.30005 21.7658 1.30005 21.7637 1.30005 21.7616C1.30005 21.7595 1.30005 21.7574 1.30005 21.7553C1.30005 21.7532 1.30005 21.7511 1.30005 21.7489C1.30005 21.7468 1.30005 21.7447 1.30005 21.7426C1.30005 21.7405 1.30005 21.7384 1.30005 21.7363C1.30005 21.7342 1.30005 21.7321 1.30005 21.73C1.30005 21.7279 1.30005 21.7258 1.30005 21.7237C1.30005 21.7215 1.30005 21.7194 1.30005 21.7173C1.30005 21.7152 1.30005 21.7131 1.30005 21.711C1.30005 21.7089 1.30005 21.7068 1.30005 21.7047C1.30005 21.7026 1.30005 21.7005 1.30005 21.6984C1.30005 21.6963 1.30005 21.6942 1.30005 21.6921C1.30005 21.69 1.30005 21.6879 1.30005 21.6858C1.30005 21.6837 1.30005 21.6816 1.30005 21.6795C1.30005 21.6774 1.30005 21.6753 1.30005 21.6732C1.30005 21.6711 1.30005 21.669 1.30005 21.6669C1.30005 21.6648 1.30005 21.6627 1.30005 21.6606C1.30005 21.6585 1.30005 21.6564 1.30005 21.6543C1.30005 21.6522 1.30005 21.6501 1.30005 21.648C1.30005 21.6459 1.30005 21.6438 1.30005 21.6417C1.30005 21.6396 1.30005 21.6375 1.30005 21.6354C1.30005 21.6333 1.30005 21.6312 1.30005 21.6291C1.30005 21.627 1.30005 21.6249 1.30005 21.6228C1.30005 21.6207 1.30005 21.6186 1.30005 21.6165C1.30005 21.6144 1.30005 21.6123 1.30005 21.6102C1.30005 21.6081 1.30005 21.606 1.30005 21.6039C1.30005 21.6018 1.30005 21.5997 1.30005 21.5976C1.30005 21.5955 1.30005 21.5934 1.30005 21.5913C1.30005 21.5892 1.30005 21.5872 1.30005 21.5851C1.30005 21.583 1.30005 21.5809 1.30005 21.5788C1.30005 21.5767 1.30005 21.5746 1.30005 21.5725C1.30005 21.5704 1.30005 21.5683 1.30005 21.5662C1.30005 21.5641 1.30005 21.562 1.30005 21.56C1.30005 21.5579 1.30005 21.5558 1.30005 21.5537C1.30005 21.5516 1.30005 21.5495 1.30005 21.5474C1.30005 21.5453 1.30005 21.5432 1.30005 21.5411C1.30005 21.5391 1.30005 21.537 1.30005 21.5349C1.30005 21.5328 1.30005 21.5307 1.30005 21.5286C1.30005 21.5265 1.30005 21.5244 1.30005 21.5223C1.30005 21.5203 1.30005 21.5182 1.30005 21.5161C1.30005 21.514 1.30005 21.5119 1.30005 21.5098C1.30005 21.5077 1.30005 21.5057 1.30005 21.5036C1.30005 21.5015 1.30005 21.4994 1.30005 21.4973C1.30005 21.4952 1.30005 21.4931 1.30005 21.4911C1.30005 21.489 1.30005 21.4869 1.30005 21.4848C1.30005 21.4827 1.30005 21.4806 1.30005 21.4786C1.30005 21.4765 1.30005 21.4744 1.30005 21.4723C1.30005 21.4702 1.30005 21.4681 1.30005 21.4661C1.30005 21.464 1.30005 21.4619 1.30005 21.4598C1.30005 21.4577 1.30005 21.4556 1.30005 21.4536C1.30005 21.4515 1.30005 21.4494 1.30005 21.4473C1.30005 21.4452 1.30005 21.4432 1.30005 21.4411C1.30005 21.439 1.30005 21.4369 1.30005 21.4348C1.30005 21.4328 1.30005 21.4307 1.30005 21.4286C1.30005 21.4265 1.30005 21.4245 1.30005 21.4224C1.30005 21.4203 1.30005 21.4182 1.30005 21.4161C1.30005 21.4141 1.30005 21.412 1.30005 21.4099C1.30005 21.4078 1.30005 21.4058 1.30005 21.4037C1.30005 21.4016 1.30005 21.3995 1.30005 21.3975C1.30005 21.3954 1.30005 21.3933 1.30005 21.3912C1.30005 21.3892 1.30005 21.3871 1.30005 21.385C1.30005 21.3829 1.30005 21.3809 1.30005 21.3788C1.30005 21.3767 1.30005 21.3746 1.30005 21.3726C1.30005 21.3705 1.30005 21.3684 1.30005 21.3664C1.30005 21.3643 1.30005 21.3622 1.30005 21.3601C1.30005 21.3581 1.30005 21.356 1.30005 21.3539C1.30005 21.3519 1.30005 21.3498 1.30005 21.3477C1.30005 21.3456 1.30005 21.3436 1.30005 21.3415C1.30005 21.3394 1.30005 21.3374 1.30005 21.3353C1.30005 21.3332 1.30005 21.3312 1.30005 21.3291C1.30005 21.327 1.30005 21.3249 1.30005 21.3229C1.30005 21.3208 1.30005 21.3187 1.30005 21.3167C1.30005 21.3146 1.30005 21.3125 1.30005 21.3105C1.30005 21.3084 1.30005 21.3063 1.30005 21.3043C1.30005 21.3022 1.30005 21.3001 1.30005 21.2981C1.30005 21.296 1.30005 21.2939 1.30005 21.2919C1.30005 21.2898 1.30005 21.2878 1.30005 21.2857C1.30005 21.2836 1.30005 21.2816 1.30005 21.2795C1.30005 21.2774 1.30005 21.2754 1.30005 21.2733C1.30005 21.2712 1.30005 21.2692 1.30005 21.2671C1.30005 21.2651 1.30005 21.263 1.30005 21.2609C1.30005 21.2589 1.30005 21.2568 1.30005 21.2548C1.30005 21.2527 1.30005 21.2506 1.30005 21.2486C1.30005 21.2465 1.30005 21.2445 1.30005 21.2424C1.30005 21.2403 1.30005 21.2383 1.30005 21.2362C1.30005 21.2342 1.30005 21.2321 1.30005 21.23C1.30005 21.228 1.30005 21.2259 1.30005 21.2239C1.30005 21.2218 1.30005 21.2197 1.30005 21.2177C1.30005 21.2156 1.30005 21.2136 1.30005 21.2115C1.30005 21.2095 1.30005 21.2074 1.30005 21.2053C1.30005 21.2033 1.30005 21.2012 1.30005 21.1992C1.30005 21.1971 1.30005 21.1951 1.30005 21.193C1.30005 21.191 1.30005 21.1889 1.30005 21.1869C1.30005 21.1848 1.30005 21.1827 1.30005 21.1807C1.30005 21.1786 1.30005 21.1766 1.30005 21.1745C1.30005 21.1725 1.30005 21.1704 1.30005 21.1684C1.30005 21.1663 1.30005 21.1643 1.30005 21.1622C1.30005 21.1602 1.30005 21.1581 1.30005 21.1561C1.30005 21.154 1.30005 21.152 1.30005 21.1499C1.30005 21.1479 1.30005 21.1458 1.30005 21.1438C1.30005 21.1417 1.30005 21.1397 1.30005 21.1376C1.30005 21.1356 1.30005 21.1335 1.30005 21.1315C1.30005 21.1294 1.30005 21.1274 1.30005 21.1253C1.30005 21.1233 1.30005 21.1212 1.30005 21.1192C1.30005 21.1171 1.30005 21.1151 1.30005 21.113C1.30005 21.111 1.30005 21.109 1.30005 21.1069C1.30005 21.1049 1.30005 21.1028 1.30005 21.1008C1.30005 21.0987 1.30005 21.0967 1.30005 21.0946C1.30005 21.0926 1.30005 21.0906 1.30005 21.0885C1.30005 21.0865 1.30005 21.0844 1.30005 21.0824C1.30005 21.0803 1.30005 21.0783 1.30005 21.0763C1.30005 21.0742 1.30005 21.0722 1.30005 21.0701C1.30005 21.0681 1.30005 21.066 1.30005 21.064C1.30005 21.062 1.30005 21.0599 1.30005 21.0579C1.30005 21.0558 1.30005 21.0538 1.30005 21.0518C1.30005 21.0497 1.30005 21.0477 1.30005 21.0456C1.30005 21.0436 1.30005 21.0416 1.30005 21.0395C1.30005 21.0375 1.30005 21.0354 1.30005 21.0334C1.30005 21.0314 1.30005 21.0293 1.30005 21.0273C1.30005 21.0253 1.30005 21.0232 1.30005 21.0212C1.30005 21.0191 1.30005 21.0171 1.30005 21.0151C1.30005 21.013 1.30005 21.011 1.30005 21.009C1.30005 21.0069 1.30005 21.0049 1.30005 21.0029C1.30005 21.0008 1.30005 20.9988 1.30005 20.9968C1.30005 20.9947 1.30005 20.9927 1.30005 20.9907C1.30005 20.9886 1.30005 20.9866 1.30005 20.9846C1.30005 20.9825 1.30005 20.9805 1.30005 20.9785C1.30005 20.9764 1.30005 20.9744 1.30005 20.9724C1.30005 20.9703 1.30005 20.9683 1.30005 20.9663C1.30005 20.9642 1.30005 20.9622 1.30005 20.9602C1.30005 20.9582 1.30005 20.9561 1.30005 20.9541C1.30005 20.9521 1.30005 20.95 1.30005 20.948C1.30005 20.946 1.30005 20.944 1.30005 20.9419C1.30005 20.9399 1.30005 20.9379 1.30005 20.9358C1.30005 20.9338 1.30005 20.9318 1.30005 20.9298C1.30005 20.9277 1.30005 20.9257 1.30005 20.9237C1.30005 20.9217 1.30005 20.9196 1.30005 20.9176C1.30005 20.9156 1.30005 20.9136 1.30005 20.9115C1.30005 20.9095 1.30005 20.9075 1.30005 20.9055C1.30005 20.9034 1.30005 20.9014 1.30005 20.8994C1.30005 20.8974 1.30005 20.8953 1.30005 20.8933C1.30005 20.8913 1.30005 20.8893 1.30005 20.8873C1.30005 20.8852 1.30005 20.8832 1.30005 20.8812C1.30005 20.8792 1.30005 20.8771 1.30005 20.8751C1.30005 20.8731 1.30005 20.8711 1.30005 20.8691C1.30005 20.867 1.30005 20.865 1.30005 20.863C1.30005 20.861 1.30005 20.859 1.30005 20.857C1.30005 20.8549 1.30005 20.8529 1.30005 20.8509C1.30005 20.8489 1.30005 20.8469 1.30005 20.8448C1.30005 20.8428 1.30005 20.8408 1.30005 20.8388C1.30005 20.8368 1.30005 20.8348 1.30005 20.8327C1.30005 20.8307 1.30005 20.8287 1.30005 20.8267C1.30005 20.8247 1.30005 20.8227 1.30005 20.8207C1.30005 20.8186 1.30005 20.8166 1.30005 20.8146C1.30005 20.8126 1.30005 20.8106 1.30005 20.8086C1.30005 20.8066 1.30005 20.8045 1.30005 20.8025C1.30005 20.8005 1.30005 20.7985 1.30005 20.7965C1.30005 20.7945 1.30005 20.7925 1.30005 20.7905C1.30005 20.7885 1.30005 20.7864 1.30005 20.7844C1.30005 20.7824 1.30005 20.7804 1.30005 20.7784C1.30005 20.7764 1.30005 20.7744 1.30005 20.7724C1.30005 20.7704 1.30005 20.7684 1.30005 20.7663C1.30005 20.7643 1.30005 20.7623 1.30005 20.7603C1.30005 20.7583 1.30005 20.7563 1.30005 20.7543C1.30005 20.7523 1.30005 20.7503 1.30005 20.7483C1.30005 20.7463 1.30005 20.7443 1.30005 20.7423C1.30005 20.7403 1.30005 20.7383 1.30005 20.7362C1.30005 20.7342 1.30005 20.7322 1.30005 20.7302C1.30005 20.7282 1.30005 20.7262 1.30005 20.7242C1.30005 20.7222 1.30005 20.7202 1.30005 20.7182C1.30005 20.7162 1.30005 20.7142 1.30005 20.7122C1.30005 20.7102 1.30005 20.7082 1.30005 20.7062C1.30005 20.7042 1.30005 20.7022 1.30005 20.7002C1.30005 20.6982 1.30005 20.6962 1.30005 20.6942C1.30005 20.6922 1.30005 20.6902 1.30005 20.6882C1.30005 20.6862 1.30005 20.6842 1.30005 20.6822C1.30005 20.6802 1.30005 20.6782 1.30005 20.6762C1.30005 20.6742 1.30005 20.6722 1.30005 20.6702C1.30005 20.6682 1.30005 20.6662 1.30005 20.6642C1.30005 20.6622 1.30005 20.6602 1.30005 20.6582C1.30005 20.6562 1.30005 20.6542 1.30005 20.6522C1.30005 20.6503 1.30005 20.6483 1.30005 20.6463C1.30005 20.6443 1.30005 20.6423 1.30005 20.6403C1.30005 20.6383 1.30005 20.6363 1.30005 20.6343C1.30005 20.6323 1.30005 20.6303 1.30005 20.6283C1.30005 20.6263 1.30005 20.6243 1.30005 20.6223C1.30005 20.6204 1.30005 20.6184 1.30005 20.6164C1.30005 20.6144 1.30005 20.6124 1.30005 20.6104C1.30005 20.6084 1.30005 20.6064 1.30005 20.6044C1.30005 20.6024 1.30005 20.6005 1.30005 20.5985C1.30005 20.5965 1.30005 20.5945 1.30005 20.5925C1.30005 20.5905 1.30005 20.5885 1.30005 20.5865C1.30005 20.5845 1.30005 20.5826 1.30005 20.5806C1.30005 20.5786 1.30005 20.5766 1.30005 20.5746C1.30005 20.5726 1.30005 20.5706 1.30005 20.5687C1.30005 20.5667 1.30005 20.5647 1.30005 20.5627C1.30005 20.5607 1.30005 20.5587 1.30005 20.5568C1.30005 20.5548 1.30005 20.5528 1.30005 20.5508C1.30005 20.5488 1.30005 20.5468 1.30005 20.5449C1.30005 20.5429 1.30005 20.5409 1.30005 20.5389C1.30005 20.5369 1.30005 20.5349 1.30005 20.533C1.30005 20.531 1.30005 20.529 1.30005 20.527C1.30005 20.525 1.30005 20.5231 1.30005 20.5211C1.30005 20.5191 1.30005 20.5171 1.30005 20.5151C1.30005 20.5132 1.30005 20.5112 1.30005 20.5092C1.30005 20.5072 1.30005 20.5053 1.30005 20.5033C1.30005 20.5013 1.30005 20.4993 1.30005 20.4973C1.30005 20.4954 1.30005 20.4934 1.30005 20.4914C1.30005 20.4894 1.30005 20.4875 1.30005 20.4855C1.30005 20.4835 1.30005 20.4815 1.30005 20.4796C1.30005 20.4776 1.30005 20.4756 1.30005 20.4736C1.30005 20.4717 1.30005 20.4697 1.30005 20.4677C1.30005 20.4657 1.30005 20.4638 1.30005 20.4618C1.30005 20.4598 1.30005 20.4579 1.30005 20.4559C1.30005 20.4539 1.30005 20.4519 1.30005 20.45C1.30005 20.448 1.30005 20.446 1.30005 20.4441C1.30005 20.4421 1.30005 20.4401 1.30005 20.4382C1.30005 20.4362 1.30005 20.4342 1.30005 20.4322C1.30005 20.4303 1.30005 20.4283 1.30005 20.4263C1.30005 20.4244 1.30005 20.4224 1.30005 20.4204C1.30005 20.4185 1.30005 20.4165 1.30005 20.4145C1.30005 20.4126 1.30005 20.4106 1.30005 20.4086C1.30005 20.4067 1.30005 20.4047 1.30005 20.4027C1.30005 20.4008 1.30005 20.3988 1.30005 20.3968C1.30005 20.3949 1.30005 20.3929 1.30005 20.391C1.30005 20.389 1.30005 20.387 1.30005 20.3851C1.30005 20.3831 1.30005 20.3811 1.30005 20.3792C1.30005 20.3772 1.30005 20.3752 1.30005 20.3733C1.30005 20.3713 1.30005 20.3694 1.30005 20.3674C1.30005 20.3654 1.30005 20.3635 1.30005 20.3615C1.30005 20.3596 1.30005 20.3576 1.30005 20.3556C1.30005 20.3537 1.30005 20.3517 1.30005 20.3498C1.30005 20.3478 1.30005 20.3459 1.30005 20.3439C1.30005 20.3419 1.30005 20.34 1.30005 20.338C1.30005 20.3361 1.30005 20.3341 1.30005 20.3322C1.30005 20.3302 1.30005 20.3282 1.30005 20.3263C1.30005 20.3243 1.30005 20.3224 1.30005 20.3204C1.30005 20.3185 1.30005 20.3165 1.30005 20.3146C1.30005 20.3126 1.30005 20.3106 1.30005 20.3087C1.30005 20.3067 1.30005 20.3048 1.30005 20.3028C1.30005 20.3009 1.30005 20.2989 1.30005 20.297C1.30005 20.295 1.30005 20.2931 1.30005 20.2911C1.30005 20.2892 1.30005 20.2872 1.30005 20.2853C1.30005 20.2833 1.30005 20.2814 1.30005 20.2794C1.30005 20.2775 1.30005 20.2755 1.30005 20.2736C1.30005 20.2716 1.30005 20.2697 1.30005 20.2677C1.30005 20.2658 1.30005 20.2638 1.30005 20.2619C1.30005 20.2599 1.30005 20.258 1.30005 20.256C1.30005 20.2541 1.30005 20.2521 1.30005 20.2502C1.30005 20.2483 1.30005 20.2463 1.30005 20.2444C1.30005 20.2424 1.30005 20.2405 1.30005 20.2385C1.30005 20.2366 1.30005 20.2346 1.30005 20.2327C1.30005 20.2308 1.30005 20.2288 1.30005 20.2269C1.30005 20.2249 1.30005 20.223 1.30005 20.221C1.30005 20.2191 1.30005 20.2172 1.30005 20.2152C1.30005 20.2133 1.30005 20.2113 1.30005 20.2094C1.30005 20.2075 1.30005 20.2055 1.30005 20.2036C1.30005 20.2016 1.30005 20.1997 1.30005 20.1978C1.30005 20.1958 1.30005 20.1939 1.30005 20.1919C1.30005 20.19 1.30005 20.1881 1.30005 20.1861C1.30005 20.1842 1.30005 20.1822 1.30005 20.1803C1.30005 20.1784 1.30005 20.1764 1.30005 20.1745C1.30005 20.1726 1.30005 20.1706 1.30005 20.1687C1.30005 20.1668 1.30005 20.1648 1.30005 20.1629C1.30005 20.161 1.30005 20.159 1.30005 20.1571C1.30005 20.1552 1.30005 20.1532 1.30005 20.1513C1.30005 20.1494 1.30005 20.1474 1.30005 20.1455C1.30005 20.1436 1.30005 20.1416 1.30005 20.1397C1.30005 20.1378 1.30005 20.1358 1.30005 20.1339C1.30005 20.132 1.30005 20.13 1.30005 20.1281C1.30005 20.1262 1.30005 20.1242 1.30005 20.1223C1.30005 20.1204 1.30005 20.1185 1.30005 20.1165C1.30005 20.1146 1.30005 20.1127 1.30005 20.1107C1.30005 20.1088 1.30005 20.1069 1.30005 20.105C1.30005 20.103 1.30005 20.1011 1.30005 20.0992C1.30005 20.0973 1.30005 20.0953 1.30005 20.0934C1.30005 20.0915 1.30005 20.0896 1.30005 20.0876C1.30005 20.0857 1.30005 20.0838 1.30005 20.0819C1.30005 20.0799 1.30005 20.078 1.30005 20.0761C1.30005 20.0742 1.30005 20.0722 1.30005 20.0703C1.30005 20.0684 1.30005 20.0665 1.30005 20.0646C1.30005 20.0626 1.30005 20.0607 1.30005 20.0588C1.30005 20.0569 1.30005 20.0549 1.30005 20.053C1.30005 20.0511 1.30005 20.0492 1.30005 20.0473C1.30005 20.0454 1.30005 20.0434 1.30005 20.0415C1.30005 20.0396 1.30005 20.0377 1.30005 20.0358C1.30005 20.0338 1.30005 20.0319 1.30005 20.03C1.30005 20.0281 1.30005 20.0262 1.30005 20.0243C1.30005 20.0223 1.30005 20.0204 1.30005 20.0185C1.30005 20.0166 1.30005 20.0147 1.30005 20.0128C1.30005 20.0108 1.30005 20.0089 1.30005 20.007C1.30005 20.0051 1.30005 20.0032 1.30005 20.0013C1.30005 19.9994 1.30005 19.9975 1.30005 19.9955C1.30005 19.9936 1.30005 19.9917 1.30005 19.9898H0.300049C0.300049 19.9917 0.300049 19.9936 0.300049 19.9955C0.300049 19.9975 0.300049 19.9994 0.300049 20.0013C0.300049 20.0032 0.300049 20.0051 0.300049 20.007C0.300049 20.0089 0.300049 20.0108 0.300049 20.0128C0.300049 20.0147 0.300049 20.0166 0.300049 20.0185C0.300049 20.0204 0.300049 20.0223 0.300049 20.0243C0.300049 20.0262 0.300049 20.0281 0.300049 20.03C0.300049 20.0319 0.300049 20.0338 0.300049 20.0358C0.300049 20.0377 0.300049 20.0396 0.300049 20.0415C0.300049 20.0434 0.300049 20.0454 0.300049 20.0473C0.300049 20.0492 0.300049 20.0511 0.300049 20.053C0.300049 20.0549 0.300049 20.0569 0.300049 20.0588C0.300049 20.0607 0.300049 20.0626 0.300049 20.0646C0.300049 20.0665 0.300049 20.0684 0.300049 20.0703C0.300049 20.0722 0.300049 20.0742 0.300049 20.0761C0.300049 20.078 0.300049 20.0799 0.300049 20.0819C0.300049 20.0838 0.300049 20.0857 0.300049 20.0876C0.300049 20.0896 0.300049 20.0915 0.300049 20.0934C0.300049 20.0953 0.300049 20.0973 0.300049 20.0992C0.300049 20.1011 0.300049 20.103 0.300049 20.105C0.300049 20.1069 0.300049 20.1088 0.300049 20.1107C0.300049 20.1127 0.300049 20.1146 0.300049 20.1165C0.300049 20.1185 0.300049 20.1204 0.300049 20.1223C0.300049 20.1242 0.300049 20.1262 0.300049 20.1281C0.300049 20.13 0.300049 20.132 0.300049 20.1339C0.300049 20.1358 0.300049 20.1378 0.300049 20.1397C0.300049 20.1416 0.300049 20.1436 0.300049 20.1455C0.300049 20.1474 0.300049 20.1494 0.300049 20.1513C0.300049 20.1532 0.300049 20.1552 0.300049 20.1571C0.300049 20.159 0.300049 20.161 0.300049 20.1629C0.300049 20.1648 0.300049 20.1668 0.300049 20.1687C0.300049 20.1706 0.300049 20.1726 0.300049 20.1745C0.300049 20.1764 0.300049 20.1784 0.300049 20.1803C0.300049 20.1822 0.300049 20.1842 0.300049 20.1861C0.300049 20.1881 0.300049 20.19 0.300049 20.1919C0.300049 20.1939 0.300049 20.1958 0.300049 20.1978C0.300049 20.1997 0.300049 20.2016 0.300049 20.2036C0.300049 20.2055 0.300049 20.2075 0.300049 20.2094C0.300049 20.2113 0.300049 20.2133 0.300049 20.2152C0.300049 20.2172 0.300049 20.2191 0.300049 20.221C0.300049 20.223 0.300049 20.2249 0.300049 20.2269C0.300049 20.2288 0.300049 20.2308 0.300049 20.2327C0.300049 20.2346 0.300049 20.2366 0.300049 20.2385C0.300049 20.2405 0.300049 20.2424 0.300049 20.2444C0.300049 20.2463 0.300049 20.2483 0.300049 20.2502C0.300049 20.2521 0.300049 20.2541 0.300049 20.256C0.300049 20.258 0.300049 20.2599 0.300049 20.2619C0.300049 20.2638 0.300049 20.2658 0.300049 20.2677C0.300049 20.2697 0.300049 20.2716 0.300049 20.2736C0.300049 20.2755 0.300049 20.2775 0.300049 20.2794C0.300049 20.2814 0.300049 20.2833 0.300049 20.2853C0.300049 20.2872 0.300049 20.2892 0.300049 20.2911C0.300049 20.2931 0.300049 20.295 0.300049 20.297C0.300049 20.2989 0.300049 20.3009 0.300049 20.3028C0.300049 20.3048 0.300049 20.3067 0.300049 20.3087C0.300049 20.3106 0.300049 20.3126 0.300049 20.3146C0.300049 20.3165 0.300049 20.3185 0.300049 20.3204C0.300049 20.3224 0.300049 20.3243 0.300049 20.3263C0.300049 20.3282 0.300049 20.3302 0.300049 20.3322C0.300049 20.3341 0.300049 20.3361 0.300049 20.338C0.300049 20.34 0.300049 20.3419 0.300049 20.3439C0.300049 20.3459 0.300049 20.3478 0.300049 20.3498C0.300049 20.3517 0.300049 20.3537 0.300049 20.3556C0.300049 20.3576 0.300049 20.3596 0.300049 20.3615C0.300049 20.3635 0.300049 20.3654 0.300049 20.3674C0.300049 20.3694 0.300049 20.3713 0.300049 20.3733C0.300049 20.3752 0.300049 20.3772 0.300049 20.3792C0.300049 20.3811 0.300049 20.3831 0.300049 20.3851C0.300049 20.387 0.300049 20.389 0.300049 20.391C0.300049 20.3929 0.300049 20.3949 0.300049 20.3968C0.300049 20.3988 0.300049 20.4008 0.300049 20.4027C0.300049 20.4047 0.300049 20.4067 0.300049 20.4086C0.300049 20.4106 0.300049 20.4126 0.300049 20.4145C0.300049 20.4165 0.300049 20.4185 0.300049 20.4204C0.300049 20.4224 0.300049 20.4244 0.300049 20.4263C0.300049 20.4283 0.300049 20.4303 0.300049 20.4322C0.300049 20.4342 0.300049 20.4362 0.300049 20.4382C0.300049 20.4401 0.300049 20.4421 0.300049 20.4441C0.300049 20.446 0.300049 20.448 0.300049 20.45C0.300049 20.4519 0.300049 20.4539 0.300049 20.4559C0.300049 20.4579 0.300049 20.4598 0.300049 20.4618C0.300049 20.4638 0.300049 20.4657 0.300049 20.4677C0.300049 20.4697 0.300049 20.4717 0.300049 20.4736C0.300049 20.4756 0.300049 20.4776 0.300049 20.4796C0.300049 20.4815 0.300049 20.4835 0.300049 20.4855C0.300049 20.4875 0.300049 20.4894 0.300049 20.4914C0.300049 20.4934 0.300049 20.4954 0.300049 20.4973C0.300049 20.4993 0.300049 20.5013 0.300049 20.5033C0.300049 20.5053 0.300049 20.5072 0.300049 20.5092C0.300049 20.5112 0.300049 20.5132 0.300049 20.5151C0.300049 20.5171 0.300049 20.5191 0.300049 20.5211C0.300049 20.5231 0.300049 20.525 0.300049 20.527C0.300049 20.529 0.300049 20.531 0.300049 20.533C0.300049 20.5349 0.300049 20.5369 0.300049 20.5389C0.300049 20.5409 0.300049 20.5429 0.300049 20.5449C0.300049 20.5468 0.300049 20.5488 0.300049 20.5508C0.300049 20.5528 0.300049 20.5548 0.300049 20.5568C0.300049 20.5587 0.300049 20.5607 0.300049 20.5627C0.300049 20.5647 0.300049 20.5667 0.300049 20.5687C0.300049 20.5706 0.300049 20.5726 0.300049 20.5746C0.300049 20.5766 0.300049 20.5786 0.300049 20.5806C0.300049 20.5826 0.300049 20.5845 0.300049 20.5865C0.300049 20.5885 0.300049 20.5905 0.300049 20.5925C0.300049 20.5945 0.300049 20.5965 0.300049 20.5985C0.300049 20.6005 0.300049 20.6024 0.300049 20.6044C0.300049 20.6064 0.300049 20.6084 0.300049 20.6104C0.300049 20.6124 0.300049 20.6144 0.300049 20.6164C0.300049 20.6184 0.300049 20.6204 0.300049 20.6223C0.300049 20.6243 0.300049 20.6263 0.300049 20.6283C0.300049 20.6303 0.300049 20.6323 0.300049 20.6343C0.300049 20.6363 0.300049 20.6383 0.300049 20.6403C0.300049 20.6423 0.300049 20.6443 0.300049 20.6463C0.300049 20.6483 0.300049 20.6503 0.300049 20.6522C0.300049 20.6542 0.300049 20.6562 0.300049 20.6582C0.300049 20.6602 0.300049 20.6622 0.300049 20.6642C0.300049 20.6662 0.300049 20.6682 0.300049 20.6702C0.300049 20.6722 0.300049 20.6742 0.300049 20.6762C0.300049 20.6782 0.300049 20.6802 0.300049 20.6822C0.300049 20.6842 0.300049 20.6862 0.300049 20.6882C0.300049 20.6902 0.300049 20.6922 0.300049 20.6942C0.300049 20.6962 0.300049 20.6982 0.300049 20.7002C0.300049 20.7022 0.300049 20.7042 0.300049 20.7062C0.300049 20.7082 0.300049 20.7102 0.300049 20.7122C0.300049 20.7142 0.300049 20.7162 0.300049 20.7182C0.300049 20.7202 0.300049 20.7222 0.300049 20.7242C0.300049 20.7262 0.300049 20.7282 0.300049 20.7302C0.300049 20.7322 0.300049 20.7342 0.300049 20.7362C0.300049 20.7383 0.300049 20.7403 0.300049 20.7423C0.300049 20.7443 0.300049 20.7463 0.300049 20.7483C0.300049 20.7503 0.300049 20.7523 0.300049 20.7543C0.300049 20.7563 0.300049 20.7583 0.300049 20.7603C0.300049 20.7623 0.300049 20.7643 0.300049 20.7663C0.300049 20.7684 0.300049 20.7704 0.300049 20.7724C0.300049 20.7744 0.300049 20.7764 0.300049 20.7784C0.300049 20.7804 0.300049 20.7824 0.300049 20.7844C0.300049 20.7864 0.300049 20.7885 0.300049 20.7905C0.300049 20.7925 0.300049 20.7945 0.300049 20.7965C0.300049 20.7985 0.300049 20.8005 0.300049 20.8025C0.300049 20.8045 0.300049 20.8066 0.300049 20.8086C0.300049 20.8106 0.300049 20.8126 0.300049 20.8146C0.300049 20.8166 0.300049 20.8186 0.300049 20.8207C0.300049 20.8227 0.300049 20.8247 0.300049 20.8267C0.300049 20.8287 0.300049 20.8307 0.300049 20.8327C0.300049 20.8348 0.300049 20.8368 0.300049 20.8388C0.300049 20.8408 0.300049 20.8428 0.300049 20.8448C0.300049 20.8469 0.300049 20.8489 0.300049 20.8509C0.300049 20.8529 0.300049 20.8549 0.300049 20.857C0.300049 20.859 0.300049 20.861 0.300049 20.863C0.300049 20.865 0.300049 20.867 0.300049 20.8691C0.300049 20.8711 0.300049 20.8731 0.300049 20.8751C0.300049 20.8771 0.300049 20.8792 0.300049 20.8812C0.300049 20.8832 0.300049 20.8852 0.300049 20.8873C0.300049 20.8893 0.300049 20.8913 0.300049 20.8933C0.300049 20.8953 0.300049 20.8974 0.300049 20.8994C0.300049 20.9014 0.300049 20.9034 0.300049 20.9055C0.300049 20.9075 0.300049 20.9095 0.300049 20.9115C0.300049 20.9136 0.300049 20.9156 0.300049 20.9176C0.300049 20.9196 0.300049 20.9217 0.300049 20.9237C0.300049 20.9257 0.300049 20.9277 0.300049 20.9298C0.300049 20.9318 0.300049 20.9338 0.300049 20.9358C0.300049 20.9379 0.300049 20.9399 0.300049 20.9419C0.300049 20.944 0.300049 20.946 0.300049 20.948C0.300049 20.95 0.300049 20.9521 0.300049 20.9541C0.300049 20.9561 0.300049 20.9582 0.300049 20.9602C0.300049 20.9622 0.300049 20.9642 0.300049 20.9663C0.300049 20.9683 0.300049 20.9703 0.300049 20.9724C0.300049 20.9744 0.300049 20.9764 0.300049 20.9785C0.300049 20.9805 0.300049 20.9825 0.300049 20.9846C0.300049 20.9866 0.300049 20.9886 0.300049 20.9907C0.300049 20.9927 0.300049 20.9947 0.300049 20.9968C0.300049 20.9988 0.300049 21.0008 0.300049 21.0029C0.300049 21.0049 0.300049 21.0069 0.300049 21.009C0.300049 21.011 0.300049 21.013 0.300049 21.0151C0.300049 21.0171 0.300049 21.0191 0.300049 21.0212C0.300049 21.0232 0.300049 21.0253 0.300049 21.0273C0.300049 21.0293 0.300049 21.0314 0.300049 21.0334C0.300049 21.0354 0.300049 21.0375 0.300049 21.0395C0.300049 21.0416 0.300049 21.0436 0.300049 21.0456C0.300049 21.0477 0.300049 21.0497 0.300049 21.0518C0.300049 21.0538 0.300049 21.0558 0.300049 21.0579C0.300049 21.0599 0.300049 21.062 0.300049 21.064C0.300049 21.066 0.300049 21.0681 0.300049 21.0701C0.300049 21.0722 0.300049 21.0742 0.300049 21.0763C0.300049 21.0783 0.300049 21.0803 0.300049 21.0824C0.300049 21.0844 0.300049 21.0865 0.300049 21.0885C0.300049 21.0906 0.300049 21.0926 0.300049 21.0946C0.300049 21.0967 0.300049 21.0987 0.300049 21.1008C0.300049 21.1028 0.300049 21.1049 0.300049 21.1069C0.300049 21.109 0.300049 21.111 0.300049 21.113C0.300049 21.1151 0.300049 21.1171 0.300049 21.1192C0.300049 21.1212 0.300049 21.1233 0.300049 21.1253C0.300049 21.1274 0.300049 21.1294 0.300049 21.1315C0.300049 21.1335 0.300049 21.1356 0.300049 21.1376C0.300049 21.1397 0.300049 21.1417 0.300049 21.1438C0.300049 21.1458 0.300049 21.1479 0.300049 21.1499C0.300049 21.152 0.300049 21.154 0.300049 21.1561C0.300049 21.1581 0.300049 21.1602 0.300049 21.1622C0.300049 21.1643 0.300049 21.1663 0.300049 21.1684C0.300049 21.1704 0.300049 21.1725 0.300049 21.1745C0.300049 21.1766 0.300049 21.1786 0.300049 21.1807C0.300049 21.1827 0.300049 21.1848 0.300049 21.1869C0.300049 21.1889 0.300049 21.191 0.300049 21.193C0.300049 21.1951 0.300049 21.1971 0.300049 21.1992C0.300049 21.2012 0.300049 21.2033 0.300049 21.2053C0.300049 21.2074 0.300049 21.2095 0.300049 21.2115C0.300049 21.2136 0.300049 21.2156 0.300049 21.2177C0.300049 21.2197 0.300049 21.2218 0.300049 21.2239C0.300049 21.2259 0.300049 21.228 0.300049 21.23C0.300049 21.2321 0.300049 21.2342 0.300049 21.2362C0.300049 21.2383 0.300049 21.2403 0.300049 21.2424C0.300049 21.2445 0.300049 21.2465 0.300049 21.2486C0.300049 21.2506 0.300049 21.2527 0.300049 21.2548C0.300049 21.2568 0.300049 21.2589 0.300049 21.2609C0.300049 21.263 0.300049 21.2651 0.300049 21.2671C0.300049 21.2692 0.300049 21.2712 0.300049 21.2733C0.300049 21.2754 0.300049 21.2774 0.300049 21.2795C0.300049 21.2816 0.300049 21.2836 0.300049 21.2857C0.300049 21.2878 0.300049 21.2898 0.300049 21.2919C0.300049 21.2939 0.300049 21.296 0.300049 21.2981C0.300049 21.3001 0.300049 21.3022 0.300049 21.3043C0.300049 21.3063 0.300049 21.3084 0.300049 21.3105C0.300049 21.3125 0.300049 21.3146 0.300049 21.3167C0.300049 21.3187 0.300049 21.3208 0.300049 21.3229C0.300049 21.3249 0.300049 21.327 0.300049 21.3291C0.300049 21.3312 0.300049 21.3332 0.300049 21.3353C0.300049 21.3374 0.300049 21.3394 0.300049 21.3415C0.300049 21.3436 0.300049 21.3456 0.300049 21.3477C0.300049 21.3498 0.300049 21.3519 0.300049 21.3539C0.300049 21.356 0.300049 21.3581 0.300049 21.3601C0.300049 21.3622 0.300049 21.3643 0.300049 21.3664C0.300049 21.3684 0.300049 21.3705 0.300049 21.3726C0.300049 21.3746 0.300049 21.3767 0.300049 21.3788C0.300049 21.3809 0.300049 21.3829 0.300049 21.385C0.300049 21.3871 0.300049 21.3892 0.300049 21.3912C0.300049 21.3933 0.300049 21.3954 0.300049 21.3975C0.300049 21.3995 0.300049 21.4016 0.300049 21.4037C0.300049 21.4058 0.300049 21.4078 0.300049 21.4099C0.300049 21.412 0.300049 21.4141 0.300049 21.4161C0.300049 21.4182 0.300049 21.4203 0.300049 21.4224C0.300049 21.4245 0.300049 21.4265 0.300049 21.4286C0.300049 21.4307 0.300049 21.4328 0.300049 21.4348C0.300049 21.4369 0.300049 21.439 0.300049 21.4411C0.300049 21.4432 0.300049 21.4452 0.300049 21.4473C0.300049 21.4494 0.300049 21.4515 0.300049 21.4536C0.300049 21.4556 0.300049 21.4577 0.300049 21.4598C0.300049 21.4619 0.300049 21.464 0.300049 21.4661C0.300049 21.4681 0.300049 21.4702 0.300049 21.4723C0.300049 21.4744 0.300049 21.4765 0.300049 21.4786C0.300049 21.4806 0.300049 21.4827 0.300049 21.4848C0.300049 21.4869 0.300049 21.489 0.300049 21.4911C0.300049 21.4931 0.300049 21.4952 0.300049 21.4973C0.300049 21.4994 0.300049 21.5015 0.300049 21.5036C0.300049 21.5057 0.300049 21.5077 0.300049 21.5098C0.300049 21.5119 0.300049 21.514 0.300049 21.5161C0.300049 21.5182 0.300049 21.5203 0.300049 21.5223C0.300049 21.5244 0.300049 21.5265 0.300049 21.5286C0.300049 21.5307 0.300049 21.5328 0.300049 21.5349C0.300049 21.537 0.300049 21.5391 0.300049 21.5411C0.300049 21.5432 0.300049 21.5453 0.300049 21.5474C0.300049 21.5495 0.300049 21.5516 0.300049 21.5537C0.300049 21.5558 0.300049 21.5579 0.300049 21.56C0.300049 21.562 0.300049 21.5641 0.300049 21.5662C0.300049 21.5683 0.300049 21.5704 0.300049 21.5725C0.300049 21.5746 0.300049 21.5767 0.300049 21.5788C0.300049 21.5809 0.300049 21.583 0.300049 21.5851C0.300049 21.5872 0.300049 21.5892 0.300049 21.5913C0.300049 21.5934 0.300049 21.5955 0.300049 21.5976C0.300049 21.5997 0.300049 21.6018 0.300049 21.6039C0.300049 21.606 0.300049 21.6081 0.300049 21.6102C0.300049 21.6123 0.300049 21.6144 0.300049 21.6165C0.300049 21.6186 0.300049 21.6207 0.300049 21.6228C0.300049 21.6249 0.300049 21.627 0.300049 21.6291C0.300049 21.6312 0.300049 21.6333 0.300049 21.6354C0.300049 21.6375 0.300049 21.6396 0.300049 21.6417C0.300049 21.6438 0.300049 21.6459 0.300049 21.648C0.300049 21.6501 0.300049 21.6522 0.300049 21.6543C0.300049 21.6564 0.300049 21.6585 0.300049 21.6606C0.300049 21.6627 0.300049 21.6648 0.300049 21.6669C0.300049 21.669 0.300049 21.6711 0.300049 21.6732C0.300049 21.6753 0.300049 21.6774 0.300049 21.6795C0.300049 21.6816 0.300049 21.6837 0.300049 21.6858C0.300049 21.6879 0.300049 21.69 0.300049 21.6921C0.300049 21.6942 0.300049 21.6963 0.300049 21.6984C0.300049 21.7005 0.300049 21.7026 0.300049 21.7047C0.300049 21.7068 0.300049 21.7089 0.300049 21.711C0.300049 21.7131 0.300049 21.7152 0.300049 21.7173C0.300049 21.7194 0.300049 21.7215 0.300049 21.7237C0.300049 21.7258 0.300049 21.7279 0.300049 21.73C0.300049 21.7321 0.300049 21.7342 0.300049 21.7363C0.300049 21.7384 0.300049 21.7405 0.300049 21.7426C0.300049 21.7447 0.300049 21.7468 0.300049 21.7489C0.300049 21.7511 0.300049 21.7532 0.300049 21.7553C0.300049 21.7574 0.300049 21.7595 0.300049 21.7616C0.300049 21.7637 0.300049 21.7658 0.300049 21.7679C0.300049 21.77 0.300049 21.7722 0.300049 21.7743C0.300049 21.7764 0.300049 21.7785 0.300049 21.7806C0.300049 21.7827 0.300049 21.7848 0.300049 21.7869C0.300049 21.789 0.300049 21.7912 0.300049 21.7933C0.300049 21.7954 0.300049 21.7975 0.300049 21.7996C0.300049 21.8017 0.300049 21.8038 0.300049 21.8059C0.300049 21.8081 0.300049 21.8102 0.300049 21.8123C0.300049 21.8144 0.300049 21.8165 0.300049 21.8186C0.300049 21.8207 0.300049 21.8229 0.300049 21.825C0.300049 21.8271 0.300049 21.8292 0.300049 21.8313C0.300049 21.8334 0.300049 21.8356 0.300049 21.8377C0.300049 21.8398 0.300049 21.8419 0.300049 21.844C0.300049 21.8461 0.300049 21.8483 0.300049 21.8504C0.300049 21.8525 0.300049 21.8546 0.300049 21.8567C0.300049 21.8589 0.300049 21.861 0.300049 21.8631C0.300049 21.8652 0.300049 21.8673 0.300049 21.8694C0.300049 21.8716 0.300049 21.8737 0.300049 21.8758C0.300049 21.8779 0.300049 21.88 0.300049 21.8822C0.300049 21.8843 0.300049 21.8864 0.300049 21.8885C0.300049 21.8907 0.300049 21.8928 0.300049 21.8949C0.300049 21.897 0.300049 21.8991 0.300049 21.9013C0.300049 21.9034 0.300049 21.9055 0.300049 21.9076C0.300049 21.9098 0.300049 21.9119 0.300049 21.914C0.300049 21.9161 0.300049 21.9182 0.300049 21.9204C0.300049 21.9225 0.300049 21.9246 0.300049 21.9267C0.300049 21.9289 0.300049 21.931 0.300049 21.9331C0.300049 21.9352 0.300049 21.9374 0.300049 21.9395C0.300049 21.9416 0.300049 21.9437 0.300049 21.9459C0.300049 21.948 0.300049 21.9501 0.300049 21.9522C0.300049 21.9544 0.300049 21.9565 0.300049 21.9586C0.300049 21.9608 0.300049 21.9629 0.300049 21.965C0.300049 21.9671 0.300049 21.9693 0.300049 21.9714C0.300049 21.9735 0.300049 21.9757 0.300049 21.9778C0.300049 21.9799 0.300049 21.982 0.300049 21.9842C0.300049 21.9863 0.300049 21.9884 0.300049 21.9906C0.300049 21.9927 0.300049 21.9948 0.300049 21.997C0.300049 21.9991 0.300049 22.0012 0.300049 22.0033C0.300049 22.0055 0.300049 22.0076 0.300049 22.0097C0.300049 22.0119 0.300049 22.014 0.300049 22.0161C0.300049 22.0183 0.300049 22.0204 0.300049 22.0225C0.300049 22.0247 0.300049 22.0268 0.300049 22.0289C0.300049 22.0311 0.300049 22.0332 0.300049 22.0353C0.300049 22.0375 0.300049 22.0396 0.300049 22.0417C0.300049 22.0439 0.300049 22.046 0.300049 22.0481C0.300049 22.0503 0.300049 22.0524 0.300049 22.0545C0.300049 22.0567 0.300049 22.0588 0.300049 22.061C0.300049 22.0631 0.300049 22.0652 0.300049 22.0674C0.300049 22.0695 0.300049 22.0716 0.300049 22.0738C0.300049 22.0759 0.300049 22.078 0.300049 22.0802C0.300049 22.0823 0.300049 22.0845 0.300049 22.0866C0.300049 22.0887 0.300049 22.0909 0.300049 22.093C0.300049 22.0951 0.300049 22.0973 0.300049 22.0994C0.300049 22.1016 0.300049 22.1037 0.300049 22.1058C0.300049 22.108 0.300049 22.1101 0.300049 22.1123C0.300049 22.1144 0.300049 22.1165 0.300049 22.1187C0.300049 22.1208 0.300049 22.123 0.300049 22.1251C0.300049 22.1273 0.300049 22.1294 0.300049 22.1315C0.300049 22.1337 0.300049 22.1358 0.300049 22.138C0.300049 22.1401 0.300049 22.1423 0.300049 22.1444C0.300049 22.1465 0.300049 22.1487 0.300049 22.1508C0.300049 22.153 0.300049 22.1551 0.300049 22.1573C0.300049 22.1594 0.300049 22.1615 0.300049 22.1637C0.300049 22.1658 0.300049 22.168 0.300049 22.1701C0.300049 22.1723 0.300049 22.1744 0.300049 22.1766C0.300049 22.1787 0.300049 22.1809 0.300049 22.183C0.300049 22.1851 0.300049 22.1873 0.300049 22.1894C0.300049 22.1916 0.300049 22.1937 0.300049 22.1959C0.300049 22.198 0.300049 22.2002 0.300049 22.2023C0.300049 22.2045 0.300049 22.2066 0.300049 22.2088C0.300049 22.2109 0.300049 22.2131 0.300049 22.2152C0.300049 22.2174 0.300049 22.2195 0.300049 22.2217C0.300049 22.2238 0.300049 22.226 0.300049 22.2281C0.300049 22.2303 0.300049 22.2324 0.300049 22.2346C0.300049 22.2367 0.300049 22.2389 0.300049 22.241C0.300049 22.2432 0.300049 22.2453 0.300049 22.2475C0.300049 22.2496 0.300049 22.2518 0.300049 22.2539C0.300049 22.2561 0.300049 22.2582 0.300049 22.2604C0.300049 22.2625 0.300049 22.2647 0.300049 22.2668C0.300049 22.269 0.300049 22.2711 0.300049 22.2733C0.300049 22.2754 0.300049 22.2776 0.300049 22.2798C0.300049 22.2819 0.300049 22.2841 0.300049 22.2862C0.300049 22.2884 0.300049 22.2905 0.300049 22.2927C0.300049 22.2948 0.300049 22.297 0.300049 22.2991C0.300049 22.3013 0.300049 22.3035 0.300049 22.3056C0.300049 22.3078 0.300049 22.3099 0.300049 22.3121C0.300049 22.3142 0.300049 22.3164 0.300049 22.3186C0.300049 22.3207 0.300049 22.3229 0.300049 22.325C0.300049 22.3272 0.300049 22.3293 0.300049 22.3315C0.300049 22.3337 0.300049 22.3358 0.300049 22.338C0.300049 22.3401 0.300049 22.3423 0.300049 22.3445C0.300049 22.3466 0.300049 22.3488 0.300049 22.3509C0.300049 22.3531 0.300049 22.3552 0.300049 22.3574C0.300049 22.3596 0.300049 22.3617 0.300049 22.3639C0.300049 22.3661 0.300049 22.3682 0.300049 22.3704C0.300049 22.3725 0.300049 22.3747 0.300049 22.3769C0.300049 22.379 0.300049 22.3812 0.300049 22.3833C0.300049 22.3855 0.300049 22.3877 0.300049 22.3898C0.300049 22.392 0.300049 22.3942 0.300049 22.3963C0.300049 22.3985 0.300049 22.4006 0.300049 22.4028C0.300049 22.405 0.300049 22.4071 0.300049 22.4093C0.300049 22.4115 0.300049 22.4136 0.300049 22.4158C0.300049 22.418 0.300049 22.4201 0.300049 22.4223C0.300049 22.4245 0.300049 22.4266 0.300049 22.4288C0.300049 22.431 0.300049 22.4331 0.300049 22.4353C0.300049 22.4375 0.300049 22.4396 0.300049 22.4418C0.300049 22.444 0.300049 22.4461 0.300049 22.4483C0.300049 22.4505 0.300049 22.4526 0.300049 22.4548C0.300049 22.457 0.300049 22.4591 0.300049 22.4613C0.300049 22.4635 0.300049 22.4656 0.300049 22.4678C0.300049 22.47 0.300049 22.4721 0.300049 22.4743C0.300049 22.4765 0.300049 22.4786 0.300049 22.4808C0.300049 22.483 0.300049 22.4852 0.300049 22.4873C0.300049 22.4895 0.300049 22.4917 0.300049 22.4938C0.300049 22.496 0.300049 22.4982 0.300049 22.5004C0.300049 22.5025 0.300049 22.5047 0.300049 22.5069C0.300049 22.509 0.300049 22.5112 0.300049 22.5134C0.300049 22.5156 0.300049 22.5177 0.300049 22.5199C0.300049 22.5221 0.300049 22.5242 0.300049 22.5264C0.300049 22.5286 0.300049 22.5308 0.300049 22.5329C0.300049 22.5351 0.300049 22.5373 0.300049 22.5395C0.300049 22.5416 0.300049 22.5438 0.300049 22.546C0.300049 22.5482 0.300049 22.5503 0.300049 22.5525C0.300049 22.5547 0.300049 22.5569 0.300049 22.559C0.300049 22.5612 0.300049 22.5634 0.300049 22.5656C0.300049 22.5677 0.300049 22.5699 0.300049 22.5721C0.300049 22.5743 0.300049 22.5764 0.300049 22.5786C0.300049 22.5808 0.300049 22.583 0.300049 22.5852C0.300049 22.5873 0.300049 22.5895 0.300049 22.5917C0.300049 22.5939 0.300049 22.596 0.300049 22.5982C0.300049 22.6004 0.300049 22.6026 0.300049 22.6048C0.300049 22.6069 0.300049 22.6091 0.300049 22.6113C0.300049 22.6135 0.300049 22.6157 0.300049 22.6178C0.300049 22.62 0.300049 22.6222 0.300049 22.6244C0.300049 22.6266 0.300049 22.6287 0.300049 22.6309C0.300049 22.6331 0.300049 22.6353 0.300049 22.6375C0.300049 22.6396 0.300049 22.6418 0.300049 22.644C0.300049 22.6462 0.300049 22.6484 0.300049 22.6506C0.300049 22.6527 0.300049 22.6549 0.300049 22.6571C0.300049 22.6593 0.300049 22.6615 0.300049 22.6637C0.300049 22.6658 0.300049 22.668 0.300049 22.6702C0.300049 22.6724 0.300049 22.6746 0.300049 22.6768C0.300049 22.6789 0.300049 22.6811 0.300049 22.6833C0.300049 22.6855 0.300049 22.6877 0.300049 22.6899C0.300049 22.6921 0.300049 22.6942 0.300049 22.6964C0.300049 22.6986 0.300049 22.7008 0.300049 22.703C0.300049 22.7052 0.300049 22.7074 0.300049 22.7095C0.300049 22.7117 0.300049 22.7139 0.300049 22.7161C0.300049 22.7183 0.300049 22.7205 0.300049 22.7227C0.300049 22.7248 0.300049 22.727 0.300049 22.7292C0.300049 22.7314 0.300049 22.7336 0.300049 22.7358C0.300049 22.738 0.300049 22.7402 0.300049 22.7424C0.300049 22.7445 0.300049 22.7467 0.300049 22.7489C0.300049 22.7511 0.300049 22.7533 0.300049 22.7555C0.300049 22.7577 0.300049 22.7599 0.300049 22.7621C0.300049 22.7643 0.300049 22.7664 0.300049 22.7686C0.300049 22.7708 0.300049 22.773 0.300049 22.7752C0.300049 22.7774 0.300049 22.7796 0.300049 22.7818C0.300049 22.784 0.300049 22.7862 0.300049 22.7884C0.300049 22.7906 0.300049 22.7927 0.300049 22.7949C0.300049 22.7971 0.300049 22.7993 0.300049 22.8015C0.300049 22.8037 0.300049 22.8059 0.300049 22.8081C0.300049 22.8103 0.300049 22.8125 0.300049 22.8147C0.300049 22.8169 0.300049 22.8191 0.300049 22.8213C0.300049 22.8235 0.300049 22.8257 0.300049 22.8278C0.300049 22.83 0.300049 22.8322 0.300049 22.8344C0.300049 22.8366 0.300049 22.8388 0.300049 22.841C0.300049 22.8432 0.300049 22.8454 0.300049 22.8476C0.300049 22.8498 0.300049 22.852 0.300049 22.8542C0.300049 22.8564 0.300049 22.8586 0.300049 22.8608C0.300049 22.863 0.300049 22.8652 0.300049 22.8674C0.300049 22.8696 0.300049 22.8718 0.300049 22.874C0.300049 22.8762 0.300049 22.8784 0.300049 22.8806C0.300049 22.8828 0.300049 22.885 0.300049 22.8872C0.300049 22.8894 0.300049 22.8916 0.300049 22.8938C0.300049 22.896 0.300049 22.8982 0.300049 22.9004C0.300049 22.9026 0.300049 22.9048 0.300049 22.907C0.300049 22.9092 0.300049 22.9114 0.300049 22.9136C0.300049 22.9158 0.300049 22.918 0.300049 22.9202C0.300049 22.9224 0.300049 22.9246 0.300049 22.9268C0.300049 22.929 0.300049 22.9312 0.300049 22.9334C0.300049 22.9356 0.300049 22.9378 0.300049 22.94C0.300049 22.9422 0.300049 22.9444 0.300049 22.9466C0.300049 22.9488 0.300049 22.951 0.300049 22.9532C0.300049 22.9554 0.300049 22.9576 0.300049 22.9598C0.300049 22.962 0.300049 22.9642 0.300049 22.9664C0.300049 22.9686 0.300049 22.9708 0.300049 22.9731C0.300049 22.9753 0.300049 22.9775 0.300049 22.9797C0.300049 22.9819 0.300049 22.9841 0.300049 22.9863C0.300049 22.9885 0.300049 22.9907 0.300049 22.9929C0.300049 22.9951 0.300049 22.9973 0.300049 22.9995C0.300049 23.0017 0.300049 23.0039 0.300049 23.0061C0.300049 23.0084 0.300049 23.0106 0.300049 23.0128C0.300049 23.015 0.300049 23.0172 0.300049 23.0194C0.300049 23.0216 0.300049 23.0238 0.300049 23.026C0.300049 23.0282 0.300049 23.0304 0.300049 23.0326C0.300049 23.0349 0.300049 23.0371 0.300049 23.0393C0.300049 23.0415 0.300049 23.0437 0.300049 23.0459C0.300049 23.0481 0.300049 23.0503 0.300049 23.0525C0.300049 23.0547 0.300049 23.057 0.300049 23.0592C0.300049 23.0614 0.300049 23.0636 0.300049 23.0658C0.300049 23.068 0.300049 23.0702 0.300049 23.0724C0.300049 23.0746 0.300049 23.0769 0.300049 23.0791C0.300049 23.0813 0.300049 23.0835 0.300049 23.0857C0.300049 23.0879 0.300049 23.0901 0.300049 23.0923C0.300049 23.0946 0.300049 23.0968 0.300049 23.099C0.300049 23.1012 0.300049 23.1034 0.300049 23.1056C0.300049 23.1078 0.300049 23.11 0.300049 23.1123C0.300049 23.1145 0.300049 23.1167 0.300049 23.1189C0.300049 23.1211 0.300049 23.1233 0.300049 23.1256C0.300049 23.1278 0.300049 23.13 0.300049 23.1322C0.300049 23.1344 0.300049 23.1366 0.300049 23.1388C0.300049 23.1411 0.300049 23.1433 0.300049 23.1455C0.300049 23.1477 0.300049 23.1499 0.300049 23.1521C0.300049 23.1544 0.300049 23.1566 0.300049 23.1588C0.300049 23.161 0.300049 23.1632 0.300049 23.1654C0.300049 23.1677 0.300049 23.1699 0.300049 23.1721C0.300049 23.1743 0.300049 23.1765 0.300049 23.1788C0.300049 23.181 0.300049 23.1832 0.300049 23.1854H1.30005ZM5.60005 15.6906H12V14.6906H5.60005V15.6906ZM16.3 19.9898C16.3 19.9917 16.3 19.9936 16.3 19.9955C16.3 19.9975 16.3 19.9994 16.3 20.0013C16.3 20.0032 16.3 20.0051 16.3 20.007C16.3 20.0089 16.3 20.0108 16.3 20.0128C16.3 20.0147 16.3 20.0166 16.3 20.0185C16.3 20.0204 16.3 20.0223 16.3 20.0243C16.3 20.0262 16.3 20.0281 16.3 20.03C16.3 20.0319 16.3 20.0338 16.3 20.0358C16.3 20.0377 16.3 20.0396 16.3 20.0415C16.3 20.0434 16.3 20.0454 16.3 20.0473C16.3 20.0492 16.3 20.0511 16.3 20.053C16.3 20.0549 16.3 20.0569 16.3 20.0588C16.3 20.0607 16.3 20.0626 16.3 20.0646C16.3 20.0665 16.3 20.0684 16.3 20.0703C16.3 20.0722 16.3 20.0742 16.3 20.0761C16.3 20.078 16.3 20.0799 16.3 20.0819C16.3 20.0838 16.3 20.0857 16.3 20.0876C16.3 20.0896 16.3 20.0915 16.3 20.0934C16.3 20.0953 16.3 20.0973 16.3 20.0992C16.3 20.1011 16.3 20.103 16.3 20.105C16.3 20.1069 16.3 20.1088 16.3 20.1107C16.3 20.1127 16.3 20.1146 16.3 20.1165C16.3 20.1185 16.3 20.1204 16.3 20.1223C16.3 20.1242 16.3 20.1262 16.3 20.1281C16.3 20.13 16.3 20.132 16.3 20.1339C16.3 20.1358 16.3 20.1378 16.3 20.1397C16.3 20.1416 16.3 20.1436 16.3 20.1455C16.3 20.1474 16.3 20.1494 16.3 20.1513C16.3 20.1532 16.3 20.1552 16.3 20.1571C16.3 20.159 16.3 20.161 16.3 20.1629C16.3 20.1648 16.3 20.1668 16.3 20.1687C16.3 20.1706 16.3 20.1726 16.3 20.1745C16.3 20.1764 16.3 20.1784 16.3 20.1803C16.3 20.1822 16.3 20.1842 16.3 20.1861C16.3 20.1881 16.3 20.19 16.3 20.1919C16.3 20.1939 16.3 20.1958 16.3 20.1978C16.3 20.1997 16.3 20.2016 16.3 20.2036C16.3 20.2055 16.3 20.2075 16.3 20.2094C16.3 20.2113 16.3 20.2133 16.3 20.2152C16.3 20.2172 16.3 20.2191 16.3 20.221C16.3 20.223 16.3 20.2249 16.3 20.2269C16.3 20.2288 16.3 20.2308 16.3 20.2327C16.3 20.2346 16.3 20.2366 16.3 20.2385C16.3 20.2405 16.3 20.2424 16.3 20.2444C16.3 20.2463 16.3 20.2483 16.3 20.2502C16.3 20.2521 16.3 20.2541 16.3 20.256C16.3 20.258 16.3 20.2599 16.3 20.2619C16.3 20.2638 16.3 20.2658 16.3 20.2677C16.3 20.2697 16.3 20.2716 16.3 20.2736C16.3 20.2755 16.3 20.2775 16.3 20.2794C16.3 20.2814 16.3 20.2833 16.3 20.2853C16.3 20.2872 16.3 20.2892 16.3 20.2911C16.3 20.2931 16.3 20.295 16.3 20.297C16.3 20.2989 16.3 20.3009 16.3 20.3028C16.3 20.3048 16.3 20.3067 16.3 20.3087C16.3 20.3106 16.3 20.3126 16.3 20.3146C16.3 20.3165 16.3 20.3185 16.3 20.3204C16.3 20.3224 16.3 20.3243 16.3 20.3263C16.3 20.3282 16.3 20.3302 16.3 20.3322C16.3 20.3341 16.3 20.3361 16.3 20.338C16.3 20.34 16.3 20.3419 16.3 20.3439C16.3 20.3459 16.3 20.3478 16.3 20.3498C16.3 20.3517 16.3 20.3537 16.3 20.3556C16.3 20.3576 16.3 20.3596 16.3 20.3615C16.3 20.3635 16.3 20.3654 16.3 20.3674C16.3 20.3694 16.3 20.3713 16.3 20.3733C16.3 20.3752 16.3 20.3772 16.3 20.3792C16.3 20.3811 16.3 20.3831 16.3 20.3851C16.3 20.387 16.3 20.389 16.3 20.391C16.3 20.3929 16.3 20.3949 16.3 20.3968C16.3 20.3988 16.3 20.4008 16.3 20.4027C16.3 20.4047 16.3 20.4067 16.3 20.4086C16.3 20.4106 16.3 20.4126 16.3 20.4145C16.3 20.4165 16.3 20.4185 16.3 20.4204C16.3 20.4224 16.3 20.4244 16.3 20.4263C16.3 20.4283 16.3 20.4303 16.3 20.4322C16.3 20.4342 16.3 20.4362 16.3 20.4382C16.3 20.4401 16.3 20.4421 16.3 20.4441C16.3 20.446 16.3 20.448 16.3 20.45C16.3 20.4519 16.3 20.4539 16.3 20.4559C16.3 20.4579 16.3 20.4598 16.3 20.4618C16.3 20.4638 16.3 20.4657 16.3 20.4677C16.3 20.4697 16.3 20.4717 16.3 20.4736C16.3 20.4756 16.3 20.4776 16.3 20.4796C16.3 20.4815 16.3 20.4835 16.3 20.4855C16.3 20.4875 16.3 20.4894 16.3 20.4914C16.3 20.4934 16.3 20.4954 16.3 20.4973C16.3 20.4993 16.3 20.5013 16.3 20.5033C16.3 20.5053 16.3 20.5072 16.3 20.5092C16.3 20.5112 16.3 20.5132 16.3 20.5151C16.3 20.5171 16.3 20.5191 16.3 20.5211C16.3 20.5231 16.3 20.525 16.3 20.527C16.3 20.529 16.3 20.531 16.3 20.533C16.3 20.5349 16.3 20.5369 16.3 20.5389C16.3 20.5409 16.3 20.5429 16.3 20.5449C16.3 20.5468 16.3 20.5488 16.3 20.5508C16.3 20.5528 16.3 20.5548 16.3 20.5568C16.3 20.5587 16.3 20.5607 16.3 20.5627C16.3 20.5647 16.3 20.5667 16.3 20.5687C16.3 20.5706 16.3 20.5726 16.3 20.5746C16.3 20.5766 16.3 20.5786 16.3 20.5806C16.3 20.5826 16.3 20.5845 16.3 20.5865C16.3 20.5885 16.3 20.5905 16.3 20.5925C16.3 20.5945 16.3 20.5965 16.3 20.5985C16.3 20.6005 16.3 20.6024 16.3 20.6044C16.3 20.6064 16.3 20.6084 16.3 20.6104C16.3 20.6124 16.3 20.6144 16.3 20.6164C16.3 20.6184 16.3 20.6204 16.3 20.6223C16.3 20.6243 16.3 20.6263 16.3 20.6283C16.3 20.6303 16.3 20.6323 16.3 20.6343C16.3 20.6363 16.3 20.6383 16.3 20.6403C16.3 20.6423 16.3 20.6443 16.3 20.6463C16.3 20.6483 16.3 20.6503 16.3 20.6522C16.3 20.6542 16.3 20.6562 16.3 20.6582C16.3 20.6602 16.3 20.6622 16.3 20.6642C16.3 20.6662 16.3 20.6682 16.3 20.6702C16.3 20.6722 16.3 20.6742 16.3 20.6762C16.3 20.6782 16.3 20.6802 16.3 20.6822C16.3 20.6842 16.3 20.6862 16.3 20.6882C16.3 20.6902 16.3 20.6922 16.3 20.6942C16.3 20.6962 16.3 20.6982 16.3 20.7002C16.3 20.7022 16.3 20.7042 16.3 20.7062C16.3 20.7082 16.3 20.7102 16.3 20.7122C16.3 20.7142 16.3 20.7162 16.3 20.7182C16.3 20.7202 16.3 20.7222 16.3 20.7242C16.3 20.7262 16.3 20.7282 16.3 20.7302C16.3 20.7322 16.3 20.7342 16.3 20.7362C16.3 20.7383 16.3 20.7403 16.3 20.7423C16.3 20.7443 16.3 20.7463 16.3 20.7483C16.3 20.7503 16.3 20.7523 16.3 20.7543C16.3 20.7563 16.3 20.7583 16.3 20.7603C16.3 20.7623 16.3 20.7643 16.3 20.7663C16.3 20.7684 16.3 20.7704 16.3 20.7724C16.3 20.7744 16.3 20.7764 16.3 20.7784C16.3 20.7804 16.3 20.7824 16.3 20.7844C16.3 20.7864 16.3 20.7885 16.3 20.7905C16.3 20.7925 16.3 20.7945 16.3 20.7965C16.3 20.7985 16.3 20.8005 16.3 20.8025C16.3 20.8045 16.3 20.8066 16.3 20.8086C16.3 20.8106 16.3 20.8126 16.3 20.8146C16.3 20.8166 16.3 20.8186 16.3 20.8207C16.3 20.8227 16.3 20.8247 16.3 20.8267C16.3 20.8287 16.3 20.8307 16.3 20.8327C16.3 20.8348 16.3 20.8368 16.3 20.8388C16.3 20.8408 16.3 20.8428 16.3 20.8448C16.3 20.8469 16.3 20.8489 16.3 20.8509C16.3 20.8529 16.3 20.8549 16.3 20.857C16.3 20.859 16.3 20.861 16.3 20.863C16.3 20.865 16.3 20.867 16.3 20.8691C16.3 20.8711 16.3 20.8731 16.3 20.8751C16.3 20.8771 16.3 20.8792 16.3 20.8812C16.3 20.8832 16.3 20.8852 16.3 20.8873C16.3 20.8893 16.3 20.8913 16.3 20.8933C16.3 20.8953 16.3 20.8974 16.3 20.8994C16.3 20.9014 16.3 20.9034 16.3 20.9055C16.3 20.9075 16.3 20.9095 16.3 20.9115C16.3 20.9136 16.3 20.9156 16.3 20.9176C16.3 20.9196 16.3 20.9217 16.3 20.9237C16.3 20.9257 16.3 20.9277 16.3 20.9298C16.3 20.9318 16.3 20.9338 16.3 20.9358C16.3 20.9379 16.3 20.9399 16.3 20.9419C16.3 20.944 16.3 20.946 16.3 20.948C16.3 20.95 16.3 20.9521 16.3 20.9541C16.3 20.9561 16.3 20.9582 16.3 20.9602C16.3 20.9622 16.3 20.9642 16.3 20.9663C16.3 20.9683 16.3 20.9703 16.3 20.9724C16.3 20.9744 16.3 20.9764 16.3 20.9785C16.3 20.9805 16.3 20.9825 16.3 20.9846C16.3 20.9866 16.3 20.9886 16.3 20.9907C16.3 20.9927 16.3 20.9947 16.3 20.9968C16.3 20.9988 16.3 21.0008 16.3 21.0029C16.3 21.0049 16.3 21.0069 16.3 21.009C16.3 21.011 16.3 21.013 16.3 21.0151C16.3 21.0171 16.3 21.0191 16.3 21.0212C16.3 21.0232 16.3 21.0253 16.3 21.0273C16.3 21.0293 16.3 21.0314 16.3 21.0334C16.3 21.0354 16.3 21.0375 16.3 21.0395C16.3 21.0416 16.3 21.0436 16.3 21.0456C16.3 21.0477 16.3 21.0497 16.3 21.0518C16.3 21.0538 16.3 21.0558 16.3 21.0579C16.3 21.0599 16.3 21.062 16.3 21.064C16.3 21.066 16.3 21.0681 16.3 21.0701C16.3 21.0722 16.3 21.0742 16.3 21.0763C16.3 21.0783 16.3 21.0803 16.3 21.0824C16.3 21.0844 16.3 21.0865 16.3 21.0885C16.3 21.0906 16.3 21.0926 16.3 21.0946C16.3 21.0967 16.3 21.0987 16.3 21.1008C16.3 21.1028 16.3 21.1049 16.3 21.1069C16.3 21.109 16.3 21.111 16.3 21.113C16.3 21.1151 16.3 21.1171 16.3 21.1192C16.3 21.1212 16.3 21.1233 16.3 21.1253C16.3 21.1274 16.3 21.1294 16.3 21.1315C16.3 21.1335 16.3 21.1356 16.3 21.1376C16.3 21.1397 16.3 21.1417 16.3 21.1438C16.3 21.1458 16.3 21.1479 16.3 21.1499C16.3 21.152 16.3 21.154 16.3 21.1561C16.3 21.1581 16.3 21.1602 16.3 21.1622C16.3 21.1643 16.3 21.1663 16.3 21.1684C16.3 21.1704 16.3 21.1725 16.3 21.1745C16.3 21.1766 16.3 21.1786 16.3 21.1807C16.3 21.1827 16.3 21.1848 16.3 21.1869C16.3 21.1889 16.3 21.191 16.3 21.193C16.3 21.1951 16.3 21.1971 16.3 21.1992C16.3 21.2012 16.3 21.2033 16.3 21.2053C16.3 21.2074 16.3 21.2095 16.3 21.2115C16.3 21.2136 16.3 21.2156 16.3 21.2177C16.3 21.2197 16.3 21.2218 16.3 21.2239C16.3 21.2259 16.3 21.228 16.3 21.23C16.3 21.2321 16.3 21.2342 16.3 21.2362C16.3 21.2383 16.3 21.2403 16.3 21.2424C16.3 21.2445 16.3 21.2465 16.3 21.2486C16.3 21.2506 16.3 21.2527 16.3 21.2548C16.3 21.2568 16.3 21.2589 16.3 21.2609C16.3 21.263 16.3 21.2651 16.3 21.2671C16.3 21.2692 16.3 21.2712 16.3 21.2733C16.3 21.2754 16.3 21.2774 16.3 21.2795C16.3 21.2816 16.3 21.2836 16.3 21.2857C16.3 21.2878 16.3 21.2898 16.3 21.2919C16.3 21.2939 16.3 21.296 16.3 21.2981C16.3 21.3001 16.3 21.3022 16.3 21.3043C16.3 21.3063 16.3 21.3084 16.3 21.3105C16.3 21.3125 16.3 21.3146 16.3 21.3167C16.3 21.3187 16.3 21.3208 16.3 21.3229C16.3 21.3249 16.3 21.327 16.3 21.3291C16.3 21.3312 16.3 21.3332 16.3 21.3353C16.3 21.3374 16.3 21.3394 16.3 21.3415C16.3 21.3436 16.3 21.3456 16.3 21.3477C16.3 21.3498 16.3 21.3519 16.3 21.3539C16.3 21.356 16.3 21.3581 16.3 21.3601C16.3 21.3622 16.3 21.3643 16.3 21.3664C16.3 21.3684 16.3 21.3705 16.3 21.3726C16.3 21.3746 16.3 21.3767 16.3 21.3788C16.3 21.3809 16.3 21.3829 16.3 21.385C16.3 21.3871 16.3 21.3892 16.3 21.3912C16.3 21.3933 16.3 21.3954 16.3 21.3975C16.3 21.3995 16.3 21.4016 16.3 21.4037C16.3 21.4058 16.3 21.4078 16.3 21.4099C16.3 21.412 16.3 21.4141 16.3 21.4161C16.3 21.4182 16.3 21.4203 16.3 21.4224C16.3 21.4245 16.3 21.4265 16.3 21.4286C16.3 21.4307 16.3 21.4328 16.3 21.4348C16.3 21.4369 16.3 21.439 16.3 21.4411C16.3 21.4432 16.3 21.4452 16.3 21.4473C16.3 21.4494 16.3 21.4515 16.3 21.4536C16.3 21.4556 16.3 21.4577 16.3 21.4598C16.3 21.4619 16.3 21.464 16.3 21.4661C16.3 21.4681 16.3 21.4702 16.3 21.4723C16.3 21.4744 16.3 21.4765 16.3 21.4786C16.3 21.4806 16.3 21.4827 16.3 21.4848C16.3 21.4869 16.3 21.489 16.3 21.4911C16.3 21.4931 16.3 21.4952 16.3 21.4973C16.3 21.4994 16.3 21.5015 16.3 21.5036C16.3 21.5057 16.3 21.5077 16.3 21.5098C16.3 21.5119 16.3 21.514 16.3 21.5161C16.3 21.5182 16.3 21.5203 16.3 21.5223C16.3 21.5244 16.3 21.5265 16.3 21.5286C16.3 21.5307 16.3 21.5328 16.3 21.5349C16.3 21.537 16.3 21.5391 16.3 21.5411C16.3 21.5432 16.3 21.5453 16.3 21.5474C16.3 21.5495 16.3 21.5516 16.3 21.5537C16.3 21.5558 16.3 21.5579 16.3 21.56C16.3 21.562 16.3 21.5641 16.3 21.5662C16.3 21.5683 16.3 21.5704 16.3 21.5725C16.3 21.5746 16.3 21.5767 16.3 21.5788C16.3 21.5809 16.3 21.583 16.3 21.5851C16.3 21.5872 16.3 21.5892 16.3 21.5913C16.3 21.5934 16.3 21.5955 16.3 21.5976C16.3 21.5997 16.3 21.6018 16.3 21.6039C16.3 21.606 16.3 21.6081 16.3 21.6102C16.3 21.6123 16.3 21.6144 16.3 21.6165C16.3 21.6186 16.3 21.6207 16.3 21.6228C16.3 21.6249 16.3 21.627 16.3 21.6291C16.3 21.6312 16.3 21.6333 16.3 21.6354C16.3 21.6375 16.3 21.6396 16.3 21.6417C16.3 21.6438 16.3 21.6459 16.3 21.648C16.3 21.6501 16.3 21.6522 16.3 21.6543C16.3 21.6564 16.3 21.6585 16.3 21.6606C16.3 21.6627 16.3 21.6648 16.3 21.6669C16.3 21.669 16.3 21.6711 16.3 21.6732C16.3 21.6753 16.3 21.6774 16.3 21.6795C16.3 21.6816 16.3 21.6837 16.3 21.6858C16.3 21.6879 16.3 21.69 16.3 21.6921C16.3 21.6942 16.3 21.6963 16.3 21.6984C16.3 21.7005 16.3 21.7026 16.3 21.7047C16.3 21.7068 16.3 21.7089 16.3 21.711C16.3 21.7131 16.3 21.7152 16.3 21.7173C16.3 21.7194 16.3 21.7215 16.3 21.7237C16.3 21.7258 16.3 21.7279 16.3 21.73C16.3 21.7321 16.3 21.7342 16.3 21.7363C16.3 21.7384 16.3 21.7405 16.3 21.7426C16.3 21.7447 16.3 21.7468 16.3 21.7489C16.3 21.7511 16.3 21.7532 16.3 21.7553C16.3 21.7574 16.3 21.7595 16.3 21.7616C16.3 21.7637 16.3 21.7658 16.3 21.7679C16.3 21.77 16.3 21.7722 16.3 21.7743C16.3 21.7764 16.3 21.7785 16.3 21.7806C16.3 21.7827 16.3 21.7848 16.3 21.7869C16.3 21.789 16.3 21.7912 16.3 21.7933C16.3 21.7954 16.3 21.7975 16.3 21.7996C16.3 21.8017 16.3 21.8038 16.3 21.8059C16.3 21.8081 16.3 21.8102 16.3 21.8123C16.3 21.8144 16.3 21.8165 16.3 21.8186C16.3 21.8207 16.3 21.8229 16.3 21.825C16.3 21.8271 16.3 21.8292 16.3 21.8313C16.3 21.8334 16.3 21.8356 16.3 21.8377C16.3 21.8398 16.3 21.8419 16.3 21.844C16.3 21.8461 16.3 21.8483 16.3 21.8504C16.3 21.8525 16.3 21.8546 16.3 21.8567C16.3 21.8589 16.3 21.861 16.3 21.8631C16.3 21.8652 16.3 21.8673 16.3 21.8694C16.3 21.8716 16.3 21.8737 16.3 21.8758C16.3 21.8779 16.3 21.88 16.3 21.8822C16.3 21.8843 16.3 21.8864 16.3 21.8885C16.3 21.8907 16.3 21.8928 16.3 21.8949C16.3 21.897 16.3 21.8991 16.3 21.9013C16.3 21.9034 16.3 21.9055 16.3 21.9076C16.3 21.9098 16.3 21.9119 16.3 21.914C16.3 21.9161 16.3 21.9182 16.3 21.9204C16.3 21.9225 16.3 21.9246 16.3 21.9267C16.3 21.9289 16.3 21.931 16.3 21.9331C16.3 21.9352 16.3 21.9374 16.3 21.9395C16.3 21.9416 16.3 21.9437 16.3 21.9459C16.3 21.948 16.3 21.9501 16.3 21.9522C16.3 21.9544 16.3 21.9565 16.3 21.9586C16.3 21.9608 16.3 21.9629 16.3 21.965C16.3 21.9671 16.3 21.9693 16.3 21.9714C16.3 21.9735 16.3 21.9757 16.3 21.9778C16.3 21.9799 16.3 21.982 16.3 21.9842C16.3 21.9863 16.3 21.9884 16.3 21.9906C16.3 21.9927 16.3 21.9948 16.3 21.997C16.3 21.9991 16.3 22.0012 16.3 22.0033C16.3 22.0055 16.3 22.0076 16.3 22.0097C16.3 22.0119 16.3 22.014 16.3 22.0161C16.3 22.0183 16.3 22.0204 16.3 22.0225C16.3 22.0247 16.3 22.0268 16.3 22.0289C16.3 22.0311 16.3 22.0332 16.3 22.0353C16.3 22.0375 16.3 22.0396 16.3 22.0417C16.3 22.0439 16.3 22.046 16.3 22.0481C16.3 22.0503 16.3 22.0524 16.3 22.0545C16.3 22.0567 16.3 22.0588 16.3 22.061C16.3 22.0631 16.3 22.0652 16.3 22.0674C16.3 22.0695 16.3 22.0716 16.3 22.0738C16.3 22.0759 16.3 22.078 16.3 22.0802C16.3 22.0823 16.3 22.0845 16.3 22.0866C16.3 22.0887 16.3 22.0909 16.3 22.093C16.3 22.0952 16.3 22.0973 16.3 22.0994C16.3 22.1016 16.3 22.1037 16.3 22.1058C16.3 22.108 16.3 22.1101 16.3 22.1123C16.3 22.1144 16.3 22.1165 16.3 22.1187C16.3 22.1208 16.3 22.123 16.3 22.1251C16.3 22.1273 16.3 22.1294 16.3 22.1315C16.3 22.1337 16.3 22.1358 16.3 22.138C16.3 22.1401 16.3 22.1423 16.3 22.1444C16.3 22.1465 16.3 22.1487 16.3 22.1508C16.3 22.153 16.3 22.1551 16.3 22.1573C16.3 22.1594 16.3 22.1615 16.3 22.1637C16.3 22.1658 16.3 22.168 16.3 22.1701C16.3 22.1723 16.3 22.1744 16.3 22.1766C16.3 22.1787 16.3 22.1809 16.3 22.183C16.3 22.1851 16.3 22.1873 16.3 22.1894C16.3 22.1916 16.3 22.1937 16.3 22.1959C16.3 22.198 16.3 22.2002 16.3 22.2023C16.3 22.2045 16.3 22.2066 16.3 22.2088C16.3 22.2109 16.3 22.2131 16.3 22.2152C16.3 22.2174 16.3 22.2195 16.3 22.2217C16.3 22.2238 16.3 22.226 16.3 22.2281C16.3 22.2303 16.3 22.2324 16.3 22.2346C16.3 22.2367 16.3 22.2389 16.3 22.241C16.3 22.2432 16.3 22.2453 16.3 22.2475C16.3 22.2496 16.3 22.2518 16.3 22.2539C16.3 22.2561 16.3 22.2582 16.3 22.2604C16.3 22.2625 16.3 22.2647 16.3 22.2668C16.3 22.269 16.3 22.2711 16.3 22.2733C16.3 22.2754 16.3 22.2776 16.3 22.2798C16.3 22.2819 16.3 22.2841 16.3 22.2862C16.3 22.2884 16.3 22.2905 16.3 22.2927C16.3 22.2948 16.3 22.297 16.3 22.2991C16.3 22.3013 16.3 22.3035 16.3 22.3056C16.3 22.3078 16.3 22.3099 16.3 22.3121C16.3 22.3142 16.3 22.3164 16.3 22.3186C16.3 22.3207 16.3 22.3229 16.3 22.325C16.3 22.3272 16.3 22.3293 16.3 22.3315C16.3 22.3337 16.3 22.3358 16.3 22.338C16.3 22.3401 16.3 22.3423 16.3 22.3445C16.3 22.3466 16.3 22.3488 16.3 22.3509C16.3 22.3531 16.3 22.3552 16.3 22.3574C16.3 22.3596 16.3 22.3617 16.3 22.3639C16.3 22.3661 16.3 22.3682 16.3 22.3704C16.3 22.3725 16.3 22.3747 16.3 22.3769C16.3 22.379 16.3 22.3812 16.3 22.3833C16.3 22.3855 16.3 22.3877 16.3 22.3898C16.3 22.392 16.3 22.3942 16.3 22.3963C16.3 22.3985 16.3 22.4006 16.3 22.4028C16.3 22.405 16.3 22.4071 16.3 22.4093C16.3 22.4115 16.3 22.4136 16.3 22.4158C16.3 22.418 16.3 22.4201 16.3 22.4223C16.3 22.4245 16.3 22.4266 16.3 22.4288C16.3 22.431 16.3 22.4331 16.3 22.4353C16.3 22.4375 16.3 22.4396 16.3 22.4418C16.3 22.444 16.3 22.4461 16.3 22.4483C16.3 22.4505 16.3 22.4526 16.3 22.4548C16.3 22.457 16.3 22.4591 16.3 22.4613C16.3 22.4635 16.3 22.4656 16.3 22.4678C16.3 22.47 16.3 22.4721 16.3 22.4743C16.3 22.4765 16.3 22.4786 16.3 22.4808C16.3 22.483 16.3 22.4852 16.3 22.4873C16.3 22.4895 16.3 22.4917 16.3 22.4938C16.3 22.496 16.3 22.4982 16.3 22.5004C16.3 22.5025 16.3 22.5047 16.3 22.5069C16.3 22.509 16.3 22.5112 16.3 22.5134C16.3 22.5156 16.3 22.5177 16.3 22.5199C16.3 22.5221 16.3 22.5242 16.3 22.5264C16.3 22.5286 16.3 22.5308 16.3 22.5329C16.3 22.5351 16.3 22.5373 16.3 22.5395C16.3 22.5416 16.3 22.5438 16.3 22.546C16.3 22.5482 16.3 22.5503 16.3 22.5525C16.3 22.5547 16.3 22.5569 16.3 22.559C16.3 22.5612 16.3 22.5634 16.3 22.5656C16.3 22.5677 16.3 22.5699 16.3 22.5721C16.3 22.5743 16.3 22.5764 16.3 22.5786C16.3 22.5808 16.3 22.583 16.3 22.5852C16.3 22.5873 16.3 22.5895 16.3 22.5917C16.3 22.5939 16.3 22.596 16.3 22.5982C16.3 22.6004 16.3 22.6026 16.3 22.6048C16.3 22.6069 16.3 22.6091 16.3 22.6113C16.3 22.6135 16.3 22.6157 16.3 22.6178C16.3 22.62 16.3 22.6222 16.3 22.6244C16.3 22.6266 16.3 22.6287 16.3 22.6309C16.3 22.6331 16.3 22.6353 16.3 22.6375C16.3 22.6396 16.3 22.6418 16.3 22.644C16.3 22.6462 16.3 22.6484 16.3 22.6506C16.3 22.6527 16.3 22.6549 16.3 22.6571C16.3 22.6593 16.3 22.6615 16.3 22.6637C16.3 22.6658 16.3 22.668 16.3 22.6702C16.3 22.6724 16.3 22.6746 16.3 22.6768C16.3 22.6789 16.3 22.6811 16.3 22.6833C16.3 22.6855 16.3 22.6877 16.3 22.6899C16.3 22.6921 16.3 22.6942 16.3 22.6964C16.3 22.6986 16.3 22.7008 16.3 22.703C16.3 22.7052 16.3 22.7074 16.3 22.7095C16.3 22.7117 16.3 22.7139 16.3 22.7161C16.3 22.7183 16.3 22.7205 16.3 22.7227C16.3 22.7248 16.3 22.727 16.3 22.7292C16.3 22.7314 16.3 22.7336 16.3 22.7358C16.3 22.738 16.3 22.7402 16.3 22.7424C16.3 22.7445 16.3 22.7467 16.3 22.7489C16.3 22.7511 16.3 22.7533 16.3 22.7555C16.3 22.7577 16.3 22.7599 16.3 22.7621C16.3 22.7643 16.3 22.7664 16.3 22.7686C16.3 22.7708 16.3 22.773 16.3 22.7752C16.3 22.7774 16.3 22.7796 16.3 22.7818C16.3 22.784 16.3 22.7862 16.3 22.7884C16.3 22.7906 16.3 22.7927 16.3 22.7949C16.3 22.7971 16.3 22.7993 16.3 22.8015C16.3 22.8037 16.3 22.8059 16.3 22.8081C16.3 22.8103 16.3 22.8125 16.3 22.8147C16.3 22.8169 16.3 22.8191 16.3 22.8213C16.3 22.8235 16.3 22.8257 16.3 22.8278C16.3 22.83 16.3 22.8322 16.3 22.8344C16.3 22.8366 16.3 22.8388 16.3 22.841C16.3 22.8432 16.3 22.8454 16.3 22.8476C16.3 22.8498 16.3 22.852 16.3 22.8542C16.3 22.8564 16.3 22.8586 16.3 22.8608C16.3 22.863 16.3 22.8652 16.3 22.8674C16.3 22.8696 16.3 22.8718 16.3 22.874C16.3 22.8762 16.3 22.8784 16.3 22.8806C16.3 22.8828 16.3 22.885 16.3 22.8872C16.3 22.8894 16.3 22.8916 16.3 22.8938C16.3 22.896 16.3 22.8982 16.3 22.9004C16.3 22.9026 16.3 22.9048 16.3 22.907C16.3 22.9092 16.3 22.9114 16.3 22.9136C16.3 22.9158 16.3 22.918 16.3 22.9202C16.3 22.9224 16.3 22.9246 16.3 22.9268C16.3 22.929 16.3 22.9312 16.3 22.9334C16.3 22.9356 16.3 22.9378 16.3 22.94C16.3 22.9422 16.3 22.9444 16.3 22.9466C16.3 22.9488 16.3 22.951 16.3 22.9532C16.3 22.9554 16.3 22.9576 16.3 22.9598C16.3 22.962 16.3 22.9642 16.3 22.9664C16.3 22.9686 16.3 22.9708 16.3 22.9731C16.3 22.9753 16.3 22.9775 16.3 22.9797C16.3 22.9819 16.3 22.9841 16.3 22.9863C16.3 22.9885 16.3 22.9907 16.3 22.9929C16.3 22.9951 16.3 22.9973 16.3 22.9995C16.3 23.0017 16.3 23.0039 16.3 23.0061C16.3 23.0084 16.3 23.0106 16.3 23.0128C16.3 23.015 16.3 23.0172 16.3 23.0194C16.3 23.0216 16.3 23.0238 16.3 23.026C16.3 23.0282 16.3 23.0304 16.3 23.0326C16.3 23.0349 16.3 23.0371 16.3 23.0393C16.3 23.0415 16.3 23.0437 16.3 23.0459C16.3 23.0481 16.3 23.0503 16.3 23.0525C16.3 23.0547 16.3 23.057 16.3 23.0592C16.3 23.0614 16.3 23.0636 16.3 23.0658C16.3 23.068 16.3 23.0702 16.3 23.0724C16.3 23.0746 16.3 23.0769 16.3 23.0791C16.3 23.0813 16.3 23.0835 16.3 23.0857C16.3 23.0879 16.3 23.0901 16.3 23.0923C16.3 23.0946 16.3 23.0968 16.3 23.099C16.3 23.1012 16.3 23.1034 16.3 23.1056C16.3 23.1078 16.3 23.11 16.3 23.1123C16.3 23.1145 16.3 23.1167 16.3 23.1189C16.3 23.1211 16.3 23.1233 16.3 23.1256C16.3 23.1278 16.3 23.13 16.3 23.1322C16.3 23.1344 16.3 23.1366 16.3 23.1388C16.3 23.1411 16.3 23.1433 16.3 23.1455C16.3 23.1477 16.3 23.1499 16.3 23.1521C16.3 23.1544 16.3 23.1566 16.3 23.1588C16.3 23.161 16.3 23.1632 16.3 23.1654C16.3 23.1677 16.3 23.1699 16.3 23.1721C16.3 23.1743 16.3 23.1765 16.3 23.1788C16.3 23.181 16.3 23.1832 16.3 23.1854H17.3C17.3 23.1832 17.3 23.181 17.3 23.1788C17.3 23.1765 17.3 23.1743 17.3 23.1721C17.3 23.1699 17.3 23.1677 17.3 23.1654C17.3 23.1632 17.3 23.161 17.3 23.1588C17.3 23.1566 17.3 23.1544 17.3 23.1521C17.3 23.1499 17.3 23.1477 17.3 23.1455C17.3 23.1433 17.3 23.1411 17.3 23.1388C17.3 23.1366 17.3 23.1344 17.3 23.1322C17.3 23.13 17.3 23.1278 17.3 23.1256C17.3 23.1233 17.3 23.1211 17.3 23.1189C17.3 23.1167 17.3 23.1145 17.3 23.1123C17.3 23.11 17.3 23.1078 17.3 23.1056C17.3 23.1034 17.3 23.1012 17.3 23.099C17.3 23.0968 17.3 23.0946 17.3 23.0923C17.3 23.0901 17.3 23.0879 17.3 23.0857C17.3 23.0835 17.3 23.0813 17.3 23.0791C17.3 23.0769 17.3 23.0746 17.3 23.0724C17.3 23.0702 17.3 23.068 17.3 23.0658C17.3 23.0636 17.3 23.0614 17.3 23.0592C17.3 23.057 17.3 23.0547 17.3 23.0525C17.3 23.0503 17.3 23.0481 17.3 23.0459C17.3 23.0437 17.3 23.0415 17.3 23.0393C17.3 23.0371 17.3 23.0349 17.3 23.0326C17.3 23.0304 17.3 23.0282 17.3 23.026C17.3 23.0238 17.3 23.0216 17.3 23.0194C17.3 23.0172 17.3 23.015 17.3 23.0128C17.3 23.0106 17.3 23.0084 17.3 23.0061C17.3 23.0039 17.3 23.0017 17.3 22.9995C17.3 22.9973 17.3 22.9951 17.3 22.9929C17.3 22.9907 17.3 22.9885 17.3 22.9863C17.3 22.9841 17.3 22.9819 17.3 22.9797C17.3 22.9775 17.3 22.9753 17.3 22.9731C17.3 22.9708 17.3 22.9686 17.3 22.9664C17.3 22.9642 17.3 22.962 17.3 22.9598C17.3 22.9576 17.3 22.9554 17.3 22.9532C17.3 22.951 17.3 22.9488 17.3 22.9466C17.3 22.9444 17.3 22.9422 17.3 22.94C17.3 22.9378 17.3 22.9356 17.3 22.9334C17.3 22.9312 17.3 22.929 17.3 22.9268C17.3 22.9246 17.3 22.9224 17.3 22.9202C17.3 22.918 17.3 22.9158 17.3 22.9136C17.3 22.9114 17.3 22.9092 17.3 22.907C17.3 22.9048 17.3 22.9026 17.3 22.9004C17.3 22.8982 17.3 22.896 17.3 22.8938C17.3 22.8916 17.3 22.8894 17.3 22.8872C17.3 22.885 17.3 22.8828 17.3 22.8806C17.3 22.8784 17.3 22.8762 17.3 22.874C17.3 22.8718 17.3 22.8696 17.3 22.8674C17.3 22.8652 17.3 22.863 17.3 22.8608C17.3 22.8586 17.3 22.8564 17.3 22.8542C17.3 22.852 17.3 22.8498 17.3 22.8476C17.3 22.8454 17.3 22.8432 17.3 22.841C17.3 22.8388 17.3 22.8366 17.3 22.8344C17.3 22.8322 17.3 22.83 17.3 22.8278C17.3 22.8257 17.3 22.8235 17.3 22.8213C17.3 22.8191 17.3 22.8169 17.3 22.8147C17.3 22.8125 17.3 22.8103 17.3 22.8081C17.3 22.8059 17.3 22.8037 17.3 22.8015C17.3 22.7993 17.3 22.7971 17.3 22.7949C17.3 22.7927 17.3 22.7906 17.3 22.7884C17.3 22.7862 17.3 22.784 17.3 22.7818C17.3 22.7796 17.3 22.7774 17.3 22.7752C17.3 22.773 17.3 22.7708 17.3 22.7686C17.3 22.7664 17.3 22.7643 17.3 22.7621C17.3 22.7599 17.3 22.7577 17.3 22.7555C17.3 22.7533 17.3 22.7511 17.3 22.7489C17.3 22.7467 17.3 22.7445 17.3 22.7424C17.3 22.7402 17.3 22.738 17.3 22.7358C17.3 22.7336 17.3 22.7314 17.3 22.7292C17.3 22.727 17.3 22.7248 17.3 22.7227C17.3 22.7205 17.3 22.7183 17.3 22.7161C17.3 22.7139 17.3 22.7117 17.3 22.7095C17.3 22.7074 17.3 22.7052 17.3 22.703C17.3 22.7008 17.3 22.6986 17.3 22.6964C17.3 22.6942 17.3 22.6921 17.3 22.6899C17.3 22.6877 17.3 22.6855 17.3 22.6833C17.3 22.6811 17.3 22.6789 17.3 22.6768C17.3 22.6746 17.3 22.6724 17.3 22.6702C17.3 22.668 17.3 22.6658 17.3 22.6637C17.3 22.6615 17.3 22.6593 17.3 22.6571C17.3 22.6549 17.3 22.6527 17.3 22.6506C17.3 22.6484 17.3 22.6462 17.3 22.644C17.3 22.6418 17.3 22.6396 17.3 22.6375C17.3 22.6353 17.3 22.6331 17.3 22.6309C17.3 22.6287 17.3 22.6266 17.3 22.6244C17.3 22.6222 17.3 22.62 17.3 22.6178C17.3 22.6157 17.3 22.6135 17.3 22.6113C17.3 22.6091 17.3 22.6069 17.3 22.6048C17.3 22.6026 17.3 22.6004 17.3 22.5982C17.3 22.596 17.3 22.5939 17.3 22.5917C17.3 22.5895 17.3 22.5873 17.3 22.5852C17.3 22.583 17.3 22.5808 17.3 22.5786C17.3 22.5764 17.3 22.5743 17.3 22.5721C17.3 22.5699 17.3 22.5677 17.3 22.5656C17.3 22.5634 17.3 22.5612 17.3 22.559C17.3 22.5569 17.3 22.5547 17.3 22.5525C17.3 22.5503 17.3 22.5482 17.3 22.546C17.3 22.5438 17.3 22.5416 17.3 22.5395C17.3 22.5373 17.3 22.5351 17.3 22.5329C17.3 22.5308 17.3 22.5286 17.3 22.5264C17.3 22.5242 17.3 22.5221 17.3 22.5199C17.3 22.5177 17.3 22.5156 17.3 22.5134C17.3 22.5112 17.3 22.509 17.3 22.5069C17.3 22.5047 17.3 22.5025 17.3 22.5004C17.3 22.4982 17.3 22.496 17.3 22.4938C17.3 22.4917 17.3 22.4895 17.3 22.4873C17.3 22.4852 17.3 22.483 17.3 22.4808C17.3 22.4786 17.3 22.4765 17.3 22.4743C17.3 22.4721 17.3 22.47 17.3 22.4678C17.3 22.4656 17.3 22.4635 17.3 22.4613C17.3 22.4591 17.3 22.457 17.3 22.4548C17.3 22.4526 17.3 22.4505 17.3 22.4483C17.3 22.4461 17.3 22.444 17.3 22.4418C17.3 22.4396 17.3 22.4375 17.3 22.4353C17.3 22.4331 17.3 22.431 17.3 22.4288C17.3 22.4266 17.3 22.4245 17.3 22.4223C17.3 22.4201 17.3 22.418 17.3 22.4158C17.3 22.4136 17.3 22.4115 17.3 22.4093C17.3 22.4071 17.3 22.405 17.3 22.4028C17.3 22.4006 17.3 22.3985 17.3 22.3963C17.3 22.3942 17.3 22.392 17.3 22.3898C17.3 22.3877 17.3 22.3855 17.3 22.3833C17.3 22.3812 17.3 22.379 17.3 22.3769C17.3 22.3747 17.3 22.3725 17.3 22.3704C17.3 22.3682 17.3 22.3661 17.3 22.3639C17.3 22.3617 17.3 22.3596 17.3 22.3574C17.3 22.3552 17.3 22.3531 17.3 22.3509C17.3 22.3488 17.3 22.3466 17.3 22.3445C17.3 22.3423 17.3 22.3401 17.3 22.338C17.3 22.3358 17.3 22.3337 17.3 22.3315C17.3 22.3293 17.3 22.3272 17.3 22.325C17.3 22.3229 17.3 22.3207 17.3 22.3186C17.3 22.3164 17.3 22.3142 17.3 22.3121C17.3 22.3099 17.3 22.3078 17.3 22.3056C17.3 22.3035 17.3 22.3013 17.3 22.2991C17.3 22.297 17.3 22.2948 17.3 22.2927C17.3 22.2905 17.3 22.2884 17.3 22.2862C17.3 22.2841 17.3 22.2819 17.3 22.2798C17.3 22.2776 17.3 22.2754 17.3 22.2733C17.3 22.2711 17.3 22.269 17.3 22.2668C17.3 22.2647 17.3 22.2625 17.3 22.2604C17.3 22.2582 17.3 22.2561 17.3 22.2539C17.3 22.2518 17.3 22.2496 17.3 22.2475C17.3 22.2453 17.3 22.2432 17.3 22.241C17.3 22.2389 17.3 22.2367 17.3 22.2346C17.3 22.2324 17.3 22.2303 17.3 22.2281C17.3 22.226 17.3 22.2238 17.3 22.2217C17.3 22.2195 17.3 22.2174 17.3 22.2152C17.3 22.2131 17.3 22.2109 17.3 22.2088C17.3 22.2066 17.3 22.2045 17.3 22.2023C17.3 22.2002 17.3 22.198 17.3 22.1959C17.3 22.1937 17.3 22.1916 17.3 22.1894C17.3 22.1873 17.3 22.1851 17.3 22.183C17.3 22.1809 17.3 22.1787 17.3 22.1766C17.3 22.1744 17.3 22.1723 17.3 22.1701C17.3 22.168 17.3 22.1658 17.3 22.1637C17.3 22.1615 17.3 22.1594 17.3 22.1573C17.3 22.1551 17.3 22.153 17.3 22.1508C17.3 22.1487 17.3 22.1465 17.3 22.1444C17.3 22.1423 17.3 22.1401 17.3 22.138C17.3 22.1358 17.3 22.1337 17.3 22.1315C17.3 22.1294 17.3 22.1273 17.3 22.1251C17.3 22.123 17.3 22.1208 17.3 22.1187C17.3 22.1165 17.3 22.1144 17.3 22.1123C17.3 22.1101 17.3 22.108 17.3 22.1058C17.3 22.1037 17.3 22.1016 17.3 22.0994C17.3 22.0973 17.3 22.0952 17.3 22.093C17.3 22.0909 17.3 22.0887 17.3 22.0866C17.3 22.0845 17.3 22.0823 17.3 22.0802C17.3 22.078 17.3 22.0759 17.3 22.0738C17.3 22.0716 17.3 22.0695 17.3 22.0674C17.3 22.0652 17.3 22.0631 17.3 22.061C17.3 22.0588 17.3 22.0567 17.3 22.0545C17.3 22.0524 17.3 22.0503 17.3 22.0481C17.3 22.046 17.3 22.0439 17.3 22.0417C17.3 22.0396 17.3 22.0375 17.3 22.0353C17.3 22.0332 17.3 22.0311 17.3 22.0289C17.3 22.0268 17.3 22.0247 17.3 22.0225C17.3 22.0204 17.3 22.0183 17.3 22.0161C17.3 22.014 17.3 22.0119 17.3 22.0097C17.3 22.0076 17.3 22.0055 17.3 22.0033C17.3 22.0012 17.3 21.9991 17.3 21.997C17.3 21.9948 17.3 21.9927 17.3 21.9906C17.3 21.9884 17.3 21.9863 17.3 21.9842C17.3 21.982 17.3 21.9799 17.3 21.9778C17.3 21.9757 17.3 21.9735 17.3 21.9714C17.3 21.9693 17.3 21.9671 17.3 21.965C17.3 21.9629 17.3 21.9608 17.3 21.9586C17.3 21.9565 17.3 21.9544 17.3 21.9522C17.3 21.9501 17.3 21.948 17.3 21.9459C17.3 21.9437 17.3 21.9416 17.3 21.9395C17.3 21.9374 17.3 21.9352 17.3 21.9331C17.3 21.931 17.3 21.9289 17.3 21.9267C17.3 21.9246 17.3 21.9225 17.3 21.9204C17.3 21.9182 17.3 21.9161 17.3 21.914C17.3 21.9119 17.3 21.9098 17.3 21.9076C17.3 21.9055 17.3 21.9034 17.3 21.9013C17.3 21.8991 17.3 21.897 17.3 21.8949C17.3 21.8928 17.3 21.8907 17.3 21.8885C17.3 21.8864 17.3 21.8843 17.3 21.8822C17.3 21.88 17.3 21.8779 17.3 21.8758C17.3 21.8737 17.3 21.8716 17.3 21.8694C17.3 21.8673 17.3 21.8652 17.3 21.8631C17.3 21.861 17.3 21.8589 17.3 21.8567C17.3 21.8546 17.3 21.8525 17.3 21.8504C17.3 21.8483 17.3 21.8461 17.3 21.844C17.3 21.8419 17.3 21.8398 17.3 21.8377C17.3 21.8356 17.3 21.8334 17.3 21.8313C17.3 21.8292 17.3 21.8271 17.3 21.825C17.3 21.8229 17.3 21.8207 17.3 21.8186C17.3 21.8165 17.3 21.8144 17.3 21.8123C17.3 21.8102 17.3 21.8081 17.3 21.8059C17.3 21.8038 17.3 21.8017 17.3 21.7996C17.3 21.7975 17.3 21.7954 17.3 21.7933C17.3 21.7912 17.3 21.789 17.3 21.7869C17.3 21.7848 17.3 21.7827 17.3 21.7806C17.3 21.7785 17.3 21.7764 17.3 21.7743C17.3 21.7722 17.3 21.77 17.3 21.7679C17.3 21.7658 17.3 21.7637 17.3 21.7616C17.3 21.7595 17.3 21.7574 17.3 21.7553C17.3 21.7532 17.3 21.7511 17.3 21.7489C17.3 21.7468 17.3 21.7447 17.3 21.7426C17.3 21.7405 17.3 21.7384 17.3 21.7363C17.3 21.7342 17.3 21.7321 17.3 21.73C17.3 21.7279 17.3 21.7258 17.3 21.7237C17.3 21.7215 17.3 21.7194 17.3 21.7173C17.3 21.7152 17.3 21.7131 17.3 21.711C17.3 21.7089 17.3 21.7068 17.3 21.7047C17.3 21.7026 17.3 21.7005 17.3 21.6984C17.3 21.6963 17.3 21.6942 17.3 21.6921C17.3 21.69 17.3 21.6879 17.3 21.6858C17.3 21.6837 17.3 21.6816 17.3 21.6795C17.3 21.6774 17.3 21.6753 17.3 21.6732C17.3 21.6711 17.3 21.669 17.3 21.6669C17.3 21.6648 17.3 21.6627 17.3 21.6606C17.3 21.6585 17.3 21.6564 17.3 21.6543C17.3 21.6522 17.3 21.6501 17.3 21.648C17.3 21.6459 17.3 21.6438 17.3 21.6417C17.3 21.6396 17.3 21.6375 17.3 21.6354C17.3 21.6333 17.3 21.6312 17.3 21.6291C17.3 21.627 17.3 21.6249 17.3 21.6228C17.3 21.6207 17.3 21.6186 17.3 21.6165C17.3 21.6144 17.3 21.6123 17.3 21.6102C17.3 21.6081 17.3 21.606 17.3 21.6039C17.3 21.6018 17.3 21.5997 17.3 21.5976C17.3 21.5955 17.3 21.5934 17.3 21.5913C17.3 21.5892 17.3 21.5872 17.3 21.5851C17.3 21.583 17.3 21.5809 17.3 21.5788C17.3 21.5767 17.3 21.5746 17.3 21.5725C17.3 21.5704 17.3 21.5683 17.3 21.5662C17.3 21.5641 17.3 21.562 17.3 21.56C17.3 21.5579 17.3 21.5558 17.3 21.5537C17.3 21.5516 17.3 21.5495 17.3 21.5474C17.3 21.5453 17.3 21.5432 17.3 21.5411C17.3 21.5391 17.3 21.537 17.3 21.5349C17.3 21.5328 17.3 21.5307 17.3 21.5286C17.3 21.5265 17.3 21.5244 17.3 21.5223C17.3 21.5203 17.3 21.5182 17.3 21.5161C17.3 21.514 17.3 21.5119 17.3 21.5098C17.3 21.5077 17.3 21.5057 17.3 21.5036C17.3 21.5015 17.3 21.4994 17.3 21.4973C17.3 21.4952 17.3 21.4931 17.3 21.4911C17.3 21.489 17.3 21.4869 17.3 21.4848C17.3 21.4827 17.3 21.4806 17.3 21.4786C17.3 21.4765 17.3 21.4744 17.3 21.4723C17.3 21.4702 17.3 21.4681 17.3 21.4661C17.3 21.464 17.3 21.4619 17.3 21.4598C17.3 21.4577 17.3 21.4556 17.3 21.4536C17.3 21.4515 17.3 21.4494 17.3 21.4473C17.3 21.4452 17.3 21.4432 17.3 21.4411C17.3 21.439 17.3 21.4369 17.3 21.4348C17.3 21.4328 17.3 21.4307 17.3 21.4286C17.3 21.4265 17.3 21.4245 17.3 21.4224C17.3 21.4203 17.3 21.4182 17.3 21.4161C17.3 21.4141 17.3 21.412 17.3 21.4099C17.3 21.4078 17.3 21.4058 17.3 21.4037C17.3 21.4016 17.3 21.3995 17.3 21.3975C17.3 21.3954 17.3 21.3933 17.3 21.3912C17.3 21.3892 17.3 21.3871 17.3 21.385C17.3 21.3829 17.3 21.3809 17.3 21.3788C17.3 21.3767 17.3 21.3746 17.3 21.3726C17.3 21.3705 17.3 21.3684 17.3 21.3664C17.3 21.3643 17.3 21.3622 17.3 21.3601C17.3 21.3581 17.3 21.356 17.3 21.3539C17.3 21.3519 17.3 21.3498 17.3 21.3477C17.3 21.3456 17.3 21.3436 17.3 21.3415C17.3 21.3394 17.3 21.3374 17.3 21.3353C17.3 21.3332 17.3 21.3312 17.3 21.3291C17.3 21.327 17.3 21.3249 17.3 21.3229C17.3 21.3208 17.3 21.3187 17.3 21.3167C17.3 21.3146 17.3 21.3125 17.3 21.3105C17.3 21.3084 17.3 21.3063 17.3 21.3043C17.3 21.3022 17.3 21.3001 17.3 21.2981C17.3 21.296 17.3 21.2939 17.3 21.2919C17.3 21.2898 17.3 21.2878 17.3 21.2857C17.3 21.2836 17.3 21.2816 17.3 21.2795C17.3 21.2774 17.3 21.2754 17.3 21.2733C17.3 21.2712 17.3 21.2692 17.3 21.2671C17.3 21.2651 17.3 21.263 17.3 21.2609C17.3 21.2589 17.3 21.2568 17.3 21.2548C17.3 21.2527 17.3 21.2506 17.3 21.2486C17.3 21.2465 17.3 21.2445 17.3 21.2424C17.3 21.2403 17.3 21.2383 17.3 21.2362C17.3 21.2342 17.3 21.2321 17.3 21.23C17.3 21.228 17.3 21.2259 17.3 21.2239C17.3 21.2218 17.3 21.2197 17.3 21.2177C17.3 21.2156 17.3 21.2136 17.3 21.2115C17.3 21.2095 17.3 21.2074 17.3 21.2053C17.3 21.2033 17.3 21.2012 17.3 21.1992C17.3 21.1971 17.3 21.1951 17.3 21.193C17.3 21.191 17.3 21.1889 17.3 21.1869C17.3 21.1848 17.3 21.1827 17.3 21.1807C17.3 21.1786 17.3 21.1766 17.3 21.1745C17.3 21.1725 17.3 21.1704 17.3 21.1684C17.3 21.1663 17.3 21.1643 17.3 21.1622C17.3 21.1602 17.3 21.1581 17.3 21.1561C17.3 21.154 17.3 21.152 17.3 21.1499C17.3 21.1479 17.3 21.1458 17.3 21.1438C17.3 21.1417 17.3 21.1397 17.3 21.1376C17.3 21.1356 17.3 21.1335 17.3 21.1315C17.3 21.1294 17.3 21.1274 17.3 21.1253C17.3 21.1233 17.3 21.1212 17.3 21.1192C17.3 21.1171 17.3 21.1151 17.3 21.113C17.3 21.111 17.3 21.109 17.3 21.1069C17.3 21.1049 17.3 21.1028 17.3 21.1008C17.3 21.0987 17.3 21.0967 17.3 21.0946C17.3 21.0926 17.3 21.0906 17.3 21.0885C17.3 21.0865 17.3 21.0844 17.3 21.0824C17.3 21.0803 17.3 21.0783 17.3 21.0763C17.3 21.0742 17.3 21.0722 17.3 21.0701C17.3 21.0681 17.3 21.066 17.3 21.064C17.3 21.062 17.3 21.0599 17.3 21.0579C17.3 21.0558 17.3 21.0538 17.3 21.0518C17.3 21.0497 17.3 21.0477 17.3 21.0456C17.3 21.0436 17.3 21.0416 17.3 21.0395C17.3 21.0375 17.3 21.0354 17.3 21.0334C17.3 21.0314 17.3 21.0293 17.3 21.0273C17.3 21.0253 17.3 21.0232 17.3 21.0212C17.3 21.0191 17.3 21.0171 17.3 21.0151C17.3 21.013 17.3 21.011 17.3 21.009C17.3 21.0069 17.3 21.0049 17.3 21.0029C17.3 21.0008 17.3 20.9988 17.3 20.9968C17.3 20.9947 17.3 20.9927 17.3 20.9907C17.3 20.9886 17.3 20.9866 17.3 20.9846C17.3 20.9825 17.3 20.9805 17.3 20.9785C17.3 20.9764 17.3 20.9744 17.3 20.9724C17.3 20.9703 17.3 20.9683 17.3 20.9663C17.3 20.9642 17.3 20.9622 17.3 20.9602C17.3 20.9582 17.3 20.9561 17.3 20.9541C17.3 20.9521 17.3 20.95 17.3 20.948C17.3 20.946 17.3 20.944 17.3 20.9419C17.3 20.9399 17.3 20.9379 17.3 20.9358C17.3 20.9338 17.3 20.9318 17.3 20.9298C17.3 20.9277 17.3 20.9257 17.3 20.9237C17.3 20.9217 17.3 20.9196 17.3 20.9176C17.3 20.9156 17.3 20.9136 17.3 20.9115C17.3 20.9095 17.3 20.9075 17.3 20.9055C17.3 20.9034 17.3 20.9014 17.3 20.8994C17.3 20.8974 17.3 20.8953 17.3 20.8933C17.3 20.8913 17.3 20.8893 17.3 20.8873C17.3 20.8852 17.3 20.8832 17.3 20.8812C17.3 20.8792 17.3 20.8771 17.3 20.8751C17.3 20.8731 17.3 20.8711 17.3 20.8691C17.3 20.867 17.3 20.865 17.3 20.863C17.3 20.861 17.3 20.859 17.3 20.857C17.3 20.8549 17.3 20.8529 17.3 20.8509C17.3 20.8489 17.3 20.8469 17.3 20.8448C17.3 20.8428 17.3 20.8408 17.3 20.8388C17.3 20.8368 17.3 20.8348 17.3 20.8327C17.3 20.8307 17.3 20.8287 17.3 20.8267C17.3 20.8247 17.3 20.8227 17.3 20.8207C17.3 20.8186 17.3 20.8166 17.3 20.8146C17.3 20.8126 17.3 20.8106 17.3 20.8086C17.3 20.8066 17.3 20.8045 17.3 20.8025C17.3 20.8005 17.3 20.7985 17.3 20.7965C17.3 20.7945 17.3 20.7925 17.3 20.7905C17.3 20.7885 17.3 20.7864 17.3 20.7844C17.3 20.7824 17.3 20.7804 17.3 20.7784C17.3 20.7764 17.3 20.7744 17.3 20.7724C17.3 20.7704 17.3 20.7684 17.3 20.7663C17.3 20.7643 17.3 20.7623 17.3 20.7603C17.3 20.7583 17.3 20.7563 17.3 20.7543C17.3 20.7523 17.3 20.7503 17.3 20.7483C17.3 20.7463 17.3 20.7443 17.3 20.7423C17.3 20.7403 17.3 20.7383 17.3 20.7362C17.3 20.7342 17.3 20.7322 17.3 20.7302C17.3 20.7282 17.3 20.7262 17.3 20.7242C17.3 20.7222 17.3 20.7202 17.3 20.7182C17.3 20.7162 17.3 20.7142 17.3 20.7122C17.3 20.7102 17.3 20.7082 17.3 20.7062C17.3 20.7042 17.3 20.7022 17.3 20.7002C17.3 20.6982 17.3 20.6962 17.3 20.6942C17.3 20.6922 17.3 20.6902 17.3 20.6882C17.3 20.6862 17.3 20.6842 17.3 20.6822C17.3 20.6802 17.3 20.6782 17.3 20.6762C17.3 20.6742 17.3 20.6722 17.3 20.6702C17.3 20.6682 17.3 20.6662 17.3 20.6642C17.3 20.6622 17.3 20.6602 17.3 20.6582C17.3 20.6562 17.3 20.6542 17.3 20.6522C17.3 20.6503 17.3 20.6483 17.3 20.6463C17.3 20.6443 17.3 20.6423 17.3 20.6403C17.3 20.6383 17.3 20.6363 17.3 20.6343C17.3 20.6323 17.3 20.6303 17.3 20.6283C17.3 20.6263 17.3 20.6243 17.3 20.6223C17.3 20.6204 17.3 20.6184 17.3 20.6164C17.3 20.6144 17.3 20.6124 17.3 20.6104C17.3 20.6084 17.3 20.6064 17.3 20.6044C17.3 20.6024 17.3 20.6005 17.3 20.5985C17.3 20.5965 17.3 20.5945 17.3 20.5925C17.3 20.5905 17.3 20.5885 17.3 20.5865C17.3 20.5845 17.3 20.5826 17.3 20.5806C17.3 20.5786 17.3 20.5766 17.3 20.5746C17.3 20.5726 17.3 20.5706 17.3 20.5687C17.3 20.5667 17.3 20.5647 17.3 20.5627C17.3 20.5607 17.3 20.5587 17.3 20.5568C17.3 20.5548 17.3 20.5528 17.3 20.5508C17.3 20.5488 17.3 20.5468 17.3 20.5449C17.3 20.5429 17.3 20.5409 17.3 20.5389C17.3 20.5369 17.3 20.5349 17.3 20.533C17.3 20.531 17.3 20.529 17.3 20.527C17.3 20.525 17.3 20.5231 17.3 20.5211C17.3 20.5191 17.3 20.5171 17.3 20.5151C17.3 20.5132 17.3 20.5112 17.3 20.5092C17.3 20.5072 17.3 20.5053 17.3 20.5033C17.3 20.5013 17.3 20.4993 17.3 20.4973C17.3 20.4954 17.3 20.4934 17.3 20.4914C17.3 20.4894 17.3 20.4875 17.3 20.4855C17.3 20.4835 17.3 20.4815 17.3 20.4796C17.3 20.4776 17.3 20.4756 17.3 20.4736C17.3 20.4717 17.3 20.4697 17.3 20.4677C17.3 20.4657 17.3 20.4638 17.3 20.4618C17.3 20.4598 17.3 20.4579 17.3 20.4559C17.3 20.4539 17.3 20.4519 17.3 20.45C17.3 20.448 17.3 20.446 17.3 20.4441C17.3 20.4421 17.3 20.4401 17.3 20.4382C17.3 20.4362 17.3 20.4342 17.3 20.4322C17.3 20.4303 17.3 20.4283 17.3 20.4263C17.3 20.4244 17.3 20.4224 17.3 20.4204C17.3 20.4185 17.3 20.4165 17.3 20.4145C17.3 20.4126 17.3 20.4106 17.3 20.4086C17.3 20.4067 17.3 20.4047 17.3 20.4027C17.3 20.4008 17.3 20.3988 17.3 20.3968C17.3 20.3949 17.3 20.3929 17.3 20.391C17.3 20.389 17.3 20.387 17.3 20.3851C17.3 20.3831 17.3 20.3811 17.3 20.3792C17.3 20.3772 17.3 20.3752 17.3 20.3733C17.3 20.3713 17.3 20.3694 17.3 20.3674C17.3 20.3654 17.3 20.3635 17.3 20.3615C17.3 20.3596 17.3 20.3576 17.3 20.3556C17.3 20.3537 17.3 20.3517 17.3 20.3498C17.3 20.3478 17.3 20.3459 17.3 20.3439C17.3 20.3419 17.3 20.34 17.3 20.338C17.3 20.3361 17.3 20.3341 17.3 20.3322C17.3 20.3302 17.3 20.3282 17.3 20.3263C17.3 20.3243 17.3 20.3224 17.3 20.3204C17.3 20.3185 17.3 20.3165 17.3 20.3146C17.3 20.3126 17.3 20.3106 17.3 20.3087C17.3 20.3067 17.3 20.3048 17.3 20.3028C17.3 20.3009 17.3 20.2989 17.3 20.297C17.3 20.295 17.3 20.2931 17.3 20.2911C17.3 20.2892 17.3 20.2872 17.3 20.2853C17.3 20.2833 17.3 20.2814 17.3 20.2794C17.3 20.2775 17.3 20.2755 17.3 20.2736C17.3 20.2716 17.3 20.2697 17.3 20.2677C17.3 20.2658 17.3 20.2638 17.3 20.2619C17.3 20.2599 17.3 20.258 17.3 20.256C17.3 20.2541 17.3 20.2521 17.3 20.2502C17.3 20.2483 17.3 20.2463 17.3 20.2444C17.3 20.2424 17.3 20.2405 17.3 20.2385C17.3 20.2366 17.3 20.2346 17.3 20.2327C17.3 20.2308 17.3 20.2288 17.3 20.2269C17.3 20.2249 17.3 20.223 17.3 20.221C17.3 20.2191 17.3 20.2172 17.3 20.2152C17.3 20.2133 17.3 20.2113 17.3 20.2094C17.3 20.2075 17.3 20.2055 17.3 20.2036C17.3 20.2016 17.3 20.1997 17.3 20.1978C17.3 20.1958 17.3 20.1939 17.3 20.1919C17.3 20.19 17.3 20.1881 17.3 20.1861C17.3 20.1842 17.3 20.1822 17.3 20.1803C17.3 20.1784 17.3 20.1764 17.3 20.1745C17.3 20.1726 17.3 20.1706 17.3 20.1687C17.3 20.1668 17.3 20.1648 17.3 20.1629C17.3 20.161 17.3 20.159 17.3 20.1571C17.3 20.1552 17.3 20.1532 17.3 20.1513C17.3 20.1494 17.3 20.1474 17.3 20.1455C17.3 20.1436 17.3 20.1416 17.3 20.1397C17.3 20.1378 17.3 20.1358 17.3 20.1339C17.3 20.132 17.3 20.13 17.3 20.1281C17.3 20.1262 17.3 20.1242 17.3 20.1223C17.3 20.1204 17.3 20.1185 17.3 20.1165C17.3 20.1146 17.3 20.1127 17.3 20.1107C17.3 20.1088 17.3 20.1069 17.3 20.105C17.3 20.103 17.3 20.1011 17.3 20.0992C17.3 20.0973 17.3 20.0953 17.3 20.0934C17.3 20.0915 17.3 20.0896 17.3 20.0876C17.3 20.0857 17.3 20.0838 17.3 20.0819C17.3 20.0799 17.3 20.078 17.3 20.0761C17.3 20.0742 17.3 20.0722 17.3 20.0703C17.3 20.0684 17.3 20.0665 17.3 20.0646C17.3 20.0626 17.3 20.0607 17.3 20.0588C17.3 20.0569 17.3 20.0549 17.3 20.053C17.3 20.0511 17.3 20.0492 17.3 20.0473C17.3 20.0454 17.3 20.0434 17.3 20.0415C17.3 20.0396 17.3 20.0377 17.3 20.0358C17.3 20.0338 17.3 20.0319 17.3 20.03C17.3 20.0281 17.3 20.0262 17.3 20.0243C17.3 20.0223 17.3 20.0204 17.3 20.0185C17.3 20.0166 17.3 20.0147 17.3 20.0128C17.3 20.0108 17.3 20.0089 17.3 20.007C17.3 20.0051 17.3 20.0032 17.3 20.0013C17.3 19.9994 17.3 19.9975 17.3 19.9955C17.3 19.9936 17.3 19.9917 17.3 19.9898H16.3ZM12 15.6906C14.375 15.6906 16.3 17.6151 16.3 19.9898H17.3C17.3 17.0626 14.927 14.6906 12 14.6906V15.6906ZM1.30005 19.9898C1.30005 17.6151 3.22511 15.6906 5.60005 15.6906V14.6906C2.67305 14.6906 0.300049 17.0626 0.300049 19.9898H1.30005ZM22.7 20.8V23.2H23.7V20.8H22.7ZM23.2 22.7H19.2V23.7H23.2V22.7ZM19.2 17.3C21.133 17.3 22.7 18.867 22.7 20.8H23.7C23.7 18.3147 21.6853 16.3 19.2 16.3V17.3ZM18.4 13.1C16.9089 13.1 15.7 11.8912 15.7 10.4H14.7C14.7 12.4435 16.3566 14.1 18.4 14.1V13.1ZM21.1 10.4C21.1 11.8912 19.8912 13.1 18.4 13.1V14.1C20.4435 14.1 22.1 12.4435 22.1 10.4H21.1ZM18.4 7.7C19.8912 7.7 21.1 8.90883 21.1 10.4H22.1C22.1 8.35655 20.4435 6.7 18.4 6.7V7.7ZM18.4 6.7C16.3566 6.7 14.7 8.35655 14.7 10.4H15.7C15.7 8.90883 16.9089 7.7 18.4 7.7V6.7Z" fill="none" stroke="inherit"/>
</svg>
