<svg width="24" height="24" viewBox="0 0 24 24" fill="none" xmlns="http://www.w3.org/2000/svg">
<path d="M22.6501 4.67724C22.1613 4.913 21.6539 5.09899 21.1332 5.23364C21.7069 4.64066 22.1383 3.89895 22.3816 3.07108C22.4511 2.83473 22.2151 2.63036 22.0189 2.7569C21.2946 3.22422 20.5143 3.5748 19.6998 3.79901C19.6526 3.81202 19.6038 3.81861 19.5549 3.81861C19.4065 3.81861 19.2623 3.7587 19.1489 3.64995C18.2823 2.81921 17.1677 2.36169 16.0106 2.36169C15.5099 2.36169 15.0043 2.44658 14.508 2.61402C12.9701 3.13286 11.7834 4.51271 11.4111 6.21513C11.2714 6.85369 11.2336 7.49283 11.2986 8.11476C11.3061 8.18622 11.275 8.23611 11.2559 8.2595C11.2223 8.30052 11.1746 8.32403 11.1251 8.32403C11.1195 8.32403 11.1139 8.32374 11.1082 8.32315C7.74178 7.98296 4.70606 6.21887 2.56026 3.3559C2.45084 3.20987 2.24101 3.22778 2.15379 3.3905C1.73359 4.17462 1.51153 5.07145 1.51153 5.98404C1.51153 7.38262 2.02812 8.70063 2.92543 9.66146C2.54809 9.56415 2.18287 9.41088 1.8436 9.20593C1.67947 9.10675 1.47752 9.23422 1.47522 9.43842C1.45172 11.5161 2.57008 13.3648 4.24542 14.1973C4.21168 14.1982 4.17794 14.1986 4.14415 14.1986C3.87859 14.1986 3.6097 14.1707 3.34505 14.1157C3.16021 14.0773 3.00493 14.268 3.06232 14.463C3.6061 16.3096 5.06785 17.6707 6.81711 17.9797C5.36533 19.0397 3.67471 19.5989 1.9151 19.5989L1.36655 19.5985C1.19753 19.5985 1.05458 19.7184 1.01151 19.8964C0.969086 20.0718 1.04724 20.2568 1.19136 20.348C3.17415 21.6031 5.43581 22.2665 7.73282 22.2665C9.74345 22.2665 11.6242 21.8325 13.3229 20.9766C14.8802 20.1919 16.2564 19.0703 17.4131 17.6428C18.4907 16.3131 19.3334 14.7781 19.9176 13.0804C20.4745 11.4622 20.7689 9.7355 20.7689 8.08698V8.00846C20.7688 7.74376 20.8789 7.49469 21.0709 7.32515C21.7996 6.68164 22.4342 5.92412 22.9569 5.07367C23.0949 4.84911 22.8772 4.56767 22.6501 4.67724Z" fill="#CC0228"/>
</svg>
