<?xml version="1.0" encoding="utf-8"?>
<!-- Generator: Adobe Illustrator 24.3.0, SVG Export Plug-In . SVG Version: 6.00 Build 0)  -->
<svg version="1.1" id="Vrstva_1" xmlns="http://www.w3.org/2000/svg" xmlns:xlink="http://www.w3.org/1999/xlink" x="0px" y="0px"
	 viewBox="0 0 16 16" style="enable-background:new 0 0 16 16;" xml:space="preserve">
<style type="text/css">
	.st0{fill-rule:evenodd;clip-rule:evenodd;fill:#FFFFFF;}
</style>
<path class="st0" d="M15.8,0.2C16,0.3,16,0.5,16,0.7L9.6,15.7C9.5,15.9,9.3,16,9.1,16c-0.2,0-0.4-0.1-0.5-0.3l-3.1-5.2L0.3,7.4
	C0.1,7.3,0,7.1,0,6.9c0-0.2,0.1-0.4,0.3-0.5L15.3,0C15.5,0,15.7,0,15.8,0.2z M6.5,10.2L9,14.3l4.9-11.4L6.5,10.2z M13.1,2.1L1.7,7
	l4.1,2.4L13.1,2.1z"/>
</svg>
