<svg width="24" height="24" viewBox="0 0 24 24" fill="none" xmlns="http://www.w3.org/2000/svg">
<path d="M20.0354 1H3.96457C2.32731 1 1 2.32725 1 3.96454V20.0353C1 21.6726 2.32726 22.9999 3.96457 22.9999H11.8906L11.9041 15.1383H9.86168C9.59625 15.1383 9.38081 14.9237 9.37979 14.6583L9.36999 12.1242C9.36897 11.8573 9.58505 11.6404 9.85194 11.6404H11.8907V9.1918C11.8907 6.35023 13.6261 4.80297 16.161 4.80297H18.2411C18.5072 4.80297 18.723 5.01872 18.723 5.28491V7.42168C18.723 7.68775 18.5074 7.90346 18.2414 7.90362L16.9648 7.90421C15.5863 7.90421 15.3194 8.55928 15.3194 9.52062V11.6404H18.3485C18.6371 11.6404 18.8611 11.8925 18.8271 12.1791L18.5267 14.7132C18.498 14.9557 18.2923 15.1384 18.0482 15.1384H15.3329L15.3194 23H20.0355C21.6727 23 23 21.6728 23 20.0355V3.96454C22.9999 2.32725 21.6727 1 20.0354 1Z" fill="#CC0228"/>
</svg>
