<svg width="20" height="20" viewBox="0 0 20 20" fill="none" xmlns="http://www.w3.org/2000/svg">
<g opacity="0.7">
<path d="M14.6667 14.0002H16.6667V12.0002M14.6667 6.00016H16.6667V8.00016M5.33341 6.00016H3.33341V8.00016M3.33341 12.0002V14.0002H5.33341M10.0001 12.6668C8.52732 12.6668 7.33341 11.4729 7.33341 10.0002C7.33341 8.5274 8.52732 7.3335 10.0001 7.3335C11.4728 7.3335 12.6667 8.5274 12.6667 10.0002C12.6667 11.4729 11.4728 12.6668 10.0001 12.6668ZM2.00008 3.3335H18.0001C18.7365 3.3335 19.3334 3.93045 19.3334 4.66683V15.3335C19.3334 16.0699 18.7365 16.6668 18.0001 16.6668H2.00008C1.2637 16.6668 0.666748 16.0699 0.666748 15.3335V4.66683C0.666748 3.93045 1.2637 3.3335 2.00008 3.3335Z" stroke="inherit"/>
</g>
</svg>
