<?xml version="1.0" encoding="utf-8"?>
<!-- Generator: Adobe Illustrator 24.3.0, SVG Export Plug-In . SVG Version: 6.00 Build 0)  -->
<svg version="1.1" id="Vrstva_1" xmlns="http://www.w3.org/2000/svg" xmlns:xlink="http://www.w3.org/1999/xlink" x="0px" y="0px"
	 viewBox="0 0 16 16" style="enable-background:new 0 0 16 16;" xml:space="preserve">
<style type="text/css">
	.st0{fill-rule:evenodd;clip-rule:evenodd;fill:#FFFFFF;}
</style>
<path class="st0" d="M4.4,1.4c0.9,0,2.2-0.1,3.6-0.1c1.4,0,2.7,0,3.6,0.1l0,0c0.5,0,1,0.4,1,1c0,0.4-0.3,0.8-0.6,0.9
	c0,3.9-0.7,6.2-1.7,7.4c-0.4,0.5-0.9,0.8-1.2,1l0,0C9.1,11.9,9,12,8.9,12c0,0,0,0,0,0c0,0,0,0,0,0c0,0,0.1,0.1,0.1,0.1l0,0l0,0
	c0.2,0.2,0.3,0.5,0.3,0.8c0,0.8-0.6,1.4-1.4,1.4c-0.8,0-1.4-0.6-1.4-1.4c0-0.3,0.1-0.6,0.3-0.8l0,0l0,0c0,0,0.1-0.1,0.1-0.1
	c0,0,0,0,0,0c0,0,0,0,0,0c0,0-0.1-0.1-0.3-0.2l0,0c-0.3-0.2-0.8-0.5-1.2-1v0c-1-1.2-1.7-3.5-1.7-7.4C3.6,3.2,3.3,2.9,3.3,2.5
	C3.3,1.9,3.8,1.5,4.4,1.4L4.4,1.4z M4.4,2.4C4.3,2.4,4.3,2.5,4.4,2.4C4.3,2.5,4.3,2.5,4.4,2.4C4.3,2.5,4.3,2.5,4.4,2.4
	C4.3,2.5,4.3,2.5,4.4,2.4C4.7,2.5,4.9,2.7,4.9,3c0,4.1,0.7,6.2,1.5,7.1c0.4,0.4,0.7,0.7,1,0.9c0,0,0,0,0,0c0.1,0.1,0.3,0.2,0.4,0.3
	c0.1,0.1,0.2,0.2,0.2,0.3c0.1-0.1,0.1-0.2,0.2-0.3c0.1-0.1,0.3-0.2,0.4-0.3c0,0,0,0,0,0c0.3-0.2,0.6-0.4,1-0.9h0
	c0.8-1,1.5-3.1,1.5-7.1c0-0.3,0.2-0.5,0.5-0.5c0,0,0.1,0,0.1,0c0,0,0,0,0,0c0,0,0,0,0,0c0,0,0,0-0.1,0c-0.9,0-2.2-0.1-3.6-0.1
	C6.6,2.4,5.3,2.4,4.4,2.4z M11.7,2.5C11.7,2.5,11.7,2.5,11.7,2.5L11.7,2.5z M8,12.4c-0.1,0.2-0.2,0.3-0.3,0.4c0,0,0,0,0,0.1
	c0,0.1-0.1,0.1-0.1,0.2c0,0.2,0.2,0.4,0.4,0.4c0.2,0,0.4-0.2,0.4-0.4c0-0.1,0-0.2-0.1-0.2c0,0,0,0,0-0.1C8.2,12.7,8.1,12.5,8,12.4z
	 M4.3,2.5C4.3,2.5,4.3,2.5,4.3,2.5L4.3,2.5z"/>
</svg>
